<svg xmlns="http://www.w3.org/2000/svg" viewBox="0 0 1316 515"><path d="M204.366,23.805v-1.5h18v3h-6v18h-6v-18h-6Z"/><path d="M228.366,23.805v-1.5h18v3h-6v15h6v3h-18v-3h6v-15h-6Z"/><path d="M249.366,32.805v-10.5h18v3h3v6h-3v3h3v6h-3v3h-18Zm15-4.5v-3h-9v6h9Zm0,9v-3h-9v6h9Z"/><path d="M279.366,23.805v-1.5h12v3h3v3h-6v-3h-6v3h-3v9h3v3h6v-3h6v3h-3v3h-12v-3h-3v-3h-3v-9h3v-3h3Z"/><path d="M300.366,23.805v-1.5h15v3h3v15h-3v3h-15v-3h-3v-15h3Zm12,9v-7.5h-9v15h9Z"/><path d="M351.366,23.805v-1.5h15v3h-12v3h-3v9h3v3h6v-6h-3v-3h9v12h-15v-3h-3v-3h-3v-9h3v-3h3Z"/><path d="M372.366,29.805v-1.5h15v3h3v12h-18v-3h-3v-3h3v-3h12v-3h-12Zm12,9v-1.5h-9v3h9Z"/><path d="M393.366,35.805v-7.5h18v3h3v12h-6v-12h-3v12h-6v-12h-3v12h-3Z"/><path d="M420.366,29.805v-1.5h15v3h3v6h-15v3h12v3h-15v-3h-3v-9h3Zm12,3v-1.5h-9v3h9Z"/><path d="M480.366,31.305v-9h6v18h-3v3h-15v-3h-3v-3h6v3h9Z"/><path d="M492.366,29.805v-1.5h15v3h3v12h-18v-3h-3v-3h3v-3h12v-3h-12Zm12,9v-1.5h-9v3h9Z"/><path d="M513.366,35.805v-7.5h18v3h3v12h-6v-12h-3v12h-6v-12h-3v12h-3Z"/><path d="M564.366,23.805v-1.5h15v3h3v6h-3v3h-3v3h-6v3h12v3h-21v-6h3v-3h3v-3h6v-3h3v-3h-9v3h-6v-3h3Z"/><path d="M591.366,23.805v-1.5h9v3h3v3h3v9h-3v3h-3v3h-9v-3h-3v-3h-3v-9h3v-3h3Zm6,3v-1.5h-6v12h3v3h6v-12h-3Z"/><path d="M618.366,23.805v-1.5h6v18h6v3h-18v-3h6v-12h-3v-3h3Z"/><path d="M636.366,23.805v-1.5h15v3h3v12h-3v3h-3v3h-12v-3h9v-3h3v-3h-12v-3h-3v-6h3Zm12,4.5v-3h-9v6h9Z"/><path d="M684.366,29.805v-1.5h15v3h3v6h-15v3h12v3h-15v-3h-3v-9h3Zm12,3v-1.5h-9v3h9Z"/><path d="M705.366,35.805v-7.5h18v3h3v12h-6v-12h-9v12h-6Z"/><path d="M738.366,25.305v-3h6v6h6v3h-6v12h-6v-12h-6v-3h6Z"/><path d="M756.366,35.805v-7.5h6v3h3v-3h9v3h-9v3h-3v9h-6Z"/><path d="M777.366,32.805v-4.5h6v9h9v-9h6v15h-3v3h-15v-3h12v-3h-12v-3h-3Z"/><path d="M825.366,31.305v-9h6v6h12v3h3v9h-3v3h-15v-3h-3Zm15,4.5v-4.5h-9v9h9Z"/><path d="M849.366,32.805v-4.5h6v9h9v-9h6v15h-3v3h-15v-3h12v-3h-12v-3h-3Z"/><path d="M900.366,23.805v-1.5h18v3h-6v18h-6v-18h-6Z"/><path d="M921.366,32.805v-4.5h6v9h9v-9h6v15h-3v3h-15v-3h12v-3h-12v-3h-3Z"/><path d="M948.366,29.805v-1.5h15v3h-12v3h12v3h3v3h-3v3h-18v-3h15v-3h-12v-3h-3v-3h3Z"/><path d="M978.366,25.305v-3h6v6h6v3h-6v12h-6v-12h-6v-3h6Z"/><path d="M993.366,35.805v-7.5h18v3h3v12h-6v-12h-9v12h-6Z"/><path d="M1020.366,29.805v-1.5h15v3h3v12h-18v-3h-3v-3h3v-3h12v-3h-12Zm12,9v-1.5h-9v3h9Z"/><path d="M1056.366,25.305v-3h6v21h-18v-3h-3v-9h3v-3h12Zm0,10.5v-4.5h-9v9h9Z"/><path d="M1068.366,29.805v-1.5h15v3h3v6h-15v3h12v3h-15v-3h-3v-9h3Zm12,3v-1.5h-9v3h9Z"/><path d="M1089.366,35.805v-7.5h18v3h3v12h-6v-12h-9v12h-6Z"/><path d="M1119.366,40.305v-3h6v6h-6Z"/><path d="M359.366,83.055v-8.75h17.5v2.5h-12.5v5h10v2.5h-10v7.5h-5Z"/><path d="M381.866,80.555v-1.25h12.5v2.5h2.5v5h-12.5v2.5h10v2.5h-12.5v-2.5h-2.5v-7.5h2.5Zm10,2.5v-1.25h-7.5v2.5h7.5Z"/><path d="M401.866,80.555v-1.25h12.5v2.5h2.5v10h-15v-2.5h-2.5v-2.5h2.5v-2.5h10v-2.5h-10Zm10,7.5v-1.25h-7.5v2.5h7.5Z"/><path d="M421.866,85.555v-6.25h5v2.5h2.5v-2.5h7.5v2.5h-7.5v2.5h-2.5v7.5h-5Z"/><path d="M444.366,75.555v-1.25h7.5v15h5v2.5h-15v-2.5h5v-12.5h-2.5Z"/><path d="M461.866,80.555v-1.25h12.5v2.5h2.5v5h-12.5v2.5h10v2.5h-12.5v-2.5h-2.5v-7.5h2.5Zm10,2.5v-1.25h-7.5v2.5h7.5Z"/><path d="M481.866,80.555v-1.25h12.5v2.5h-10v2.5h10v2.5h2.5v2.5h-2.5v2.5h-15v-2.5h12.5v-2.5h-10v-2.5h-2.5v-2.5h2.5Z"/><path d="M501.866,80.555v-1.25h12.5v2.5h-10v2.5h10v2.5h2.5v2.5h-2.5v2.5h-15v-2.5h12.5v-2.5h-10v-2.5h-2.5v-2.5h2.5Z"/><path d="M539.366,85.555v-6.25h15v2.5h2.5v10h-5v-10h-7.5v10h-5Z"/><path d="M564.366,80.555v-1.25h7.5v10h5v2.5h-15v-2.5h5v-7.5h-2.5Zm2.5-5v-1.25h5v2.5h-5Z"/><path d="M579.366,85.555v-6.25h15v2.5h2.5v10h-5v-10h-7.5v10h-5Z"/><path d="M606.866,80.555v-1.25h7.5v12.5h-2.5v2.5h-10v-2.5h7.5v-10h-2.5Zm2.5-5v-1.25h5v2.5h-5Z"/><path d="M621.866,80.555v-1.25h12.5v2.5h2.5v10h-15v-2.5h-2.5v-2.5h2.5v-2.5h10v-2.5h-10Zm10,7.5v-1.25h-7.5v2.5h7.5Z"/><path d="M641.866,80.555v-1.25h12.5v2.5h-10v2.5h10v2.5h2.5v2.5h-2.5v2.5h-15v-2.5h12.5v-2.5h-10v-2.5h-2.5v-2.5h2.5Z"/><path d="M689.366,75.555v-1.25h7.5v2.5h-5v2.5h5v2.5h-5v10h-5v-10h-5v-2.5h5v-2.5h2.5Z"/><path d="M701.866,85.555v-6.25h5v2.5h2.5v-2.5h7.5v2.5h-7.5v2.5h-2.5v7.5h-5Z"/><path d="M721.866,80.555v-1.25h12.5v2.5h2.5v7.5h-2.5v2.5h-12.5v-2.5h-2.5v-7.5h2.5Zm10,5v-3.75h-7.5v7.5h7.5Z"/><path d="M739.366,85.555v-6.25h15v2.5h2.5v10h-5v-10h-2.5v10h-5v-10h-2.5v10h-2.5Z"/><path d="M786.866,76.805v-2.5h5v5h5v2.5h-5v10h-5v-10h-5v-2.5h5Z"/><path d="M799.366,83.055v-8.75h5v5h10v2.5h2.5v10h-5v-10h-7.5v10h-5Z"/><path d="M821.866,80.555v-1.25h12.5v2.5h2.5v5h-12.5v2.5h10v2.5h-12.5v-2.5h-2.5v-7.5h2.5Zm10,2.5v-1.25h-7.5v2.5h7.5Z"/><path d="M869.366,75.555v-1.25h7.5v2.5h-5v2.5h5v2.5h-5v10h-5v-10h-5v-2.5h5v-2.5h2.5Z"/><path d="M879.366,84.305v-5h5v10h7.5v-10h5v12.5h-15v-2.5h-2.5Z"/><path d="M906.866,76.805v-2.5h5v5h5v2.5h-5v10h-5v-10h-5v-2.5h5Z"/><path d="M919.366,84.305v-5h5v10h7.5v-10h5v12.5h-15v-2.5h-2.5Z"/><path d="M941.866,85.555v-6.25h5v2.5h2.5v-2.5h7.5v2.5h-7.5v2.5h-2.5v7.5h-5Z"/><path d="M961.866,80.555v-1.25h12.5v2.5h2.5v5h-12.5v2.5h10v2.5h-12.5v-2.5h-2.5v-7.5h2.5Zm10,2.5v-1.25h-7.5v2.5h7.5Z"/><path d="M261.866,129.805v-7.5h5v15h-2.5v2.5h-12.5v-2.5h-2.5v-2.5h5v2.5h7.5Z"/><path d="M271.866,128.555v-1.25h12.5v2.5h2.5v7.5h-2.5v2.5h-12.5v-2.5h-2.5v-7.5h2.5Zm10,5v-3.75h-7.5v7.5h7.5Z"/><path d="M294.366,128.555v-1.25h7.5v10h5v2.5h-15v-2.5h5v-7.5h-2.5Zm2.5-5v-1.25h5v2.5h-5Z"/><path d="M309.366,133.555v-6.25h15v2.5h2.5v10h-5v-10h-7.5v10h-5Z"/><path d="M354.366,123.555v-1.25h7.5v2.5h2.5v2.5h2.5v12.5h-5v-5h-7.5v5h-5v-12.5h2.5v-2.5h2.5Zm5,2.5v-1.25h-2.5v2.5h-2.5v5h7.5v-5h-2.5Z"/><path d="M374.366,123.555v-1.25h7.5v15h5v2.5h-15v-2.5h5v-12.5h-2.5Z"/><path d="M394.366,128.555v-1.25h7.5v10h5v2.5h-15v-2.5h5v-7.5h-2.5Zm2.5-5v-1.25h5v2.5h-5Z"/><path d="M411.866,128.555v-1.25h15v2.5h-12.5v7.5h12.5v2.5h-15v-2.5h-2.5v-7.5h2.5Z"/><path d="M431.866,128.555v-1.25h12.5v2.5h2.5v5h-12.5v2.5h10v2.5h-12.5v-2.5h-2.5v-7.5h2.5Zm10,2.5v-1.25h-7.5v2.5h7.5Z"/><path d="M454.366,137.305v-2.5h5v5h-2.5v2.5h-5v-2.5h2.5Z"/><path d="M489.366,131.055v-8.75h5v2.5h2.5v2.5h2.5v-2.5h2.5v-2.5h5v17.5h-5v-7.5h-2.5v2.5h-2.5v-2.5h-2.5v7.5h-5Z"/><path d="M511.866,128.555v-1.25h12.5v2.5h2.5v10h-15v-2.5h-2.5v-2.5h2.5v-2.5h10v-2.5h-10Zm10,7.5v-1.25h-7.5v2.5h7.5Z"/><path d="M534.366,123.555v-1.25h7.5v15h5v2.5h-15v-2.5h5v-12.5h-2.5Z"/><path d="M554.366,128.555v-1.25h7.5v10h5v2.5h-15v-2.5h5v-7.5h-2.5Zm2.5-5v-1.25h5v2.5h-5Z"/><path d="M571.866,128.555v-1.25h15v2.5h-12.5v7.5h12.5v2.5h-15v-2.5h-2.5v-7.5h2.5Z"/><path d="M591.866,128.555v-1.25h12.5v2.5h2.5v5h-12.5v2.5h10v2.5h-12.5v-2.5h-2.5v-7.5h2.5Zm10,2.5v-1.25h-7.5v2.5h7.5Z"/><path d="M614.366,137.305v-2.5h5v5h-2.5v2.5h-5v-2.5h2.5Z"/><path d="M649.366,131.055v-8.75h12.5v2.5h2.5v2.5h2.5v7.5h-2.5v2.5h-2.5v2.5h-12.5Zm10-5v-1.25h-5v12.5h5v-2.5h2.5v-7.5h-2.5Z"/><path d="M671.866,128.555v-1.25h12.5v2.5h2.5v10h-15v-2.5h-2.5v-2.5h2.5v-2.5h10v-2.5h-10Zm10,7.5v-1.25h-7.5v2.5h7.5Z"/><path d="M694.366,123.555v-1.25h7.5v15h5v2.5h-15v-2.5h5v-12.5h-2.5Z"/><path d="M714.366,128.555v-1.25h7.5v10h5v2.5h-15v-2.5h5v-7.5h-2.5Zm2.5-5v-1.25h5v2.5h-5Z"/><path d="M731.866,128.555v-1.25h15v2.5h-12.5v7.5h12.5v2.5h-15v-2.5h-2.5v-7.5h2.5Z"/><path d="M751.866,128.555v-1.25h12.5v2.5h2.5v5h-12.5v2.5h10v2.5h-12.5v-2.5h-2.5v-7.5h2.5Zm10,2.5v-1.25h-7.5v2.5h7.5Z"/><path d="M774.366,137.305v-2.5h5v5h-2.5v2.5h-5v-2.5h2.5Z"/><path d="M811.866,128.555v-1.25h12.5v2.5h2.5v10h-15v-2.5h-2.5v-2.5h2.5v-2.5h10v-2.5h-10Zm10,7.5v-1.25h-7.5v2.5h7.5Z"/><path d="M829.366,133.555v-6.25h15v2.5h2.5v10h-5v-10h-7.5v10h-5Z"/><path d="M861.866,124.805v-2.5h5v17.5h-15v-2.5h-2.5v-7.5h2.5v-2.5h10Zm0,8.75v-3.75h-7.5v7.5h7.5Z"/><path d="M889.366,131.055v-8.75h15v2.5h2.5v7.5h-5v2.5h2.5v2.5h2.5v2.5h-7.5v-2.5h-2.5v-2.5h-2.5v5h-5Zm12.5-3.75v-2.5h-7.5v7.5h5v-2.5h2.5Z"/><path d="M911.866,128.555v-1.25h12.5v2.5h2.5v10h-15v-2.5h-2.5v-2.5h2.5v-2.5h10v-2.5h-10Zm10,7.5v-1.25h-7.5v2.5h7.5Z"/><path d="M934.366,123.555v-1.25h7.5v15h5v2.5h-15v-2.5h5v-12.5h-2.5Z"/><path d="M954.366,128.555v-1.25h7.5v10h5v2.5h-15v-2.5h5v-7.5h-2.5Zm2.5-5v-1.25h5v2.5h-5Z"/><path d="M971.866,128.555v-1.25h15v2.5h-12.5v7.5h12.5v2.5h-15v-2.5h-2.5v-7.5h2.5Z"/><path d="M991.866,128.555v-1.25h12.5v2.5h2.5v5h-12.5v2.5h10v2.5h-12.5v-2.5h-2.5v-7.5h2.5Zm10,2.5v-1.25h-7.5v2.5h7.5Z"/><path d="M1034.366,128.555v-1.25h7.5v10h5v2.5h-15v-2.5h5v-7.5h-2.5Zm2.5-5v-1.25h5v2.5h-5Z"/><path d="M1049.366,133.555v-6.25h15v2.5h2.5v10h-5v-10h-7.5v10h-5Z"/><path d="M326.866,151.805v-2.5h5v5h5v2.5h-5v10h-5v-10h-5v-2.5h5Z"/><path d="M339.366,158.055v-8.75h5v5h10v2.5h2.5v10h-5v-10h-7.5v10h-5Z"/><path d="M361.866,155.555v-1.25h12.5v2.5h2.5v5h-12.5v2.5h10v2.5h-12.5v-2.5h-2.5v-7.5h2.5Zm10,2.5v-1.25h-7.5v2.5h7.5Z"/><path d="M401.866,155.555v-1.25h12.5v2.5h2.5v5h-12.5v2.5h10v2.5h-12.5v-2.5h-2.5v-7.5h2.5Zm10,2.5v-1.25h-7.5v2.5h7.5Z"/><path d="M419.366,156.805v-2.5h5v2.5h7.5v-2.5h5v5h-5v2.5h5v5h-5v-2.5h-7.5v2.5h-5v-5h5v-2.5h-5Z"/><path d="M441.866,155.555v-1.25h15v2.5h-12.5v7.5h12.5v2.5h-15v-2.5h-2.5v-7.5h2.5Z"/><path d="M464.366,155.555v-1.25h7.5v10h5v2.5h-15v-2.5h5v-7.5h-2.5Zm2.5-5v-1.25h5v2.5h-5Z"/><path d="M486.866,151.805v-2.5h5v5h5v2.5h-5v10h-5v-10h-5v-2.5h5Z"/><path d="M504.366,155.555v-1.25h7.5v10h5v2.5h-15v-2.5h5v-7.5h-2.5Zm2.5-5v-1.25h5v2.5h-5Z"/><path d="M519.366,160.555v-6.25h15v2.5h2.5v10h-5v-10h-7.5v10h-5Z"/><path d="M541.866,155.555v-1.25h15v12.5h-2.5v2.5h-12.5v-2.5h10v-2.5h-10v-2.5h-2.5v-5h2.5Zm10,3.75v-2.5h-7.5v5h7.5Z"/><path d="M579.366,156.805v-7.5h5v5h10v2.5h2.5v7.5h-2.5v2.5h-12.5v-2.5h-2.5Zm12.5,3.75v-3.75h-7.5v7.5h7.5Z"/><path d="M601.866,155.555v-1.25h12.5v2.5h2.5v10h-15v-2.5h-2.5v-2.5h2.5v-2.5h10v-2.5h-10Zm10,7.5v-1.25h-7.5v2.5h7.5Z"/><path d="M626.866,151.805v-2.5h5v5h5v2.5h-5v10h-5v-10h-5v-2.5h5Z"/><path d="M646.866,151.805v-2.5h5v5h5v2.5h-5v10h-5v-10h-5v-2.5h5Z"/><path d="M664.366,150.555v-1.25h7.5v15h5v2.5h-15v-2.5h5v-12.5h-2.5Z"/><path d="M681.866,155.555v-1.25h12.5v2.5h2.5v5h-12.5v2.5h10v2.5h-12.5v-2.5h-2.5v-7.5h2.5Zm10,2.5v-1.25h-7.5v2.5h7.5Z"/><path d="M729.366,150.555v-1.25h7.5v2.5h-5v2.5h5v2.5h-5v10h-5v-10h-5v-2.5h5v-2.5h2.5Z"/><path d="M741.866,155.555v-1.25h12.5v2.5h2.5v7.5h-2.5v2.5h-12.5v-2.5h-2.5v-7.5h2.5Zm10,5v-3.75h-7.5v7.5h7.5Z"/><path d="M761.866,160.555v-6.25h5v2.5h2.5v-2.5h7.5v2.5h-7.5v2.5h-2.5v7.5h-5Z"/><path d="M806.866,151.805v-2.5h5v5h5v2.5h-5v10h-5v-10h-5v-2.5h5Z"/><path d="M819.366,158.055v-8.75h5v5h10v2.5h2.5v10h-5v-10h-7.5v10h-5Z"/><path d="M841.866,155.555v-1.25h12.5v2.5h2.5v5h-12.5v2.5h10v2.5h-12.5v-2.5h-2.5v-7.5h2.5Zm10,2.5v-1.25h-7.5v2.5h7.5Z"/><path d="M889.366,150.555v-1.25h7.5v2.5h-5v2.5h5v2.5h-5v10h-5v-10h-5v-2.5h5v-2.5h2.5Z"/><path d="M899.366,159.305v-5h5v10h7.5v-10h5v12.5h-15v-2.5h-2.5Z"/><path d="M926.866,151.805v-2.5h5v5h5v2.5h-5v10h-5v-10h-5v-2.5h5Z"/><path d="M939.366,159.305v-5h5v10h7.5v-10h5v12.5h-15v-2.5h-2.5Z"/><path d="M961.866,160.555v-6.25h5v2.5h2.5v-2.5h7.5v2.5h-7.5v2.5h-2.5v7.5h-5Z"/><path d="M981.866,155.555v-1.25h12.5v2.5h2.5v5h-12.5v2.5h10v2.5h-12.5v-2.5h-2.5v-7.5h2.5Zm10,2.5v-1.25h-7.5v2.5h7.5Z"/><path d="M1004.366,164.305v-2.5h5v5h-5Z"/><path d="M369.767,198.555v-1.25h10v2.5h2.5v2.5h-5v-2.5h-5v2.5h-2.5v7.5h2.5v2.5h5v-2.5h5v2.5h-2.5v2.5h-10v-2.5h-2.5v-2.5h-2.5v-7.5h2.5v-2.5h2.5Z"/><path d="M387.267,203.555v-1.25h12.5v2.5h2.5v7.5h-2.5v2.5h-12.5v-2.5h-2.5v-7.5h2.5Zm10,5v-3.75h-7.5v7.5h7.5Z"/><path d="M417.267,199.805v-2.5h5v17.5h-15v-2.5h-2.5v-7.5h2.5v-2.5h10Zm0,8.75v-3.75h-7.5v7.5h7.5Z"/><path d="M429.767,203.555v-1.25h7.5v10h5v2.5h-15v-2.5h5v-7.5h-2.5Zm2.5-5v-1.25h5v2.5h-5Z"/><path d="M444.767,208.555v-6.25h15v2.5h2.5v10h-5v-10h-7.5v10h-5Z"/><path d="M467.267,203.555v-1.25h15v12.5h-2.5v2.5h-12.5v-2.5h10v-2.5h-10v-2.5h-2.5v-5h2.5Zm10,3.75v-2.5h-7.5v5h7.5Z"/><path d="M507.267,203.555v-1.25h12.5v2.5h2.5v10h-15v-2.5h-2.5v-2.5h2.5v-2.5h10v-2.5h-10Zm10,7.5v-1.25h-7.5v2.5h7.5Z"/><path d="M524.767,208.555v-6.25h15v2.5h2.5v10h-5v-10h-7.5v10h-5Z"/><path d="M557.267,199.805v-2.5h5v17.5h-15v-2.5h-2.5v-7.5h2.5v-2.5h10Zm0,8.75v-3.75h-7.5v7.5h7.5Z"/><path d="M587.267,203.555v-1.25h15v12.5h-2.5v2.5h-12.5v-2.5h10v-2.5h-10v-2.5h-2.5v-5h2.5Zm10,3.75v-2.5h-7.5v5h7.5Z"/><path d="M607.267,208.555v-6.25h5v2.5h2.5v-2.5h7.5v2.5h-7.5v2.5h-2.5v7.5h-5Z"/><path d="M627.267,203.555v-1.25h12.5v2.5h2.5v10h-15v-2.5h-2.5v-2.5h2.5v-2.5h10v-2.5h-10Zm10,7.5v-1.25h-7.5v2.5h7.5Z"/><path d="M644.767,209.805v-7.5h15v2.5h2.5v5h-2.5v2.5h-10v5h-5Zm12.5-2.5v-2.5h-7.5v5h7.5Z"/><path d="M664.767,206.055v-8.75h5v5h10v2.5h2.5v10h-5v-10h-7.5v10h-5Z"/><path d="M689.767,203.555v-1.25h7.5v10h5v2.5h-15v-2.5h5v-7.5h-2.5Zm2.5-5v-1.25h5v2.5h-5Z"/><path d="M707.267,203.555v-1.25h15v2.5h-12.5v7.5h12.5v2.5h-15v-2.5h-2.5v-7.5h2.5Z"/><path d="M727.267,203.555v-1.25h12.5v2.5h-10v2.5h10v2.5h2.5v2.5h-2.5v2.5h-15v-2.5h12.5v-2.5h-10v-2.5h-2.5v-2.5h2.5Z"/><path d="M749.767,202.305v-2.5h5v5h-5Zm0,7.5v-2.5h5v5h-5Z"/><path d="M776.467,198.555v-1.25h15v2.5h-5v15h-5v-15h-5Z"/><path d="M793.967,206.055v-3.75h5v7.5h7.5v-7.5h5v12.5h-2.5v2.5h-12.5v-2.5h10v-2.5h-10v-2.5h-2.5Z"/><path d="M816.467,203.555v-1.25h12.5v2.5h-10v2.5h10v2.5h2.5v2.5h-2.5v2.5h-15v-2.5h12.5v-2.5h-10v-2.5h-2.5v-2.5h2.5Z"/><path d="M841.467,199.805v-2.5h5v5h5v2.5h-5v10h-5v-10h-5v-2.5h5Z"/><path d="M853.967,208.555v-6.25h15v2.5h2.5v10h-5v-10h-7.5v10h-5Z"/><path d="M876.467,203.555v-1.25h12.5v2.5h2.5v10h-15v-2.5h-2.5v-2.5h2.5v-2.5h10v-2.5h-10Zm10,7.5v-1.25h-7.5v2.5h7.5Z"/><path d="M906.467,199.805v-2.5h5v17.5h-15v-2.5h-2.5v-7.5h2.5v-2.5h10Zm0,8.75v-3.75h-7.5v7.5h7.5Z"/><path d="M916.467,203.555v-1.25h12.5v2.5h2.5v5h-12.5v2.5h10v2.5h-12.5v-2.5h-2.5v-7.5h2.5Zm10,2.5v-1.25h-7.5v2.5h7.5Z"/><path d="M933.967,208.555v-6.25h15v2.5h2.5v10h-5v-10h-7.5v10h-5Z"/><path d="M958.967,212.305v-2.5h5v5h-5Z"/><path d="M201.866,246.555v-1.25h10v2.5h2.5v2.5h-5v-2.5h-5v5h10v2.5h2.5v5h-2.5v2.5h-12.5v-2.5h-2.5v-2.5h5v2.5h7.5v-5h-10v-2.5h-2.5v-5h2.5Z"/><path d="M221.866,251.555v-1.25h12.5v2.5h2.5v7.5h-2.5v2.5h-12.5v-2.5h-2.5v-7.5h2.5Zm10,5v-3.75h-7.5v7.5h7.5Z"/><path d="M239.366,256.555v-6.25h15v2.5h2.5v10h-5v-10h-2.5v10h-5v-10h-2.5v10h-2.5Z"/><path d="M261.866,251.555v-1.25h12.5v2.5h2.5v5h-12.5v2.5h10v2.5h-12.5v-2.5h-2.5v-7.5h2.5Zm10,2.5v-1.25h-7.5v2.5h7.5Z"/><path d="M301.866,251.555v-1.25h15v12.5h-2.5v2.5h-12.5v-2.5h10v-2.5h-10v-2.5h-2.5v-5h2.5Zm10,3.75v-2.5h-7.5v5h7.5Z"/><path d="M321.866,256.555v-6.25h5v2.5h2.5v-2.5h7.5v2.5h-7.5v2.5h-2.5v7.5h-5Z"/><path d="M341.866,251.555v-1.25h12.5v2.5h2.5v10h-15v-2.5h-2.5v-2.5h2.5v-2.5h10v-2.5h-10Zm10,7.5v-1.25h-7.5v2.5h7.5Z"/><path d="M359.366,257.805v-7.5h15v2.5h2.5v5h-2.5v2.5h-10v5h-5Zm12.5-2.5v-2.5h-7.5v5h7.5Z"/><path d="M379.366,254.055v-8.75h5v5h10v2.5h2.5v10h-5v-10h-7.5v10h-5Z"/><path d="M404.366,251.555v-1.25h7.5v10h5v2.5h-15v-2.5h5v-7.5h-2.5Zm2.5-5v-1.25h5v2.5h-5Z"/><path d="M421.866,251.555v-1.25h15v2.5h-12.5v7.5h12.5v2.5h-15v-2.5h-2.5v-7.5h2.5Z"/><path d="M441.866,251.555v-1.25h12.5v2.5h2.5v10h-15v-2.5h-2.5v-2.5h2.5v-2.5h10v-2.5h-10Zm10,7.5v-1.25h-7.5v2.5h7.5Z"/><path d="M464.366,246.555v-1.25h7.5v15h5v2.5h-15v-2.5h5v-12.5h-2.5Z"/><path d="M501.866,251.555v-1.25h12.5v2.5h2.5v5h-12.5v2.5h10v2.5h-12.5v-2.5h-2.5v-7.5h2.5Zm10,2.5v-1.25h-7.5v2.5h7.5Z"/><path d="M524.366,246.555v-1.25h7.5v15h5v2.5h-15v-2.5h5v-12.5h-2.5Z"/><path d="M541.866,251.555v-1.25h12.5v2.5h2.5v5h-12.5v2.5h10v2.5h-12.5v-2.5h-2.5v-7.5h2.5Zm10,2.5v-1.25h-7.5v2.5h7.5Z"/><path d="M559.366,256.555v-6.25h15v2.5h2.5v10h-5v-10h-2.5v10h-5v-10h-2.5v10h-2.5Z"/><path d="M581.866,251.555v-1.25h12.5v2.5h2.5v5h-12.5v2.5h10v2.5h-12.5v-2.5h-2.5v-7.5h2.5Zm10,2.5v-1.25h-7.5v2.5h7.5Z"/><path d="M599.366,256.555v-6.25h15v2.5h2.5v10h-5v-10h-7.5v10h-5Z"/><path d="M626.866,247.805v-2.5h5v5h5v2.5h-5v10h-5v-10h-5v-2.5h5Z"/><path d="M641.866,251.555v-1.25h12.5v2.5h-10v2.5h10v2.5h2.5v2.5h-2.5v2.5h-15v-2.5h12.5v-2.5h-10v-2.5h-2.5v-2.5h2.5Z"/><path d="M686.866,247.805v-2.5h5v5h5v2.5h-5v10h-5v-10h-5v-2.5h5Z"/><path d="M701.866,251.555v-1.25h12.5v2.5h2.5v10h-15v-2.5h-2.5v-2.5h2.5v-2.5h10v-2.5h-10Zm10,7.5v-1.25h-7.5v2.5h7.5Z"/><path d="M719.366,254.055v-8.75h5v7.5h5v-2.5h7.5v2.5h-2.5v2.5h-2.5v2.5h2.5v2.5h2.5v2.5h-7.5v-2.5h-2.5v-2.5h-2.5v5h-5Z"/><path d="M741.866,251.555v-1.25h12.5v2.5h2.5v5h-12.5v2.5h10v2.5h-12.5v-2.5h-2.5v-7.5h2.5Zm10,2.5v-1.25h-7.5v2.5h7.5Z"/><path d="M759.366,256.555v-6.25h15v2.5h2.5v10h-5v-10h-7.5v10h-5Z"/><path d="M809.366,246.555v-1.25h7.5v2.5h-5v2.5h5v2.5h-5v10h-5v-10h-5v-2.5h5v-2.5h2.5Z"/><path d="M821.866,256.555v-6.25h5v2.5h2.5v-2.5h7.5v2.5h-7.5v2.5h-2.5v7.5h-5Z"/><path d="M841.866,251.555v-1.25h12.5v2.5h2.5v7.5h-2.5v2.5h-12.5v-2.5h-2.5v-7.5h2.5Zm10,5v-3.75h-7.5v7.5h7.5Z"/><path d="M859.366,256.555v-6.25h15v2.5h2.5v10h-5v-10h-2.5v10h-5v-10h-2.5v10h-2.5Z"/><path d="M901.866,251.555v-1.25h12.5v2.5h-10v2.5h10v2.5h2.5v2.5h-2.5v2.5h-15v-2.5h12.5v-2.5h-10v-2.5h-2.5v-2.5h2.5Z"/><path d="M926.866,247.805v-2.5h5v5h5v2.5h-5v10h-5v-10h-5v-2.5h5Z"/><path d="M941.866,251.555v-1.25h12.5v2.5h2.5v7.5h-2.5v2.5h-12.5v-2.5h-2.5v-7.5h2.5Zm10,5v-3.75h-7.5v7.5h7.5Z"/><path d="M961.866,251.555v-1.25h15v2.5h-12.5v7.5h12.5v2.5h-15v-2.5h-2.5v-7.5h2.5Z"/><path d="M979.366,254.055v-8.75h5v7.5h5v-2.5h7.5v2.5h-2.5v2.5h-2.5v2.5h2.5v2.5h2.5v2.5h-7.5v-2.5h-2.5v-2.5h-2.5v5h-5Z"/><path d="M1004.366,251.555v-1.25h7.5v10h5v2.5h-15v-2.5h5v-7.5h-2.5Zm2.5-5v-1.25h5v2.5h-5Z"/><path d="M1021.866,251.555v-1.25h12.5v2.5h2.5v7.5h-2.5v2.5h-12.5v-2.5h-2.5v-7.5h2.5Zm10,5v-3.75h-7.5v7.5h7.5Z"/><path d="M1044.366,260.305v-2.5h5v5h-5Z"/><path d="M1061.866,251.555v-1.25h15v2.5h-12.5v7.5h12.5v2.5h-15v-2.5h-2.5v-7.5h2.5Z"/><path d="M1081.866,251.555v-1.25h12.5v2.5h2.5v7.5h-2.5v2.5h-12.5v-2.5h-2.5v-7.5h2.5Zm10,5v-3.75h-7.5v7.5h7.5Z"/><path d="M1099.366,256.555v-6.25h15v2.5h2.5v10h-5v-10h-2.5v10h-5v-10h-2.5v10h-2.5Z"/><path d="M209.366,270.555v-1.25h5v2.5h-2.5v2.5h-2.5v7.5h2.5v2.5h2.5v2.5h-5v-2.5h-2.5v-2.5h-2.5v-7.5h2.5v-2.5h2.5Z"/><path d="M229.366,270.555v-1.25h7.5v2.5h-5v2.5h5v2.5h-5v10h-5v-10h-5v-2.5h5v-2.5h2.5Z"/><path d="M241.866,280.555v-6.25h5v2.5h2.5v-2.5h7.5v2.5h-7.5v2.5h-2.5v7.5h-5Z"/><path d="M261.866,275.555v-1.25h12.5v2.5h2.5v5h-12.5v2.5h10v2.5h-12.5v-2.5h-2.5v-7.5h2.5Zm10,2.5v-1.25h-7.5v2.5h7.5Z"/><path d="M281.866,275.555v-1.25h12.5v2.5h2.5v5h-12.5v2.5h10v2.5h-12.5v-2.5h-2.5v-7.5h2.5Zm10,2.5v-1.25h-7.5v2.5h7.5Z"/><path d="M324.366,270.555v-1.25h7.5v15h5v2.5h-15v-2.5h5v-12.5h-2.5Z"/><path d="M344.366,275.555v-1.25h7.5v10h5v2.5h-15v-2.5h5v-7.5h-2.5Zm2.5-5v-1.25h5v2.5h-5Z"/><path d="M361.866,275.555v-1.25h15v2.5h-12.5v7.5h12.5v2.5h-15v-2.5h-2.5v-7.5h2.5Z"/><path d="M381.866,275.555v-1.25h12.5v2.5h2.5v5h-12.5v2.5h10v2.5h-12.5v-2.5h-2.5v-7.5h2.5Zm10,2.5v-1.25h-7.5v2.5h7.5Z"/><path d="M399.366,280.555v-6.25h15v2.5h2.5v10h-5v-10h-7.5v10h-5Z"/><path d="M421.866,275.555v-1.25h12.5v2.5h-10v2.5h10v2.5h2.5v2.5h-2.5v2.5h-15v-2.5h12.5v-2.5h-10v-2.5h-2.5v-2.5h2.5Z"/><path d="M441.866,275.555v-1.25h12.5v2.5h2.5v5h-12.5v2.5h10v2.5h-12.5v-2.5h-2.5v-7.5h2.5Zm10,2.5v-1.25h-7.5v2.5h7.5Z"/><path d="M489.366,270.555v-1.25h7.5v2.5h-5v2.5h5v2.5h-5v10h-5v-10h-5v-2.5h5v-2.5h2.5Z"/><path d="M501.866,275.555v-1.25h12.5v2.5h2.5v7.5h-2.5v2.5h-12.5v-2.5h-2.5v-7.5h2.5Zm10,5v-3.75h-7.5v7.5h7.5Z"/><path d="M521.866,280.555v-6.25h5v2.5h2.5v-2.5h7.5v2.5h-7.5v2.5h-2.5v7.5h-5Z"/><path d="M559.366,281.805v-7.5h15v2.5h2.5v5h-2.5v2.5h-10v5h-5Zm12.5-2.5v-2.5h-7.5v5h7.5Z"/><path d="M581.866,275.555v-1.25h12.5v2.5h2.5v5h-12.5v2.5h10v2.5h-12.5v-2.5h-2.5v-7.5h2.5Zm10,2.5v-1.25h-7.5v2.5h7.5Z"/><path d="M601.866,280.555v-6.25h5v2.5h2.5v-2.5h7.5v2.5h-7.5v2.5h-2.5v7.5h-5Z"/><path d="M621.866,275.555v-1.25h12.5v2.5h-10v2.5h10v2.5h2.5v2.5h-2.5v2.5h-15v-2.5h12.5v-2.5h-10v-2.5h-2.5v-2.5h2.5Z"/><path d="M641.866,275.555v-1.25h12.5v2.5h2.5v7.5h-2.5v2.5h-12.5v-2.5h-2.5v-7.5h2.5Zm10,5v-3.75h-7.5v7.5h7.5Z"/><path d="M659.366,280.555v-6.25h15v2.5h2.5v10h-5v-10h-7.5v10h-5Z"/><path d="M681.866,275.555v-1.25h12.5v2.5h2.5v10h-15v-2.5h-2.5v-2.5h2.5v-2.5h10v-2.5h-10Zm10,7.5v-1.25h-7.5v2.5h7.5Z"/><path d="M704.366,270.555v-1.25h7.5v15h5v2.5h-15v-2.5h5v-12.5h-2.5Z"/><path d="M741.866,275.555v-1.25h12.5v2.5h2.5v10h-15v-2.5h-2.5v-2.5h2.5v-2.5h10v-2.5h-10Zm10,7.5v-1.25h-7.5v2.5h7.5Z"/><path d="M759.366,280.555v-6.25h15v2.5h2.5v10h-5v-10h-7.5v10h-5Z"/><path d="M791.866,271.805v-2.5h5v17.5h-15v-2.5h-2.5v-7.5h2.5v-2.5h10Zm0,8.75v-3.75h-7.5v7.5h7.5Z"/><path d="M821.866,275.555v-1.25h15v2.5h-12.5v7.5h12.5v2.5h-15v-2.5h-2.5v-7.5h2.5Z"/><path d="M841.866,275.555v-1.25h12.5v2.5h2.5v7.5h-2.5v2.5h-12.5v-2.5h-2.5v-7.5h2.5Zm10,5v-3.75h-7.5v7.5h7.5Z"/><path d="M859.366,280.555v-6.25h15v2.5h2.5v10h-5v-10h-2.5v10h-5v-10h-2.5v10h-2.5Z"/><path d="M879.366,280.555v-6.25h15v2.5h2.5v10h-5v-10h-2.5v10h-5v-10h-2.5v10h-2.5Z"/><path d="M901.866,275.555v-1.25h12.5v2.5h2.5v5h-12.5v2.5h10v2.5h-12.5v-2.5h-2.5v-7.5h2.5Zm10,2.5v-1.25h-7.5v2.5h7.5Z"/><path d="M921.866,280.555v-6.25h5v2.5h2.5v-2.5h7.5v2.5h-7.5v2.5h-2.5v7.5h-5Z"/><path d="M941.866,275.555v-1.25h15v2.5h-12.5v7.5h12.5v2.5h-15v-2.5h-2.5v-7.5h2.5Z"/><path d="M964.366,275.555v-1.25h7.5v10h5v2.5h-15v-2.5h5v-7.5h-2.5Zm2.5-5v-1.25h5v2.5h-5Z"/><path d="M981.866,275.555v-1.25h12.5v2.5h2.5v10h-15v-2.5h-2.5v-2.5h2.5v-2.5h10v-2.5h-10Zm10,7.5v-1.25h-7.5v2.5h7.5Z"/><path d="M1004.366,270.555v-1.25h7.5v15h5v2.5h-15v-2.5h5v-12.5h-2.5Z"/><path d="M1039.366,279.305v-5h5v10h7.5v-10h5v12.5h-15v-2.5h-2.5Z"/><path d="M1061.866,275.555v-1.25h12.5v2.5h-10v2.5h10v2.5h2.5v2.5h-2.5v2.5h-15v-2.5h12.5v-2.5h-10v-2.5h-2.5v-2.5h2.5Z"/><path d="M1081.866,275.555v-1.25h12.5v2.5h2.5v5h-12.5v2.5h10v2.5h-12.5v-2.5h-2.5v-7.5h2.5Zm10,2.5v-1.25h-7.5v2.5h7.5Z"/><path d="M1101.866,270.555v-1.25h5v2.5h2.5v2.5h2.5v7.5h-2.5v2.5h-2.5v2.5h-5v-2.5h2.5v-2.5h2.5v-7.5h-2.5v-2.5h-2.5Z"/><path d="M1124.366,284.305v-2.5h5v5h-5Z"/><path d="M39.366,326.055v-8.75h5v2.5h2.5v2.5h2.5v-2.5h2.5v-2.5h5v17.5h-5v-7.5h-2.5v2.5h-2.5v-2.5h-2.5v7.5h-5Z"/><path d="M59.366,327.305v-5h5v10h7.5v-10h5v12.5h-15v-2.5h-2.5Z"/><path d="M81.866,323.555v-1.25h12.5v2.5h-10v2.5h10v2.5h2.5v2.5h-2.5v2.5h-15v-2.5h12.5v-2.5h-10v-2.5h-2.5v-2.5h2.5Z"/><path d="M104.366,323.555v-1.25h7.5v10h5v2.5h-15v-2.5h5v-7.5h-2.5Zm2.5-5v-1.25h5v2.5h-5Z"/><path d="M121.866,323.555v-1.25h15v2.5h-12.5v7.5h12.5v2.5h-15v-2.5h-2.5v-7.5h2.5Z"/><path d="M144.366,322.305v-2.5h5v5h-5Zm0,7.5v-2.5h5v5h-5Z"/><path d="M184.366,318.555v-1.25h12.5v2.5h-10v2.5h-2.5v7.5h2.5v2.5h5v-5h-2.5v-2.5h7.5v10h-12.5v-2.5h-2.5v-2.5h-2.5v-7.5h2.5v-2.5h2.5Z"/><path d="M201.866,323.555v-1.25h12.5v2.5h2.5v7.5h-2.5v2.5h-12.5v-2.5h-2.5v-7.5h2.5Zm10,5v-3.75h-7.5v7.5h7.5Z"/><path d="M231.866,319.805v-2.5h5v17.5h-15v-2.5h-2.5v-7.5h2.5v-2.5h10Zm0,8.75v-3.75h-7.5v7.5h7.5Z"/><path d="M264.366,323.555v-1.25h7.5v10h5v2.5h-15v-2.5h5v-7.5h-2.5Zm2.5-5v-1.25h5v2.5h-5Z"/><path d="M281.866,323.555v-1.25h12.5v2.5h-10v2.5h10v2.5h2.5v2.5h-2.5v2.5h-15v-2.5h12.5v-2.5h-10v-2.5h-2.5v-2.5h2.5Z"/><path d="M321.866,323.555v-1.25h15v12.5h-2.5v2.5h-12.5v-2.5h10v-2.5h-10v-2.5h-2.5v-5h2.5Zm10,3.75v-2.5h-7.5v5h7.5Z"/><path d="M341.866,323.555v-1.25h12.5v2.5h2.5v10h-15v-2.5h-2.5v-2.5h2.5v-2.5h10v-2.5h-10Zm10,7.5v-1.25h-7.5v2.5h7.5Z"/><path d="M359.366,326.055v-3.75h5v7.5h7.5v-7.5h5v12.5h-2.5v2.5h-12.5v-2.5h10v-2.5h-10v-2.5h-2.5Z"/><path d="M401.866,326.055v-1.25h15v2.5h-15Z"/><path d="M441.866,326.055v-8.75h5v15h10v2.5h-15Z"/><path d="M461.866,323.555v-1.25h12.5v2.5h2.5v10h-15v-2.5h-2.5v-2.5h2.5v-2.5h10v-2.5h-10Zm10,7.5v-1.25h-7.5v2.5h7.5Z"/><path d="M506.866,319.805v-2.5h5v5h5v2.5h-5v10h-5v-10h-5v-2.5h5Z"/><path d="M521.866,323.555v-1.25h12.5v2.5h2.5v5h-12.5v2.5h10v2.5h-12.5v-2.5h-2.5v-7.5h2.5Zm10,2.5v-1.25h-7.5v2.5h7.5Z"/><path d="M541.866,328.555v-6.25h5v2.5h2.5v-2.5h7.5v2.5h-7.5v2.5h-2.5v7.5h-5Z"/><path d="M561.866,328.555v-6.25h5v2.5h2.5v-2.5h7.5v2.5h-7.5v2.5h-2.5v7.5h-5Z"/><path d="M581.866,323.555v-1.25h12.5v2.5h2.5v5h-12.5v2.5h10v2.5h-12.5v-2.5h-2.5v-7.5h2.5Zm10,2.5v-1.25h-7.5v2.5h7.5Z"/><path d="M599.366,327.305v-5h5v10h7.5v-10h5v12.5h-15v-2.5h-2.5Z"/><path d="M621.866,328.555v-6.25h5v2.5h2.5v-2.5h7.5v2.5h-7.5v2.5h-2.5v7.5h-5Z"/><path d="M661.866,323.555v-1.25h12.5v2.5h2.5v5h-12.5v2.5h10v2.5h-12.5v-2.5h-2.5v-7.5h2.5Zm10,2.5v-1.25h-7.5v2.5h7.5Z"/><path d="M686.866,319.805v-2.5h5v5h5v2.5h-5v10h-5v-10h-5v-2.5h5Z"/><path d="M724.366,318.555v-1.25h7.5v15h5v2.5h-15v-2.5h5v-12.5h-2.5Z"/><path d="M744.366,321.055v-3.75h5v7.5h-5Z"/><path d="M759.366,326.055v-8.75h5v5h10v2.5h2.5v10h-5v-10h-7.5v10h-5Z"/><path d="M779.366,327.305v-5h5v10h7.5v-10h5v12.5h-15v-2.5h-2.5Z"/><path d="M799.366,328.555v-6.25h15v2.5h2.5v10h-5v-10h-2.5v10h-5v-10h-2.5v10h-2.5Z"/><path d="M824.366,323.555v-1.25h7.5v10h5v2.5h-15v-2.5h5v-7.5h-2.5Zm2.5-5v-1.25h5v2.5h-5Z"/><path d="M844.366,318.555v-1.25h7.5v15h5v2.5h-15v-2.5h5v-12.5h-2.5Z"/><path d="M864.366,323.555v-1.25h7.5v10h5v2.5h-15v-2.5h5v-7.5h-2.5Zm2.5-5v-1.25h5v2.5h-5Z"/><path d="M881.866,323.555v-1.25h12.5v2.5h2.5v10h-15v-2.5h-2.5v-2.5h2.5v-2.5h10v-2.5h-10Zm10,7.5v-1.25h-7.5v2.5h7.5Z"/><path d="M906.866,319.805v-2.5h5v5h5v2.5h-5v10h-5v-10h-5v-2.5h5Z"/><path d="M924.366,323.555v-1.25h7.5v10h5v2.5h-15v-2.5h5v-7.5h-2.5Zm2.5-5v-1.25h5v2.5h-5Z"/><path d="M941.866,323.555v-1.25h12.5v2.5h2.5v7.5h-2.5v2.5h-12.5v-2.5h-2.5v-7.5h2.5Zm10,5v-3.75h-7.5v7.5h7.5Z"/><path d="M959.366,328.555v-6.25h15v2.5h2.5v10h-5v-10h-7.5v10h-5Z"/><path d="M1011.866,319.805v-2.5h5v17.5h-15v-2.5h-2.5v-7.5h2.5v-2.5h10Zm0,8.75v-3.75h-7.5v7.5h7.5Z"/><path d="M1021.866,323.555v-1.25h12.5v2.5h2.5v5h-12.5v2.5h10v2.5h-12.5v-2.5h-2.5v-7.5h2.5Zm10,2.5v-1.25h-7.5v2.5h7.5Z"/><path d="M1041.866,323.555v-1.25h12.5v2.5h-10v2.5h10v2.5h2.5v2.5h-2.5v2.5h-15v-2.5h12.5v-2.5h-10v-2.5h-2.5v-2.5h2.5Z"/><path d="M1079.366,329.805v-7.5h15v2.5h2.5v5h-2.5v2.5h-10v5h-5Zm12.5-2.5v-2.5h-7.5v5h7.5Z"/><path d="M1101.866,328.555v-6.25h5v2.5h2.5v-2.5h7.5v2.5h-7.5v2.5h-2.5v7.5h-5Z"/><path d="M1124.366,323.555v-1.25h7.5v10h5v2.5h-15v-2.5h5v-7.5h-2.5Zm2.5-5v-1.25h5v2.5h-5Z"/><path d="M1139.366,328.555v-6.25h15v2.5h2.5v10h-5v-10h-7.5v10h-5Z"/><path d="M1161.866,323.555v-1.25h15v2.5h-12.5v7.5h12.5v2.5h-15v-2.5h-2.5v-7.5h2.5Z"/><path d="M1181.866,323.555v-1.25h12.5v2.5h2.5v5h-12.5v2.5h10v2.5h-12.5v-2.5h-2.5v-7.5h2.5Zm10,2.5v-1.25h-7.5v2.5h7.5Z"/><path d="M1201.866,323.555v-1.25h12.5v2.5h-10v2.5h10v2.5h2.5v2.5h-2.5v2.5h-15v-2.5h12.5v-2.5h-10v-2.5h-2.5v-2.5h2.5Z"/><path d="M1221.866,323.555v-1.25h12.5v2.5h-10v2.5h10v2.5h2.5v2.5h-2.5v2.5h-15v-2.5h12.5v-2.5h-10v-2.5h-2.5v-2.5h2.5Z"/><path d="M1241.866,323.555v-1.25h12.5v2.5h2.5v5h-12.5v2.5h10v2.5h-12.5v-2.5h-2.5v-7.5h2.5Zm10,2.5v-1.25h-7.5v2.5h7.5Z"/><path d="M1261.866,323.555v-1.25h12.5v2.5h-10v2.5h10v2.5h2.5v2.5h-2.5v2.5h-15v-2.5h12.5v-2.5h-10v-2.5h-2.5v-2.5h2.5Z"/><path d="M1284.366,332.305v-2.5h5v5h-5Z"/><path d="M19.366,398.055v-8.75h5v2.5h2.5v2.5h2.5v-2.5h2.5v-2.5h5v17.5h-5v-7.5h-2.5v2.5h-2.5v-2.5h-2.5v7.5h-5Z"/><path d="M39.366,399.305v-5h5v10h7.5v-10h5v12.5h-15v-2.5h-2.5Z"/><path d="M61.866,395.555v-1.25h12.5v2.5h-10v2.5h10v2.5h2.5v2.5h-2.5v2.5h-15v-2.5h12.5v-2.5h-10v-2.5h-2.5v-2.5h2.5Z"/><path d="M84.366,395.555v-1.25h7.5v10h5v2.5h-15v-2.5h5v-7.5h-2.5Zm2.5-5v-1.25h5v2.5h-5Z"/><path d="M101.866,395.555v-1.25h15v2.5h-12.5v7.5h12.5v2.5h-15v-2.5h-2.5v-7.5h2.5Z"/><path d="M141.866,395.555v-1.25h12.5v2.5h2.5v10h-15v-2.5h-2.5v-2.5h2.5v-2.5h10v-2.5h-10Zm10,7.5v-1.25h-7.5v2.5h7.5Z"/><path d="M159.366,400.555v-6.25h15v2.5h2.5v10h-5v-10h-7.5v10h-5Z"/><path d="M191.866,391.805v-2.5h5v17.5h-15v-2.5h-2.5v-7.5h2.5v-2.5h10Zm0,8.75v-3.75h-7.5v7.5h7.5Z"/><path d="M221.866,395.555v-1.25h12.5v2.5h-10v2.5h10v2.5h2.5v2.5h-2.5v2.5h-15v-2.5h12.5v-2.5h-10v-2.5h-2.5v-2.5h2.5Z"/><path d="M241.866,395.555v-1.25h12.5v2.5h2.5v7.5h-2.5v2.5h-12.5v-2.5h-2.5v-7.5h2.5Zm10,5v-3.75h-7.5v7.5h7.5Z"/><path d="M259.366,399.305v-5h5v10h7.5v-10h5v12.5h-15v-2.5h-2.5Z"/><path d="M279.366,400.555v-6.25h15v2.5h2.5v10h-5v-10h-7.5v10h-5Z"/><path d="M311.866,391.805v-2.5h5v17.5h-15v-2.5h-2.5v-7.5h2.5v-2.5h10Zm0,8.75v-3.75h-7.5v7.5h7.5Z"/><path d="M341.866,395.555v-1.25h12.5v2.5h2.5v5h-12.5v2.5h10v2.5h-12.5v-2.5h-2.5v-7.5h2.5Zm10,2.5v-1.25h-7.5v2.5h7.5Z"/><path d="M369.366,390.555v-1.25h7.5v2.5h-5v2.5h5v2.5h-5v10h-5v-10h-5v-2.5h5v-2.5h2.5Z"/><path d="M389.366,390.555v-1.25h7.5v2.5h-5v2.5h5v2.5h-5v10h-5v-10h-5v-2.5h5v-2.5h2.5Z"/><path d="M401.866,395.555v-1.25h12.5v2.5h2.5v5h-12.5v2.5h10v2.5h-12.5v-2.5h-2.5v-7.5h2.5Zm10,2.5v-1.25h-7.5v2.5h7.5Z"/><path d="M421.866,395.555v-1.25h15v2.5h-12.5v7.5h12.5v2.5h-15v-2.5h-2.5v-7.5h2.5Z"/><path d="M446.866,391.805v-2.5h5v5h5v2.5h-5v10h-5v-10h-5v-2.5h5Z"/><path d="M461.866,395.555v-1.25h12.5v2.5h-10v2.5h10v2.5h2.5v2.5h-2.5v2.5h-15v-2.5h12.5v-2.5h-10v-2.5h-2.5v-2.5h2.5Z"/><path d="M504.366,390.555v-1.25h7.5v15h5v2.5h-15v-2.5h5v-12.5h-2.5Z"/><path d="M524.366,395.555v-1.25h7.5v10h5v2.5h-15v-2.5h5v-7.5h-2.5Zm2.5-5v-1.25h5v2.5h-5Z"/><path d="M541.866,395.555v-1.25h15v2.5h-12.5v7.5h12.5v2.5h-15v-2.5h-2.5v-7.5h2.5Z"/><path d="M561.866,395.555v-1.25h12.5v2.5h2.5v5h-12.5v2.5h10v2.5h-12.5v-2.5h-2.5v-7.5h2.5Zm10,2.5v-1.25h-7.5v2.5h7.5Z"/><path d="M579.366,400.555v-6.25h15v2.5h2.5v10h-5v-10h-7.5v10h-5Z"/><path d="M601.866,395.555v-1.25h12.5v2.5h-10v2.5h10v2.5h2.5v2.5h-2.5v2.5h-15v-2.5h12.5v-2.5h-10v-2.5h-2.5v-2.5h2.5Z"/><path d="M621.866,395.555v-1.25h12.5v2.5h2.5v5h-12.5v2.5h10v2.5h-12.5v-2.5h-2.5v-7.5h2.5Zm10,2.5v-1.25h-7.5v2.5h7.5Z"/><path d="M651.866,391.805v-2.5h5v17.5h-15v-2.5h-2.5v-7.5h2.5v-2.5h10Zm0,8.75v-3.75h-7.5v7.5h7.5Z"/><path d="M679.366,399.305v-5h5v10h7.5v-10h5v12.5h-15v-2.5h-2.5Z"/><path d="M699.366,400.555v-6.25h15v2.5h2.5v10h-5v-10h-7.5v10h-5Z"/><path d="M731.866,391.805v-2.5h5v17.5h-15v-2.5h-2.5v-7.5h2.5v-2.5h10Zm0,8.75v-3.75h-7.5v7.5h7.5Z"/><path d="M741.866,395.555v-1.25h12.5v2.5h2.5v5h-12.5v2.5h10v2.5h-12.5v-2.5h-2.5v-7.5h2.5Zm10,2.5v-1.25h-7.5v2.5h7.5Z"/><path d="M761.866,400.555v-6.25h5v2.5h2.5v-2.5h7.5v2.5h-7.5v2.5h-2.5v7.5h-5Z"/><path d="M801.866,395.555v-1.25h12.5v2.5h2.5v10h-15v-2.5h-2.5v-2.5h2.5v-2.5h10v-2.5h-10Zm10,7.5v-1.25h-7.5v2.5h7.5Z"/><path d="M819.366,400.555v-6.25h15v2.5h2.5v10h-5v-10h-7.5v10h-5Z"/><path d="M864.366,390.555v-1.25h7.5v2.5h2.5v2.5h2.5v12.5h-5v-5h-7.5v5h-5v-12.5h2.5v-2.5h2.5Zm5,2.5v-1.25h-2.5v2.5h-2.5v5h7.5v-5h-2.5Z"/><path d="M886.866,391.805v-2.5h5v5h5v2.5h-5v10h-5v-10h-5v-2.5h5Z"/><path d="M906.866,391.805v-2.5h5v5h5v2.5h-5v10h-5v-10h-5v-2.5h5Z"/><path d="M921.866,400.555v-6.25h5v2.5h2.5v-2.5h7.5v2.5h-7.5v2.5h-2.5v7.5h-5Z"/><path d="M944.366,395.555v-1.25h7.5v10h5v2.5h-15v-2.5h5v-7.5h-2.5Zm2.5-5v-1.25h5v2.5h-5Z"/><path d="M959.366,396.805v-7.5h5v5h10v2.5h2.5v7.5h-2.5v2.5h-12.5v-2.5h-2.5Zm12.5,3.75v-3.75h-7.5v7.5h7.5Z"/><path d="M979.366,399.305v-5h5v10h7.5v-10h5v12.5h-15v-2.5h-2.5Z"/><path d="M1006.866,391.805v-2.5h5v5h5v2.5h-5v10h-5v-10h-5v-2.5h5Z"/><path d="M1024.366,395.555v-1.25h7.5v10h5v2.5h-15v-2.5h5v-7.5h-2.5Zm2.5-5v-1.25h5v2.5h-5Z"/><path d="M1041.866,395.555v-1.25h12.5v2.5h2.5v7.5h-2.5v2.5h-12.5v-2.5h-2.5v-7.5h2.5Zm10,5v-3.75h-7.5v7.5h7.5Z"/><path d="M1059.366,400.555v-6.25h15v2.5h2.5v10h-5v-10h-7.5v10h-5Z"/><path d="M1081.866,398.055v-1.25h15v2.5h-15Z"/><path d="M1101.866,390.555v-1.25h10v2.5h2.5v2.5h-5v-2.5h-5v5h10v2.5h2.5v5h-2.5v2.5h-12.5v-2.5h-2.5v-2.5h5v2.5h7.5v-5h-10v-2.5h-2.5v-5h2.5Z"/><path d="M1119.366,398.055v-8.75h5v5h10v2.5h2.5v10h-5v-10h-7.5v10h-5Z"/><path d="M1141.866,395.555v-1.25h12.5v2.5h2.5v10h-15v-2.5h-2.5v-2.5h2.5v-2.5h10v-2.5h-10Zm10,7.5v-1.25h-7.5v2.5h7.5Z"/><path d="M1161.866,400.555v-6.25h5v2.5h2.5v-2.5h7.5v2.5h-7.5v2.5h-2.5v7.5h-5Z"/><path d="M1181.866,395.555v-1.25h12.5v2.5h2.5v5h-12.5v2.5h10v2.5h-12.5v-2.5h-2.5v-7.5h2.5Zm10,2.5v-1.25h-7.5v2.5h7.5Z"/><path d="M1204.366,390.555v-1.25h7.5v2.5h2.5v2.5h2.5v12.5h-5v-5h-7.5v5h-5v-12.5h2.5v-2.5h2.5Zm5,2.5v-1.25h-2.5v2.5h-2.5v5h7.5v-5h-2.5Z"/><path d="M1224.366,390.555v-1.25h7.5v15h5v2.5h-15v-2.5h5v-12.5h-2.5Z"/><path d="M1244.366,395.555v-1.25h7.5v10h5v2.5h-15v-2.5h5v-7.5h-2.5Zm2.5-5v-1.25h5v2.5h-5Z"/><path d="M1259.366,398.055v-8.75h5v7.5h5v-2.5h7.5v2.5h-2.5v2.5h-2.5v2.5h2.5v2.5h2.5v2.5h-7.5v-2.5h-2.5v-2.5h-2.5v5h-5Z"/><path d="M1281.866,395.555v-1.25h12.5v2.5h2.5v5h-12.5v2.5h10v2.5h-12.5v-2.5h-2.5v-7.5h2.5Zm10,2.5v-1.25h-7.5v2.5h7.5Z"/><path d="M331.866,422.055v-8.75h5v15h10v2.5h-15Z"/><path d="M354.366,419.555v-1.25h7.5v10h5v2.5h-15v-2.5h5v-7.5h-2.5Zm2.5-5v-1.25h5v2.5h-5Z"/><path d="M371.866,419.555v-1.25h15v2.5h-12.5v7.5h12.5v2.5h-15v-2.5h-2.5v-7.5h2.5Z"/><path d="M391.866,419.555v-1.25h12.5v2.5h2.5v5h-12.5v2.5h10v2.5h-12.5v-2.5h-2.5v-7.5h2.5Zm10,2.5v-1.25h-7.5v2.5h7.5Z"/><path d="M409.366,424.555v-6.25h15v2.5h2.5v10h-5v-10h-7.5v10h-5Z"/><path d="M431.866,419.555v-1.25h12.5v2.5h-10v2.5h10v2.5h2.5v2.5h-2.5v2.5h-15v-2.5h12.5v-2.5h-10v-2.5h-2.5v-2.5h2.5Z"/><path d="M451.866,419.555v-1.25h12.5v2.5h2.5v5h-12.5v2.5h10v2.5h-12.5v-2.5h-2.5v-7.5h2.5Zm10,2.5v-1.25h-7.5v2.5h7.5Z"/><path d="M499.366,414.555v-1.25h5v2.5h-2.5v2.5h-2.5v7.5h2.5v2.5h2.5v2.5h-5v-2.5h-2.5v-2.5h-2.5v-7.5h2.5v-2.5h2.5Z"/><path d="M511.866,419.555v-1.25h12.5v2.5h-10v2.5h10v2.5h2.5v2.5h-2.5v2.5h-15v-2.5h12.5v-2.5h-10v-2.5h-2.5v-2.5h2.5Z"/><path d="M531.866,419.555v-1.25h12.5v2.5h2.5v5h-12.5v2.5h10v2.5h-12.5v-2.5h-2.5v-7.5h2.5Zm10,2.5v-1.25h-7.5v2.5h7.5Z"/><path d="M551.866,419.555v-1.25h12.5v2.5h2.5v5h-12.5v2.5h10v2.5h-12.5v-2.5h-2.5v-7.5h2.5Zm10,2.5v-1.25h-7.5v2.5h7.5Z"/><path d="M591.866,419.555v-1.25h15v2.5h-12.5v7.5h12.5v2.5h-15v-2.5h-2.5v-7.5h2.5Z"/><path d="M611.866,424.555v-6.25h5v2.5h2.5v-2.5h7.5v2.5h-7.5v2.5h-2.5v7.5h-5Z"/><path d="M631.866,419.555v-1.25h12.5v2.5h2.5v5h-12.5v2.5h10v2.5h-12.5v-2.5h-2.5v-7.5h2.5Zm10,2.5v-1.25h-7.5v2.5h7.5Z"/><path d="M651.866,419.555v-1.25h12.5v2.5h2.5v10h-15v-2.5h-2.5v-2.5h2.5v-2.5h10v-2.5h-10Zm10,7.5v-1.25h-7.5v2.5h7.5Z"/><path d="M676.866,415.805v-2.5h5v5h5v2.5h-5v10h-5v-10h-5v-2.5h5Z"/><path d="M694.366,419.555v-1.25h7.5v10h5v2.5h-15v-2.5h5v-7.5h-2.5Zm2.5-5v-1.25h5v2.5h-5Z"/><path d="M711.866,422.055v-3.75h5v7.5h5v-7.5h5v7.5h-2.5v2.5h-2.5v2.5h-5v-2.5h-2.5v-2.5h-2.5Z"/><path d="M731.866,419.555v-1.25h12.5v2.5h2.5v5h-12.5v2.5h10v2.5h-12.5v-2.5h-2.5v-7.5h2.5Zm10,2.5v-1.25h-7.5v2.5h7.5Z"/><path d="M751.866,419.555v-1.25h15v2.5h-12.5v7.5h12.5v2.5h-15v-2.5h-2.5v-7.5h2.5Z"/><path d="M771.866,419.555v-1.25h12.5v2.5h2.5v7.5h-2.5v2.5h-12.5v-2.5h-2.5v-7.5h2.5Zm10,5v-3.75h-7.5v7.5h7.5Z"/><path d="M789.366,424.555v-6.25h15v2.5h2.5v10h-5v-10h-2.5v10h-5v-10h-2.5v10h-2.5Z"/><path d="M809.366,424.555v-6.25h15v2.5h2.5v10h-5v-10h-2.5v10h-5v-10h-2.5v10h-2.5Z"/><path d="M831.866,419.555v-1.25h12.5v2.5h2.5v7.5h-2.5v2.5h-12.5v-2.5h-2.5v-7.5h2.5Zm10,5v-3.75h-7.5v7.5h7.5Z"/><path d="M849.366,424.555v-6.25h15v2.5h2.5v10h-5v-10h-7.5v10h-5Z"/><path d="M871.866,419.555v-1.25h12.5v2.5h-10v2.5h10v2.5h2.5v2.5h-2.5v2.5h-15v-2.5h12.5v-2.5h-10v-2.5h-2.5v-2.5h2.5Z"/><path d="M894.366,428.305v-2.5h5v5h-5Z"/><path d="M911.866,419.555v-1.25h12.5v2.5h2.5v7.5h-2.5v2.5h-12.5v-2.5h-2.5v-7.5h2.5Zm10,5v-3.75h-7.5v7.5h7.5Z"/><path d="M931.866,424.555v-6.25h5v2.5h2.5v-2.5h7.5v2.5h-7.5v2.5h-2.5v7.5h-5Z"/><path d="M951.866,419.555v-1.25h15v12.5h-2.5v2.5h-12.5v-2.5h10v-2.5h-10v-2.5h-2.5v-5h2.5Zm10,3.75v-2.5h-7.5v5h7.5Z"/><path d="M971.866,414.555v-1.25h5v2.5h2.5v2.5h2.5v7.5h-2.5v2.5h-2.5v2.5h-5v-2.5h2.5v-2.5h2.5v-7.5h-2.5v-2.5h-2.5Z"/><path d="M994.366,428.305v-2.5h5v5h-5Z"/><path d="M119.366,470.055v-8.75h5v2.5h2.5v2.5h2.5v-2.5h2.5v-2.5h5v17.5h-5v-7.5h-2.5v2.5h-2.5v-2.5h-2.5v7.5h-5Z"/><path d="M139.366,471.305v-5h5v10h7.5v-10h5v12.5h-15v-2.5h-2.5Z"/><path d="M161.866,467.555v-1.25h12.5v2.5h-10v2.5h10v2.5h2.5v2.5h-2.5v2.5h-15v-2.5h12.5v-2.5h-10v-2.5h-2.5v-2.5h2.5Z"/><path d="M184.366,467.555v-1.25h7.5v10h5v2.5h-15v-2.5h5v-7.5h-2.5Zm2.5-5v-1.25h5v2.5h-5Z"/><path d="M201.866,467.555v-1.25h15v2.5h-12.5v7.5h12.5v2.5h-15v-2.5h-2.5v-7.5h2.5Z"/><path d="M249.366,462.555v-1.25h7.5v2.5h-5v2.5h5v2.5h-5v10h-5v-10h-5v-2.5h5v-2.5h2.5Z"/><path d="M261.866,472.555v-6.25h5v2.5h2.5v-2.5h7.5v2.5h-7.5v2.5h-2.5v7.5h-5Z"/><path d="M281.866,467.555v-1.25h12.5v2.5h2.5v7.5h-2.5v2.5h-12.5v-2.5h-2.5v-7.5h2.5Zm10,5v-3.75h-7.5v7.5h7.5Z"/><path d="M299.366,472.555v-6.25h15v2.5h2.5v10h-5v-10h-2.5v10h-5v-10h-2.5v10h-2.5Z"/><path d="M339.366,470.055v-8.75h17.5v2.5h-12.5v5h10v2.5h-10v7.5h-5Z"/><path d="M361.866,472.555v-6.25h5v2.5h2.5v-2.5h7.5v2.5h-7.5v2.5h-2.5v7.5h-5Z"/><path d="M381.866,467.555v-1.25h12.5v2.5h2.5v5h-12.5v2.5h10v2.5h-12.5v-2.5h-2.5v-7.5h2.5Zm10,2.5v-1.25h-7.5v2.5h7.5Z"/><path d="M401.866,467.555v-1.25h12.5v2.5h2.5v5h-12.5v2.5h10v2.5h-12.5v-2.5h-2.5v-7.5h2.5Zm10,2.5v-1.25h-7.5v2.5h7.5Z"/><path d="M439.366,472.555v-6.25h15v2.5h2.5v10h-5v-10h-2.5v10h-5v-10h-2.5v10h-2.5Z"/><path d="M459.366,471.305v-5h5v10h7.5v-10h5v12.5h-15v-2.5h-2.5Z"/><path d="M481.866,467.555v-1.25h12.5v2.5h-10v2.5h10v2.5h2.5v2.5h-2.5v2.5h-15v-2.5h12.5v-2.5h-10v-2.5h-2.5v-2.5h2.5Z"/><path d="M504.366,467.555v-1.25h7.5v10h5v2.5h-15v-2.5h5v-7.5h-2.5Zm2.5-5v-1.25h5v2.5h-5Z"/><path d="M521.866,467.555v-1.25h15v2.5h-12.5v7.5h12.5v2.5h-15v-2.5h-2.5v-7.5h2.5Z"/><path d="M564.366,462.555v-1.25h7.5v2.5h2.5v2.5h2.5v12.5h-5v-5h-7.5v5h-5v-12.5h2.5v-2.5h2.5Zm5,2.5v-1.25h-2.5v2.5h-2.5v5h7.5v-5h-2.5Z"/><path d="M581.866,472.555v-6.25h5v2.5h2.5v-2.5h7.5v2.5h-7.5v2.5h-2.5v7.5h-5Z"/><path d="M601.866,467.555v-1.25h15v2.5h-12.5v7.5h12.5v2.5h-15v-2.5h-2.5v-7.5h2.5Z"/><path d="M619.366,470.055v-8.75h5v5h10v2.5h2.5v10h-5v-10h-7.5v10h-5Z"/><path d="M644.366,467.555v-1.25h7.5v10h5v2.5h-15v-2.5h5v-7.5h-2.5Zm2.5-5v-1.25h5v2.5h-5Z"/><path d="M661.866,470.055v-3.75h5v7.5h5v-7.5h5v7.5h-2.5v2.5h-2.5v2.5h-5v-2.5h-2.5v-2.5h-2.5Z"/><path d="M681.866,467.555v-1.25h12.5v2.5h2.5v5h-12.5v2.5h10v2.5h-12.5v-2.5h-2.5v-7.5h2.5Zm10,2.5v-1.25h-7.5v2.5h7.5Z"/><path d="M704.366,476.305v-2.5h5v5h-2.5v2.5h-5v-2.5h2.5Z"/><path d="M741.866,462.555v-1.25h10v2.5h2.5v2.5h-5v-2.5h-5v5h10v2.5h2.5v5h-2.5v2.5h-12.5v-2.5h-2.5v-2.5h5v2.5h7.5v-5h-10v-2.5h-2.5v-5h2.5Z"/><path d="M759.366,470.055v-8.75h17.5v2.5h-12.5v5h10v2.5h-10v7.5h-5Z"/><path d="M779.366,463.805v-2.5h5v2.5h2.5v2.5h2.5v-2.5h2.5v-2.5h5v5h-2.5v2.5h-2.5v2.5h2.5v2.5h2.5v5h-5v-2.5h-2.5v-2.5h-2.5v2.5h-2.5v2.5h-5v-5h2.5v-2.5h2.5v-2.5h-2.5v-2.5h-2.5Z"/><path d="M829.366,462.555v-1.25h7.5v2.5h-5v2.5h5v2.5h-5v10h-5v-10h-5v-2.5h5v-2.5h2.5Z"/><path d="M841.866,472.555v-6.25h5v2.5h2.5v-2.5h7.5v2.5h-7.5v2.5h-2.5v7.5h-5Z"/><path d="M861.866,467.555v-1.25h12.5v2.5h2.5v7.5h-2.5v2.5h-12.5v-2.5h-2.5v-7.5h2.5Zm10,5v-3.75h-7.5v7.5h7.5Z"/><path d="M879.366,472.555v-6.25h15v2.5h2.5v10h-5v-10h-2.5v10h-5v-10h-2.5v10h-2.5Z"/><path d="M921.866,467.555v-1.25h12.5v2.5h-10v2.5h10v2.5h2.5v2.5h-2.5v2.5h-15v-2.5h12.5v-2.5h-10v-2.5h-2.5v-2.5h2.5Z"/><path d="M941.866,467.555v-1.25h12.5v2.5h2.5v7.5h-2.5v2.5h-12.5v-2.5h-2.5v-7.5h2.5Zm10,5v-3.75h-7.5v7.5h7.5Z"/><path d="M959.366,471.305v-5h5v10h7.5v-10h5v12.5h-15v-2.5h-2.5Z"/><path d="M979.366,472.555v-6.25h15v2.5h2.5v10h-5v-10h-7.5v10h-5Z"/><path d="M1011.866,463.805v-2.5h5v17.5h-15v-2.5h-2.5v-7.5h2.5v-2.5h10Zm0,8.75v-3.75h-7.5v7.5h7.5Z"/><path d="M1019.366,468.805v-7.5h5v5h10v2.5h2.5v7.5h-2.5v2.5h-12.5v-2.5h-2.5Zm12.5,3.75v-3.75h-7.5v7.5h7.5Z"/><path d="M1044.366,467.555v-1.25h7.5v10h5v2.5h-15v-2.5h5v-7.5h-2.5Zm2.5-5v-1.25h5v2.5h-5Z"/><path d="M1059.366,468.805v-7.5h5v5h10v2.5h2.5v7.5h-2.5v2.5h-12.5v-2.5h-2.5Zm12.5,3.75v-3.75h-7.5v7.5h7.5Z"/><path d="M1084.366,462.555v-1.25h7.5v15h5v2.5h-15v-2.5h5v-12.5h-2.5Z"/><path d="M1101.866,467.555v-1.25h12.5v2.5h2.5v5h-12.5v2.5h10v2.5h-12.5v-2.5h-2.5v-7.5h2.5Zm10,2.5v-1.25h-7.5v2.5h7.5Z"/><path d="M1124.366,476.305v-2.5h5v5h-5Z"/><path d="M1141.866,467.555v-1.25h15v2.5h-12.5v7.5h12.5v2.5h-15v-2.5h-2.5v-7.5h2.5Z"/><path d="M1161.866,467.555v-1.25h12.5v2.5h2.5v7.5h-2.5v2.5h-12.5v-2.5h-2.5v-7.5h2.5Zm10,5v-3.75h-7.5v7.5h7.5Z"/><path d="M1179.366,472.555v-6.25h15v2.5h2.5v10h-5v-10h-2.5v10h-5v-10h-2.5v10h-2.5Z"/><path d="M1204.366,476.305v-2.5h5v5h-5Z"/></svg>