<svg xmlns="http://www.w3.org/2000/svg" viewBox="0 0 1608 678"><path d="M271.366,40.805v-1.5h12v3h3v3h-6v-3h-6v3h-3v9h3v3h6v-3h6v3h-3v3h-12v-3h-3v-3h-3v-9h3v-3h3Z"/><path d="M292.366,46.805v-1.5h15v3h3v9h-3v3h-15v-3h-3v-9h3Zm12,6v-4.5h-9v9h9Z"/><path d="M313.366,52.805v-7.5h18v3h3v12h-6v-12h-9v12h-6Z"/><path d="M346.366,42.305v-3h6v6h6v3h-6v12h-6v-12h-6v-3h6Z"/><path d="M364.366,52.805v-7.5h6v3h3v-3h9v3h-9v3h-3v9h-6Z"/><path d="M388.366,46.805v-1.5h15v3h3v9h-3v3h-15v-3h-3v-9h3Zm12,6v-4.5h-9v9h9Z"/><path d="M415.366,40.805v-1.5h9v18h6v3h-18v-3h6v-15h-3Z"/><path d="M460.366,46.805v-1.5h15v3h3v6h-15v3h12v3h-15v-3h-3v-9h3Zm12,3v-1.5h-9v3h9Z"/><path d="M484.366,46.805v-1.5h15v3h3v12h-18v-3h-3v-3h3v-3h12v-3h-12Zm12,9v-1.5h-9v3h9Z"/><path d="M508.366,46.805v-1.5h18v3h-15v9h15v3h-18v-3h-3v-9h3Z"/><path d="M529.366,49.805v-10.5h6v6h12v3h3v12h-6v-12h-9v12h-6Z"/><path d="M577.366,52.805v-7.5h18v3h3v12h-6v-12h-9v12h-6Z"/><path d="M607.366,46.805v-1.5h9v12h6v3h-18v-3h6v-9h-3Zm3-6v-1.5h6v3h-6Z"/><path d="M625.366,52.805v-7.5h18v3h3v12h-6v-12h-9v12h-6Z"/><path d="M658.366,46.805v-1.5h9v15h-3v3h-12v-3h9v-12h-3Zm3-6v-1.5h6v3h-6Z"/><path d="M676.366,46.805v-1.5h15v3h3v12h-18v-3h-3v-3h3v-3h12v-3h-12Zm12,9v-1.5h-9v3h9Z"/><path d="M721.366,51.305v-6h3v12h3v-12h6v12h3v-12h6v15h-18v-3h-3Z"/><path d="M751.366,46.805v-1.5h9v12h6v3h-18v-3h6v-9h-3Zm3-6v-1.5h6v3h-6Z"/><path d="M778.366,42.305v-3h6v6h6v3h-6v12h-6v-12h-6v-3h6Z"/><path d="M793.366,49.805v-10.5h6v6h12v3h3v12h-6v-12h-9v12h-6Z"/><path d="M850.366,42.305v-3h6v6h6v3h-6v12h-6v-12h-6v-3h6Z"/><path d="M865.366,49.805v-10.5h6v6h12v3h3v12h-6v-12h-9v12h-6Z"/><path d="M892.366,46.805v-1.5h15v3h3v6h-15v3h12v3h-15v-3h-3v-9h3Zm12,3v-1.5h-9v3h9Z"/><path d="M937.366,49.805v-10.5h6v9h6v-3h9v3h-3v3h-3v3h3v3h3v3h-9v-3h-3v-3h-3v6h-6Z"/><path d="M964.366,46.805v-1.5h15v3h3v6h-15v3h12v3h-15v-3h-3v-9h3Zm12,3v-1.5h-9v3h9Z"/><path d="M985.366,49.805v-4.5h6v9h9v-9h6v15h-3v3h-15v-3h12v-3h-12v-3h-3Z"/><path d="M1012.366,46.805v-1.5h15v3h-12v3h12v3h3v3h-3v3h-18v-3h15v-3h-12v-3h-3v-3h3Z"/><path d="M1060.366,46.805v-1.5h15v3h-12v3h12v3h3v3h-3v3h-18v-3h15v-3h-12v-3h-3v-3h3Z"/><path d="M1081.366,49.805v-10.5h6v6h12v3h3v12h-6v-12h-9v12h-6Z"/><path d="M1108.366,46.805v-1.5h15v3h3v9h-3v3h-15v-3h-3v-9h3Zm12,6v-4.5h-9v9h9Z"/><path d="M1129.366,51.305v-6h3v12h3v-12h6v12h3v-12h6v15h-18v-3h-3Z"/><path d="M1153.366,52.805v-7.5h18v3h3v12h-6v-12h-9v12h-6Z"/><path d="M1201.366,48.305v-9h6v6h12v3h3v9h-3v3h-15v-3h-3Zm15,4.5v-4.5h-9v9h9Z"/><path d="M1228.366,46.805v-1.5h15v3h3v6h-15v3h12v3h-15v-3h-3v-9h3Zm12,3v-1.5h-9v3h9Z"/><path d="M1255.366,40.805v-1.5h9v18h6v3h-18v-3h6v-15h-3Z"/><path d="M1276.366,46.805v-1.5h15v3h3v9h-3v3h-15v-3h-3v-9h3Zm12,6v-4.5h-9v9h9Z"/><path d="M1297.366,51.305v-6h3v12h3v-12h6v12h3v-12h6v15h-18v-3h-3Z"/><path d="M1327.366,57.305v-3h6v6h-6Z"/><path d="M462.366,164.555v-1.25h7.5v2.5h2.5v2.5h2.5v12.5h-5v-5h-7.5v5h-5v-12.5h2.5v-2.5h2.5Zm5,2.5v-1.25h-2.5v2.5h-2.5v5h7.5v-5h-2.5Z"/><path d="M482.366,164.555v-1.25h7.5v15h5v2.5h-15v-2.5h5v-12.5h-2.5Z"/><path d="M502.366,169.555v-1.25h7.5v10h5v2.5h-15v-2.5h5v-7.5h-2.5Zm2.5-5v-1.25h5v2.5h-5Z"/><path d="M519.866,169.555v-1.25h15v2.5h-12.5v7.5h12.5v2.5h-15v-2.5h-2.5v-7.5h2.5Z"/><path d="M539.866,169.555v-1.25h12.5v2.5h2.5v5h-12.5v2.5h10v2.5h-12.5v-2.5h-2.5v-7.5h2.5Zm10,2.5v-1.25h-7.5v2.5h7.5Z"/><path d="M562.366,168.305v-2.5h5v5h-5Zm0,7.5v-2.5h5v5h-5Z"/><path d="M437.366,202.055v-8.75h5v2.5h2.5v2.5h2.5v-2.5h2.5v-2.5h5v17.5h-5v-7.5h-2.5v2.5h-2.5v-2.5h-2.5v7.5h-5Z"/><path d="M459.866,199.555v-1.25h12.5v2.5h2.5v10h-15v-2.5h-2.5v-2.5h2.5v-2.5h10v-2.5h-10Zm10,7.5v-1.25h-7.5v2.5h7.5Z"/><path d="M482.366,194.555v-1.25h7.5v15h5v2.5h-15v-2.5h5v-12.5h-2.5Z"/><path d="M502.366,199.555v-1.25h7.5v10h5v2.5h-15v-2.5h5v-7.5h-2.5Zm2.5-5v-1.25h5v2.5h-5Z"/><path d="M519.866,199.555v-1.25h15v2.5h-12.5v7.5h12.5v2.5h-15v-2.5h-2.5v-7.5h2.5Z"/><path d="M539.866,199.555v-1.25h12.5v2.5h2.5v5h-12.5v2.5h10v2.5h-12.5v-2.5h-2.5v-7.5h2.5Zm10,2.5v-1.25h-7.5v2.5h7.5Z"/><path d="M562.366,198.305v-2.5h5v5h-5Zm0,7.5v-2.5h5v5h-5Z"/><path d="M437.366,232.055v-8.75h12.5v2.5h2.5v2.5h2.5v7.5h-2.5v2.5h-2.5v2.5h-12.5Zm10-5v-1.25h-5v12.5h5v-2.5h2.5v-7.5h-2.5Z"/><path d="M459.866,229.555v-1.25h12.5v2.5h2.5v10h-15v-2.5h-2.5v-2.5h2.5v-2.5h10v-2.5h-10Zm10,7.5v-1.25h-7.5v2.5h7.5Z"/><path d="M482.366,224.555v-1.25h7.5v15h5v2.5h-15v-2.5h5v-12.5h-2.5Z"/><path d="M502.366,229.555v-1.25h7.5v10h5v2.5h-15v-2.5h5v-7.5h-2.5Zm2.5-5v-1.25h5v2.5h-5Z"/><path d="M519.866,229.555v-1.25h15v2.5h-12.5v7.5h12.5v2.5h-15v-2.5h-2.5v-7.5h2.5Z"/><path d="M539.866,229.555v-1.25h12.5v2.5h2.5v5h-12.5v2.5h10v2.5h-12.5v-2.5h-2.5v-7.5h2.5Zm10,2.5v-1.25h-7.5v2.5h7.5Z"/><path d="M562.366,228.305v-2.5h5v5h-5Zm0,7.5v-2.5h5v5h-5Z"/><path d="M437.366,262.055v-8.75h15v2.5h2.5v7.5h-5v2.5h2.5v2.5h2.5v2.5h-7.5v-2.5h-2.5v-2.5h-2.5v5h-5Zm12.5-3.75v-2.5h-7.5v7.5h5v-2.5h2.5Z"/><path d="M459.866,259.555v-1.25h12.5v2.5h2.5v10h-15v-2.5h-2.5v-2.5h2.5v-2.5h10v-2.5h-10Zm10,7.5v-1.25h-7.5v2.5h7.5Z"/><path d="M482.366,254.555v-1.25h7.5v15h5v2.5h-15v-2.5h5v-12.5h-2.5Z"/><path d="M502.366,259.555v-1.25h7.5v10h5v2.5h-15v-2.5h5v-7.5h-2.5Zm2.5-5v-1.25h5v2.5h-5Z"/><path d="M519.866,259.555v-1.25h15v2.5h-12.5v7.5h12.5v2.5h-15v-2.5h-2.5v-7.5h2.5Z"/><path d="M539.866,259.555v-1.25h12.5v2.5h2.5v5h-12.5v2.5h10v2.5h-12.5v-2.5h-2.5v-7.5h2.5Zm10,2.5v-1.25h-7.5v2.5h7.5Z"/><path d="M562.366,258.305v-2.5h5v5h-5Zm0,7.5v-2.5h5v5h-5Z"/><path d="M197.366,322.055v-8.75h15v2.5h2.5v7.5h-2.5v2.5h-10v5h-5Zm12.5-2.5v-3.75h-7.5v7.5h7.5Z"/><path d="M219.866,324.555v-6.25h5v2.5h2.5v-2.5h7.5v2.5h-7.5v2.5h-2.5v7.5h-5Z"/><path d="M239.866,319.555v-1.25h12.5v2.5h2.5v5h-12.5v2.5h10v2.5h-12.5v-2.5h-2.5v-7.5h2.5Zm10,2.5v-1.25h-7.5v2.5h7.5Z"/><path d="M259.866,319.555v-1.25h12.5v2.5h-10v2.5h10v2.5h2.5v2.5h-2.5v2.5h-15v-2.5h12.5v-2.5h-10v-2.5h-2.5v-2.5h2.5Z"/><path d="M279.866,319.555v-1.25h12.5v2.5h-10v2.5h10v2.5h2.5v2.5h-2.5v2.5h-15v-2.5h12.5v-2.5h-10v-2.5h-2.5v-2.5h2.5Z"/><path d="M319.866,319.555v-1.25h12.5v2.5h2.5v10h-15v-2.5h-2.5v-2.5h2.5v-2.5h10v-2.5h-10Zm10,7.5v-1.25h-7.5v2.5h7.5Z"/><path d="M337.366,324.555v-6.25h15v2.5h2.5v10h-5v-10h-7.5v10h-5Z"/><path d="M357.366,322.055v-3.75h5v7.5h7.5v-7.5h5v12.5h-2.5v2.5h-12.5v-2.5h10v-2.5h-10v-2.5h-2.5Z"/><path d="M399.866,319.555v-1.25h12.5v2.5h2.5v7.5h-2.5v2.5h-12.5v-2.5h-2.5v-7.5h2.5Zm10,5v-3.75h-7.5v7.5h7.5Z"/><path d="M427.366,314.555v-1.25h7.5v2.5h-5v2.5h5v2.5h-5v10h-5v-10h-5v-2.5h5v-2.5h2.5Z"/><path d="M464.866,315.805v-2.5h5v5h5v2.5h-5v10h-5v-10h-5v-2.5h5Z"/><path d="M477.366,322.055v-8.75h5v5h10v2.5h2.5v10h-5v-10h-7.5v10h-5Z"/><path d="M499.866,319.555v-1.25h12.5v2.5h2.5v5h-12.5v2.5h10v2.5h-12.5v-2.5h-2.5v-7.5h2.5Zm10,2.5v-1.25h-7.5v2.5h7.5Z"/><path d="M539.866,319.555v-1.25h15v2.5h-12.5v7.5h12.5v2.5h-15v-2.5h-2.5v-7.5h2.5Z"/><path d="M559.866,319.555v-1.25h12.5v2.5h2.5v7.5h-2.5v2.5h-12.5v-2.5h-2.5v-7.5h2.5Zm10,5v-3.75h-7.5v7.5h7.5Z"/><path d="M579.866,324.555v-6.25h5v2.5h2.5v-2.5h7.5v2.5h-7.5v2.5h-2.5v7.5h-5Z"/><path d="M599.866,324.555v-6.25h5v2.5h2.5v-2.5h7.5v2.5h-7.5v2.5h-2.5v7.5h-5Z"/><path d="M619.866,319.555v-1.25h12.5v2.5h2.5v5h-12.5v2.5h10v2.5h-12.5v-2.5h-2.5v-7.5h2.5Zm10,2.5v-1.25h-7.5v2.5h7.5Z"/><path d="M639.866,319.555v-1.25h12.5v2.5h-10v2.5h10v2.5h2.5v2.5h-2.5v2.5h-15v-2.5h12.5v-2.5h-10v-2.5h-2.5v-2.5h2.5Z"/><path d="M657.366,325.805v-7.5h15v2.5h2.5v5h-2.5v2.5h-10v5h-5Zm12.5-2.5v-2.5h-7.5v5h7.5Z"/><path d="M679.866,319.555v-1.25h12.5v2.5h2.5v7.5h-2.5v2.5h-12.5v-2.5h-2.5v-7.5h2.5Zm10,5v-3.75h-7.5v7.5h7.5Z"/><path d="M697.366,324.555v-6.25h15v2.5h2.5v10h-5v-10h-7.5v10h-5Z"/><path d="M729.866,315.805v-2.5h5v17.5h-15v-2.5h-2.5v-7.5h2.5v-2.5h10Zm0,8.75v-3.75h-7.5v7.5h7.5Z"/><path d="M742.366,319.555v-1.25h7.5v10h5v2.5h-15v-2.5h5v-7.5h-2.5Zm2.5-5v-1.25h5v2.5h-5Z"/><path d="M757.366,324.555v-6.25h15v2.5h2.5v10h-5v-10h-7.5v10h-5Z"/><path d="M779.866,319.555v-1.25h15v12.5h-2.5v2.5h-12.5v-2.5h10v-2.5h-10v-2.5h-2.5v-5h2.5Zm10,3.75v-2.5h-7.5v5h7.5Z"/><path d="M817.366,322.055v-8.75h5v7.5h5v-2.5h7.5v2.5h-2.5v2.5h-2.5v2.5h2.5v2.5h2.5v2.5h-7.5v-2.5h-2.5v-2.5h-2.5v5h-5Z"/><path d="M839.866,319.555v-1.25h12.5v2.5h2.5v5h-12.5v2.5h10v2.5h-12.5v-2.5h-2.5v-7.5h2.5Zm10,2.5v-1.25h-7.5v2.5h7.5Z"/><path d="M857.366,322.055v-3.75h5v7.5h7.5v-7.5h5v12.5h-2.5v2.5h-12.5v-2.5h10v-2.5h-10v-2.5h-2.5Z"/><path d="M879.866,319.555v-1.25h12.5v2.5h-10v2.5h10v2.5h2.5v2.5h-2.5v2.5h-15v-2.5h12.5v-2.5h-10v-2.5h-2.5v-2.5h2.5Z"/><path d="M924.866,315.805v-2.5h5v5h5v2.5h-5v10h-5v-10h-5v-2.5h5Z"/><path d="M939.866,319.555v-1.25h12.5v2.5h2.5v7.5h-2.5v2.5h-12.5v-2.5h-2.5v-7.5h2.5Zm10,5v-3.75h-7.5v7.5h7.5Z"/><path d="M979.866,319.555v-1.25h12.5v2.5h-10v2.5h10v2.5h2.5v2.5h-2.5v2.5h-15v-2.5h12.5v-2.5h-10v-2.5h-2.5v-2.5h2.5Z"/><path d="M999.866,319.555v-1.25h12.5v2.5h2.5v5h-12.5v2.5h10v2.5h-12.5v-2.5h-2.5v-7.5h2.5Zm10,2.5v-1.25h-7.5v2.5h7.5Z"/><path d="M1022.366,314.555v-1.25h7.5v15h5v2.5h-15v-2.5h5v-12.5h-2.5Z"/><path d="M1039.866,319.555v-1.25h12.5v2.5h2.5v5h-12.5v2.5h10v2.5h-12.5v-2.5h-2.5v-7.5h2.5Zm10,2.5v-1.25h-7.5v2.5h7.5Z"/><path d="M1059.866,319.555v-1.25h15v2.5h-12.5v7.5h12.5v2.5h-15v-2.5h-2.5v-7.5h2.5Z"/><path d="M1084.866,315.805v-2.5h5v5h5v2.5h-5v10h-5v-10h-5v-2.5h5Z"/><path d="M1117.366,322.055v-3.75h5v7.5h7.5v-7.5h5v12.5h-2.5v2.5h-12.5v-2.5h10v-2.5h-10v-2.5h-2.5Z"/><path d="M1139.866,319.555v-1.25h12.5v2.5h2.5v7.5h-2.5v2.5h-12.5v-2.5h-2.5v-7.5h2.5Zm10,5v-3.75h-7.5v7.5h7.5Z"/><path d="M1157.366,323.305v-5h5v10h7.5v-10h5v12.5h-15v-2.5h-2.5Z"/><path d="M1179.866,324.555v-6.25h5v2.5h2.5v-2.5h7.5v2.5h-7.5v2.5h-2.5v7.5h-5Z"/><path d="M1217.366,324.555v-6.25h15v2.5h2.5v10h-5v-10h-7.5v10h-5Z"/><path d="M1242.366,319.555v-1.25h7.5v10h5v2.5h-15v-2.5h5v-7.5h-2.5Zm2.5-5v-1.25h5v2.5h-5Z"/><path d="M1257.366,324.555v-6.25h15v2.5h2.5v10h-5v-10h-7.5v10h-5Z"/><path d="M1284.866,319.555v-1.25h7.5v12.5h-2.5v2.5h-10v-2.5h7.5v-10h-2.5Zm2.5-5v-1.25h5v2.5h-5Z"/><path d="M1299.866,319.555v-1.25h12.5v2.5h2.5v10h-15v-2.5h-2.5v-2.5h2.5v-2.5h10v-2.5h-10Zm10,7.5v-1.25h-7.5v2.5h7.5Z"/><path d="M1337.366,322.055v-8.75h5v5h10v2.5h2.5v10h-5v-10h-7.5v10h-5Z"/><path d="M1359.866,319.555v-1.25h12.5v2.5h2.5v5h-12.5v2.5h10v2.5h-12.5v-2.5h-2.5v-7.5h2.5Zm10,2.5v-1.25h-7.5v2.5h7.5Z"/><path d="M1379.866,324.555v-6.25h5v2.5h2.5v-2.5h7.5v2.5h-7.5v2.5h-2.5v7.5h-5Z"/><path d="M1399.866,319.555v-1.25h12.5v2.5h2.5v7.5h-2.5v2.5h-12.5v-2.5h-2.5v-7.5h2.5Zm10,5v-3.75h-7.5v7.5h7.5Z"/><path d="M1422.366,328.305v-2.5h5v5h-5Z"/><path d="M529.866,344.555v-1.25h10v2.5h2.5v2.5h-5v-2.5h-5v5h10v2.5h2.5v5h-2.5v2.5h-12.5v-2.5h-2.5v-2.5h5v2.5h7.5v-5h-10v-2.5h-2.5v-5h2.5Z"/><path d="M547.366,355.805v-7.5h15v2.5h2.5v5h-2.5v2.5h-10v5h-5Zm12.5-2.5v-2.5h-7.5v5h7.5Z"/><path d="M569.866,349.555v-1.25h12.5v2.5h2.5v10h-15v-2.5h-2.5v-2.5h2.5v-2.5h10v-2.5h-10Zm10,7.5v-1.25h-7.5v2.5h7.5Z"/><path d="M589.866,349.555v-1.25h15v2.5h-12.5v7.5h12.5v2.5h-15v-2.5h-2.5v-7.5h2.5Z"/><path d="M609.866,349.555v-1.25h12.5v2.5h2.5v5h-12.5v2.5h10v2.5h-12.5v-2.5h-2.5v-7.5h2.5Zm10,2.5v-1.25h-7.5v2.5h7.5Z"/><path d="M654.866,345.805v-2.5h5v5h5v2.5h-5v10h-5v-10h-5v-2.5h5Z"/><path d="M669.866,349.555v-1.25h12.5v2.5h2.5v7.5h-2.5v2.5h-12.5v-2.5h-2.5v-7.5h2.5Zm10,5v-3.75h-7.5v7.5h7.5Z"/><path d="M709.866,349.555v-1.25h12.5v2.5h-10v2.5h10v2.5h2.5v2.5h-2.5v2.5h-15v-2.5h12.5v-2.5h-10v-2.5h-2.5v-2.5h2.5Z"/><path d="M734.866,345.805v-2.5h5v5h5v2.5h-5v10h-5v-10h-5v-2.5h5Z"/><path d="M749.866,349.555v-1.25h12.5v2.5h2.5v10h-15v-2.5h-2.5v-2.5h2.5v-2.5h10v-2.5h-10Zm10,7.5v-1.25h-7.5v2.5h7.5Z"/><path d="M769.866,354.555v-6.25h5v2.5h2.5v-2.5h7.5v2.5h-7.5v2.5h-2.5v7.5h-5Z"/><path d="M794.866,345.805v-2.5h5v5h5v2.5h-5v10h-5v-10h-5v-2.5h5Z"/><path d="M834.866,345.805v-2.5h5v5h5v2.5h-5v10h-5v-10h-5v-2.5h5Z"/><path d="M847.366,352.055v-8.75h5v5h10v2.5h2.5v10h-5v-10h-7.5v10h-5Z"/><path d="M869.866,349.555v-1.25h12.5v2.5h2.5v5h-12.5v2.5h10v2.5h-12.5v-2.5h-2.5v-7.5h2.5Zm10,2.5v-1.25h-7.5v2.5h7.5Z"/><path d="M912.366,344.555v-1.25h7.5v2.5h2.5v2.5h2.5v12.5h-5v-5h-7.5v5h-5v-12.5h2.5v-2.5h2.5Zm5,2.5v-1.25h-2.5v2.5h-2.5v5h7.5v-5h-2.5Z"/><path d="M927.366,352.055v-8.75h12.5v2.5h2.5v2.5h2.5v7.5h-2.5v2.5h-2.5v2.5h-12.5Zm10-5v-1.25h-5v12.5h5v-2.5h2.5v-7.5h-2.5Z"/><path d="M947.366,348.305v-5h5v7.5h2.5v2.5h2.5v-2.5h2.5v-7.5h5v10h-2.5v2.5h-2.5v2.5h-2.5v2.5h-2.5v-2.5h-2.5v-2.5h-2.5v-2.5h-2.5Z"/><path d="M967.366,352.055v-8.75h17.5v2.5h-12.5v5h10v2.5h-10v5h12.5v2.5h-17.5Z"/><path d="M987.366,352.055v-8.75h5v2.5h2.5v2.5h2.5v2.5h2.5v-7.5h5v17.5h-5v-2.5h-2.5v-2.5h-2.5v-2.5h-2.5v7.5h-5Z"/><path d="M1009.866,344.555v-1.25h15v2.5h-5v15h-5v-15h-5Z"/><path d="M1027.366,350.805v-7.5h5v15h7.5v-15h5v15h-2.5v2.5h-12.5v-2.5h-2.5Z"/><path d="M1047.366,352.055v-8.75h15v2.5h2.5v7.5h-5v2.5h2.5v2.5h2.5v2.5h-7.5v-2.5h-2.5v-2.5h-2.5v5h-5Zm12.5-3.75v-2.5h-7.5v7.5h5v-2.5h2.5Z"/><path d="M1067.366,352.055v-8.75h17.5v2.5h-12.5v5h10v2.5h-10v5h12.5v2.5h-17.5Z"/><path d="M1092.366,358.305v-2.5h5v5h-5Z"/><path d="M467.366,382.055v-8.75h17.5v2.5h-12.5v5h10v2.5h-10v5h12.5v2.5h-17.5Z"/><path d="M489.866,379.555v-1.25h12.5v2.5h-10v2.5h10v2.5h2.5v2.5h-2.5v2.5h-15v-2.5h12.5v-2.5h-10v-2.5h-2.5v-2.5h2.5Z"/><path d="M509.866,379.555v-1.25h15v2.5h-12.5v7.5h12.5v2.5h-15v-2.5h-2.5v-7.5h2.5Z"/><path d="M554.866,375.805v-2.5h5v5h5v2.5h-5v10h-5v-10h-5v-2.5h5Z"/><path d="M569.866,379.555v-1.25h12.5v2.5h2.5v7.5h-2.5v2.5h-12.5v-2.5h-2.5v-7.5h2.5Zm10,5v-3.75h-7.5v7.5h7.5Z"/><path d="M609.866,379.555v-1.25h15v12.5h-2.5v2.5h-12.5v-2.5h10v-2.5h-10v-2.5h-2.5v-5h2.5Zm10,3.75v-2.5h-7.5v5h7.5Z"/><path d="M629.866,379.555v-1.25h12.5v2.5h2.5v7.5h-2.5v2.5h-12.5v-2.5h-2.5v-7.5h2.5Zm10,5v-3.75h-7.5v7.5h7.5Z"/><path d="M667.366,380.805v-7.5h5v5h10v2.5h2.5v7.5h-2.5v2.5h-12.5v-2.5h-2.5Zm12.5,3.75v-3.75h-7.5v7.5h7.5Z"/><path d="M689.866,379.555v-1.25h12.5v2.5h2.5v10h-15v-2.5h-2.5v-2.5h2.5v-2.5h10v-2.5h-10Zm10,7.5v-1.25h-7.5v2.5h7.5Z"/><path d="M709.866,379.555v-1.25h15v2.5h-12.5v7.5h12.5v2.5h-15v-2.5h-2.5v-7.5h2.5Z"/><path d="M727.366,382.055v-8.75h5v7.5h5v-2.5h7.5v2.5h-2.5v2.5h-2.5v2.5h2.5v2.5h2.5v2.5h-7.5v-2.5h-2.5v-2.5h-2.5v5h-5Z"/><path d="M774.866,375.805v-2.5h5v5h5v2.5h-5v10h-5v-10h-5v-2.5h5Z"/><path d="M789.866,379.555v-1.25h12.5v2.5h2.5v7.5h-2.5v2.5h-12.5v-2.5h-2.5v-7.5h2.5Zm10,5v-3.75h-7.5v7.5h7.5Z"/><path d="M834.866,375.805v-2.5h5v5h5v2.5h-5v10h-5v-10h-5v-2.5h5Z"/><path d="M847.366,382.055v-8.75h5v5h10v2.5h2.5v10h-5v-10h-7.5v10h-5Z"/><path d="M869.866,379.555v-1.25h12.5v2.5h2.5v5h-12.5v2.5h10v2.5h-12.5v-2.5h-2.5v-7.5h2.5Zm10,2.5v-1.25h-7.5v2.5h7.5Z"/><path d="M914.866,375.805v-2.5h5v5h5v2.5h-5v10h-5v-10h-5v-2.5h5Z"/><path d="M932.366,379.555v-1.25h7.5v10h5v2.5h-15v-2.5h5v-7.5h-2.5Zm2.5-5v-1.25h5v2.5h-5Z"/><path d="M954.866,375.805v-2.5h5v5h5v2.5h-5v10h-5v-10h-5v-2.5h5Z"/><path d="M972.366,374.555v-1.25h7.5v15h5v2.5h-15v-2.5h5v-12.5h-2.5Z"/><path d="M989.866,379.555v-1.25h12.5v2.5h2.5v5h-12.5v2.5h10v2.5h-12.5v-2.5h-2.5v-7.5h2.5Zm10,2.5v-1.25h-7.5v2.5h7.5Z"/><path d="M1029.866,379.555v-1.25h12.5v2.5h-10v2.5h10v2.5h2.5v2.5h-2.5v2.5h-15v-2.5h12.5v-2.5h-10v-2.5h-2.5v-2.5h2.5Z"/><path d="M1049.866,379.555v-1.25h15v2.5h-12.5v7.5h12.5v2.5h-15v-2.5h-2.5v-7.5h2.5Z"/><path d="M1069.866,384.555v-6.25h5v2.5h2.5v-2.5h7.5v2.5h-7.5v2.5h-2.5v7.5h-5Z"/><path d="M1089.866,379.555v-1.25h12.5v2.5h2.5v5h-12.5v2.5h10v2.5h-12.5v-2.5h-2.5v-7.5h2.5Zm10,2.5v-1.25h-7.5v2.5h7.5Z"/><path d="M1109.866,379.555v-1.25h12.5v2.5h2.5v5h-12.5v2.5h10v2.5h-12.5v-2.5h-2.5v-7.5h2.5Zm10,2.5v-1.25h-7.5v2.5h7.5Z"/><path d="M1127.366,384.555v-6.25h15v2.5h2.5v10h-5v-10h-7.5v10h-5Z"/><path d="M1152.366,388.305v-2.5h5v5h-5Z"/><path d="M139.866,437.055v-3.75h5v7.5h5v-7.5h5v7.5h-2.5v2.5h-2.5v7.5h-5v-7.5h-2.5v-2.5h-2.5Z"/><path d="M159.866,439.555v-1.25h12.5v2.5h2.5v7.5h-2.5v2.5h-12.5v-2.5h-2.5v-7.5h2.5Zm10,5v-3.75h-7.5v7.5h7.5Z"/><path d="M177.366,443.305v-5h5v10h7.5v-10h5v12.5h-15v-2.5h-2.5Z"/><path d="M217.366,444.555v-6.25h15v2.5h2.5v10h-5v-10h-7.5v10h-5Z"/><path d="M239.866,439.555v-1.25h12.5v2.5h2.5v5h-12.5v2.5h10v2.5h-12.5v-2.5h-2.5v-7.5h2.5Zm10,2.5v-1.25h-7.5v2.5h7.5Z"/><path d="M259.866,439.555v-1.25h12.5v2.5h2.5v5h-12.5v2.5h10v2.5h-12.5v-2.5h-2.5v-7.5h2.5Zm10,2.5v-1.25h-7.5v2.5h7.5Z"/><path d="M289.866,435.805v-2.5h5v17.5h-15v-2.5h-2.5v-7.5h2.5v-2.5h10Zm0,8.75v-3.75h-7.5v7.5h7.5Z"/><path d="M319.866,439.555v-1.25h12.5v2.5h2.5v10h-15v-2.5h-2.5v-2.5h2.5v-2.5h10v-2.5h-10Zm10,7.5v-1.25h-7.5v2.5h7.5Z"/><path d="M344.866,435.805v-2.5h5v5h5v2.5h-5v10h-5v-10h-5v-2.5h5Z"/><path d="M382.366,434.555v-1.25h7.5v15h5v2.5h-15v-2.5h5v-12.5h-2.5Z"/><path d="M399.866,439.555v-1.25h12.5v2.5h2.5v5h-12.5v2.5h10v2.5h-12.5v-2.5h-2.5v-7.5h2.5Zm10,2.5v-1.25h-7.5v2.5h7.5Z"/><path d="M419.866,439.555v-1.25h12.5v2.5h2.5v10h-15v-2.5h-2.5v-2.5h2.5v-2.5h10v-2.5h-10Zm10,7.5v-1.25h-7.5v2.5h7.5Z"/><path d="M439.866,439.555v-1.25h12.5v2.5h-10v2.5h10v2.5h2.5v2.5h-2.5v2.5h-15v-2.5h12.5v-2.5h-10v-2.5h-2.5v-2.5h2.5Z"/><path d="M464.866,435.805v-2.5h5v5h5v2.5h-5v10h-5v-10h-5v-2.5h5Z"/><path d="M504.866,435.805v-2.5h5v5h5v2.5h-5v10h-5v-10h-5v-2.5h5Z"/><path d="M517.366,443.305v-5h2.5v10h2.5v-10h5v10h2.5v-10h5v12.5h-15v-2.5h-2.5Z"/><path d="M539.866,439.555v-1.25h12.5v2.5h2.5v7.5h-2.5v2.5h-12.5v-2.5h-2.5v-7.5h2.5Zm10,5v-3.75h-7.5v7.5h7.5Z"/><path d="M587.366,434.555v-1.25h7.5v2.5h-5v2.5h5v2.5h-5v10h-5v-10h-5v-2.5h5v-2.5h2.5Z"/><path d="M599.866,439.555v-1.25h12.5v2.5h2.5v5h-12.5v2.5h10v2.5h-12.5v-2.5h-2.5v-7.5h2.5Zm10,2.5v-1.25h-7.5v2.5h7.5Z"/><path d="M619.866,439.555v-1.25h12.5v2.5h2.5v10h-15v-2.5h-2.5v-2.5h2.5v-2.5h10v-2.5h-10Zm10,7.5v-1.25h-7.5v2.5h7.5Z"/><path d="M639.866,444.555v-6.25h5v2.5h2.5v-2.5h7.5v2.5h-7.5v2.5h-2.5v7.5h-5Z"/><path d="M662.366,434.555v-1.25h7.5v15h5v2.5h-15v-2.5h5v-12.5h-2.5Z"/><path d="M679.866,439.555v-1.25h12.5v2.5h2.5v5h-12.5v2.5h10v2.5h-12.5v-2.5h-2.5v-7.5h2.5Zm10,2.5v-1.25h-7.5v2.5h7.5Z"/><path d="M699.866,439.555v-1.25h12.5v2.5h-10v2.5h10v2.5h2.5v2.5h-2.5v2.5h-15v-2.5h12.5v-2.5h-10v-2.5h-2.5v-2.5h2.5Z"/><path d="M719.866,439.555v-1.25h12.5v2.5h-10v2.5h10v2.5h2.5v2.5h-2.5v2.5h-15v-2.5h12.5v-2.5h-10v-2.5h-2.5v-2.5h2.5Z"/><path d="M757.366,444.555v-6.25h15v2.5h2.5v10h-5v-10h-7.5v10h-5Z"/><path d="M782.366,439.555v-1.25h7.5v10h5v2.5h-15v-2.5h5v-7.5h-2.5Zm2.5-5v-1.25h5v2.5h-5Z"/><path d="M797.366,444.555v-6.25h15v2.5h2.5v10h-5v-10h-7.5v10h-5Z"/><path d="M824.866,439.555v-1.25h7.5v12.5h-2.5v2.5h-10v-2.5h7.5v-10h-2.5Zm2.5-5v-1.25h5v2.5h-5Z"/><path d="M839.866,439.555v-1.25h12.5v2.5h2.5v10h-15v-2.5h-2.5v-2.5h2.5v-2.5h10v-2.5h-10Zm10,7.5v-1.25h-7.5v2.5h7.5Z"/><path d="M859.866,439.555v-1.25h12.5v2.5h-10v2.5h10v2.5h2.5v2.5h-2.5v2.5h-15v-2.5h12.5v-2.5h-10v-2.5h-2.5v-2.5h2.5Z"/><path d="M904.866,435.805v-2.5h5v5h5v2.5h-5v10h-5v-10h-5v-2.5h5Z"/><path d="M919.866,439.555v-1.25h12.5v2.5h2.5v7.5h-2.5v2.5h-12.5v-2.5h-2.5v-7.5h2.5Zm10,5v-3.75h-7.5v7.5h7.5Z"/><path d="M957.366,445.805v-7.5h15v2.5h2.5v5h-2.5v2.5h-10v5h-5Zm12.5-2.5v-2.5h-7.5v5h7.5Z"/><path d="M982.366,434.555v-1.25h7.5v15h5v2.5h-15v-2.5h5v-12.5h-2.5Z"/><path d="M999.866,439.555v-1.25h12.5v2.5h2.5v10h-15v-2.5h-2.5v-2.5h2.5v-2.5h10v-2.5h-10Zm10,7.5v-1.25h-7.5v2.5h7.5Z"/><path d="M1017.366,442.055v-3.75h5v7.5h7.5v-7.5h5v12.5h-2.5v2.5h-12.5v-2.5h10v-2.5h-10v-2.5h-2.5Z"/><path d="M1067.366,434.555v-1.25h5v2.5h-2.5v2.5h-2.5v7.5h2.5v2.5h2.5v2.5h-5v-2.5h-2.5v-2.5h-2.5v-7.5h2.5v-2.5h2.5Z"/><path d="M1077.366,440.805v-7.5h5v5h10v2.5h2.5v7.5h-2.5v2.5h-12.5v-2.5h-2.5Zm12.5,3.75v-3.75h-7.5v7.5h7.5Z"/><path d="M1097.366,443.305v-5h5v10h7.5v-10h5v12.5h-15v-2.5h-2.5Z"/><path d="M1124.866,435.805v-2.5h5v5h5v2.5h-5v10h-5v-10h-5v-2.5h5Z"/><path d="M1157.366,445.805v-7.5h15v2.5h2.5v5h-2.5v2.5h-10v5h-5Zm12.5-2.5v-2.5h-7.5v5h7.5Z"/><path d="M1179.866,444.555v-6.25h5v2.5h2.5v-2.5h7.5v2.5h-7.5v2.5h-2.5v7.5h-5Z"/><path d="M1199.866,439.555v-1.25h12.5v2.5h2.5v5h-12.5v2.5h10v2.5h-12.5v-2.5h-2.5v-7.5h2.5Zm10,2.5v-1.25h-7.5v2.5h7.5Z"/><path d="M1227.366,434.555v-1.25h7.5v2.5h-5v2.5h5v2.5h-5v10h-5v-10h-5v-2.5h5v-2.5h2.5Z"/><path d="M1239.866,439.555v-1.25h12.5v2.5h2.5v5h-12.5v2.5h10v2.5h-12.5v-2.5h-2.5v-7.5h2.5Zm10,2.5v-1.25h-7.5v2.5h7.5Z"/><path d="M1259.866,444.555v-6.25h5v2.5h2.5v-2.5h7.5v2.5h-7.5v2.5h-2.5v7.5h-5Z"/><path d="M1279.866,439.555v-1.25h12.5v2.5h2.5v10h-15v-2.5h-2.5v-2.5h2.5v-2.5h10v-2.5h-10Zm10,7.5v-1.25h-7.5v2.5h7.5Z"/><path d="M1297.366,440.805v-7.5h5v5h10v2.5h2.5v7.5h-2.5v2.5h-12.5v-2.5h-2.5Zm12.5,3.75v-3.75h-7.5v7.5h7.5Z"/><path d="M1322.366,434.555v-1.25h7.5v15h5v2.5h-15v-2.5h5v-12.5h-2.5Z"/><path d="M1337.366,442.055v-3.75h5v7.5h7.5v-7.5h5v12.5h-2.5v2.5h-12.5v-2.5h10v-2.5h-10v-2.5h-2.5Z"/><path d="M1387.366,434.555v-1.25h7.5v2.5h-5v2.5h5v2.5h-5v10h-5v-10h-5v-2.5h5v-2.5h2.5Z"/><path d="M1399.866,439.555v-1.25h12.5v2.5h2.5v7.5h-2.5v2.5h-12.5v-2.5h-2.5v-7.5h2.5Zm10,5v-3.75h-7.5v7.5h7.5Z"/><path d="M1417.366,443.305v-5h5v10h7.5v-10h5v12.5h-15v-2.5h-2.5Z"/><path d="M1439.866,444.555v-6.25h5v2.5h2.5v-2.5h7.5v2.5h-7.5v2.5h-2.5v7.5h-5Z"/><path d="M1459.866,434.555v-1.25h5v2.5h2.5v2.5h2.5v7.5h-2.5v2.5h-2.5v2.5h-5v-2.5h2.5v-2.5h2.5v-7.5h-2.5v-2.5h-2.5Z"/><path d="M1482.366,448.305v-2.5h5v5h-5Z"/><path d="M9.866,494.555v-1.25h15v2.5h-5v12.5h5v2.5h-15v-2.5h5v-12.5h-5Z"/><path d="M27.366,504.555v-6.25h15v2.5h2.5v10h-5v-10h-7.5v10h-5Z"/><path d="M69.866,499.555v-1.25h12.5v2.5h2.5v10h-15v-2.5h-2.5v-2.5h2.5v-2.5h10v-2.5h-10Zm10,7.5v-1.25h-7.5v2.5h7.5Z"/><path d="M117.366,494.555v-1.25h7.5v2.5h-5v2.5h5v2.5h-5v10h-5v-10h-5v-2.5h5v-2.5h2.5Z"/><path d="M129.866,499.555v-1.25h12.5v2.5h2.5v7.5h-2.5v2.5h-12.5v-2.5h-2.5v-7.5h2.5Zm10,5v-3.75h-7.5v7.5h7.5Z"/><path d="M147.366,503.305v-5h5v10h7.5v-10h5v12.5h-15v-2.5h-2.5Z"/><path d="M169.866,504.555v-6.25h5v2.5h2.5v-2.5h7.5v2.5h-7.5v2.5h-2.5v7.5h-5Z"/><path d="M207.366,505.805v-7.5h15v2.5h2.5v5h-2.5v2.5h-10v5h-5Zm12.5-2.5v-2.5h-7.5v5h7.5Z"/><path d="M232.366,494.555v-1.25h7.5v15h5v2.5h-15v-2.5h5v-12.5h-2.5Z"/><path d="M249.866,499.555v-1.25h12.5v2.5h2.5v10h-15v-2.5h-2.5v-2.5h2.5v-2.5h10v-2.5h-10Zm10,7.5v-1.25h-7.5v2.5h7.5Z"/><path d="M267.366,502.055v-3.75h5v7.5h7.5v-7.5h5v12.5h-2.5v2.5h-12.5v-2.5h10v-2.5h-10v-2.5h-2.5Z"/><path d="M289.866,499.555v-1.25h12.5v2.5h2.5v5h-12.5v2.5h10v2.5h-12.5v-2.5h-2.5v-7.5h2.5Zm10,2.5v-1.25h-7.5v2.5h7.5Z"/><path d="M309.866,504.555v-6.25h5v2.5h2.5v-2.5h7.5v2.5h-7.5v2.5h-2.5v7.5h-5Z"/><path d="M349.866,499.555v-1.25h15v12.5h-2.5v2.5h-12.5v-2.5h10v-2.5h-10v-2.5h-2.5v-5h2.5Zm10,3.75v-2.5h-7.5v5h7.5Z"/><path d="M369.866,499.555v-1.25h12.5v2.5h2.5v10h-15v-2.5h-2.5v-2.5h2.5v-2.5h10v-2.5h-10Zm10,7.5v-1.25h-7.5v2.5h7.5Z"/><path d="M387.366,504.555v-6.25h15v2.5h2.5v10h-5v-10h-2.5v10h-5v-10h-2.5v10h-2.5Z"/><path d="M409.866,499.555v-1.25h12.5v2.5h2.5v5h-12.5v2.5h10v2.5h-12.5v-2.5h-2.5v-7.5h2.5Zm10,2.5v-1.25h-7.5v2.5h7.5Z"/><path d="M432.366,508.305v-2.5h5v5h-2.5v2.5h-5v-2.5h2.5Z"/><path d="M474.866,495.805v-2.5h5v5h5v2.5h-5v10h-5v-10h-5v-2.5h5Z"/><path d="M487.366,502.055v-8.75h5v5h10v2.5h2.5v10h-5v-10h-7.5v10h-5Z"/><path d="M509.866,499.555v-1.25h12.5v2.5h2.5v5h-12.5v2.5h10v2.5h-12.5v-2.5h-2.5v-7.5h2.5Zm10,2.5v-1.25h-7.5v2.5h7.5Z"/><path d="M557.366,494.555v-1.25h7.5v2.5h-5v2.5h5v2.5h-5v10h-5v-10h-5v-2.5h5v-2.5h2.5Z"/><path d="M572.366,499.555v-1.25h7.5v10h5v2.5h-15v-2.5h5v-7.5h-2.5Zm2.5-5v-1.25h5v2.5h-5Z"/><path d="M589.866,504.555v-6.25h5v2.5h2.5v-2.5h7.5v2.5h-7.5v2.5h-2.5v7.5h-5Z"/><path d="M609.866,499.555v-1.25h12.5v2.5h-10v2.5h10v2.5h2.5v2.5h-2.5v2.5h-15v-2.5h12.5v-2.5h-10v-2.5h-2.5v-2.5h2.5Z"/><path d="M634.866,495.805v-2.5h5v5h5v2.5h-5v10h-5v-10h-5v-2.5h5Z"/><path d="M667.366,504.555v-6.25h15v2.5h2.5v10h-5v-10h-7.5v10h-5Z"/><path d="M692.366,499.555v-1.25h7.5v10h5v2.5h-15v-2.5h5v-7.5h-2.5Zm2.5-5v-1.25h5v2.5h-5Z"/><path d="M707.366,504.555v-6.25h15v2.5h2.5v10h-5v-10h-7.5v10h-5Z"/><path d="M734.866,499.555v-1.25h7.5v12.5h-2.5v2.5h-10v-2.5h7.5v-10h-2.5Zm2.5-5v-1.25h5v2.5h-5Z"/><path d="M749.866,499.555v-1.25h12.5v2.5h2.5v10h-15v-2.5h-2.5v-2.5h2.5v-2.5h10v-2.5h-10Zm10,7.5v-1.25h-7.5v2.5h7.5Z"/><path d="M794.866,495.805v-2.5h5v5h5v2.5h-5v10h-5v-10h-5v-2.5h5Z"/><path d="M809.866,499.555v-1.25h12.5v2.5h2.5v7.5h-2.5v2.5h-12.5v-2.5h-2.5v-7.5h2.5Zm10,5v-3.75h-7.5v7.5h7.5Z"/><path d="M857.366,494.555v-1.25h7.5v2.5h-5v2.5h5v2.5h-5v10h-5v-10h-5v-2.5h5v-2.5h2.5Z"/><path d="M869.866,499.555v-1.25h12.5v2.5h2.5v10h-15v-2.5h-2.5v-2.5h2.5v-2.5h10v-2.5h-10Zm10,7.5v-1.25h-7.5v2.5h7.5Z"/><path d="M892.366,494.555v-1.25h7.5v15h5v2.5h-15v-2.5h5v-12.5h-2.5Z"/><path d="M912.366,494.555v-1.25h7.5v15h5v2.5h-15v-2.5h5v-12.5h-2.5Z"/><path d="M949.866,499.555v-1.25h12.5v2.5h2.5v7.5h-2.5v2.5h-12.5v-2.5h-2.5v-7.5h2.5Zm10,5v-3.75h-7.5v7.5h7.5Z"/><path d="M967.366,503.305v-5h5v10h7.5v-10h5v12.5h-15v-2.5h-2.5Z"/><path d="M994.866,495.805v-2.5h5v5h5v2.5h-5v10h-5v-10h-5v-2.5h5Z"/><path d="M1009.866,499.555v-1.25h12.5v2.5h-10v2.5h10v2.5h2.5v2.5h-2.5v2.5h-15v-2.5h12.5v-2.5h-10v-2.5h-2.5v-2.5h2.5Z"/><path d="M1032.366,499.555v-1.25h7.5v10h5v2.5h-15v-2.5h5v-7.5h-2.5Zm2.5-5v-1.25h5v2.5h-5Z"/><path d="M1059.866,495.805v-2.5h5v17.5h-15v-2.5h-2.5v-7.5h2.5v-2.5h10Zm0,8.75v-3.75h-7.5v7.5h7.5Z"/><path d="M1069.866,499.555v-1.25h12.5v2.5h2.5v5h-12.5v2.5h10v2.5h-12.5v-2.5h-2.5v-7.5h2.5Zm10,2.5v-1.25h-7.5v2.5h7.5Z"/><path d="M1114.866,495.805v-2.5h5v5h5v2.5h-5v10h-5v-10h-5v-2.5h5Z"/><path d="M1127.366,502.055v-8.75h5v5h10v2.5h2.5v10h-5v-10h-7.5v10h-5Z"/><path d="M1149.866,499.555v-1.25h12.5v2.5h2.5v5h-12.5v2.5h10v2.5h-12.5v-2.5h-2.5v-7.5h2.5Zm10,2.5v-1.25h-7.5v2.5h7.5Z"/><path d="M1189.866,499.555v-1.25h12.5v2.5h-10v2.5h10v2.5h2.5v2.5h-2.5v2.5h-15v-2.5h12.5v-2.5h-10v-2.5h-2.5v-2.5h2.5Z"/><path d="M1209.866,499.555v-1.25h15v2.5h-12.5v7.5h12.5v2.5h-15v-2.5h-2.5v-7.5h2.5Z"/><path d="M1229.866,504.555v-6.25h5v2.5h2.5v-2.5h7.5v2.5h-7.5v2.5h-2.5v7.5h-5Z"/><path d="M1249.866,499.555v-1.25h12.5v2.5h2.5v5h-12.5v2.5h10v2.5h-12.5v-2.5h-2.5v-7.5h2.5Zm10,2.5v-1.25h-7.5v2.5h7.5Z"/><path d="M1269.866,499.555v-1.25h12.5v2.5h2.5v5h-12.5v2.5h10v2.5h-12.5v-2.5h-2.5v-7.5h2.5Zm10,2.5v-1.25h-7.5v2.5h7.5Z"/><path d="M1287.366,504.555v-6.25h15v2.5h2.5v10h-5v-10h-7.5v10h-5Z"/><path d="M1329.866,499.555v-1.25h15v12.5h-2.5v2.5h-12.5v-2.5h10v-2.5h-10v-2.5h-2.5v-5h2.5Zm10,3.75v-2.5h-7.5v5h7.5Z"/><path d="M1349.866,499.555v-1.25h12.5v2.5h2.5v5h-12.5v2.5h10v2.5h-12.5v-2.5h-2.5v-7.5h2.5Zm10,2.5v-1.25h-7.5v2.5h7.5Z"/><path d="M1374.866,495.805v-2.5h5v5h5v2.5h-5v10h-5v-10h-5v-2.5h5Z"/><path d="M1389.866,499.555v-1.25h12.5v2.5h-10v2.5h10v2.5h2.5v2.5h-2.5v2.5h-15v-2.5h12.5v-2.5h-10v-2.5h-2.5v-2.5h2.5Z"/><path d="M1432.366,494.555v-1.25h7.5v2.5h2.5v2.5h2.5v7.5h-2.5v2.5h-2.5v2.5h-7.5v-2.5h-2.5v-2.5h-2.5v-7.5h2.5v-2.5h2.5Zm5,2.5v-1.25h-5v10h2.5v2.5h5v-10h-2.5Z"/><path d="M1467.366,505.805v-7.5h15v2.5h2.5v5h-2.5v2.5h-10v5h-5Zm12.5-2.5v-2.5h-7.5v5h7.5Z"/><path d="M1489.866,499.555v-1.25h12.5v2.5h2.5v7.5h-2.5v2.5h-12.5v-2.5h-2.5v-7.5h2.5Zm10,5v-3.75h-7.5v7.5h7.5Z"/><path d="M1512.366,499.555v-1.25h7.5v10h5v2.5h-15v-2.5h5v-7.5h-2.5Zm2.5-5v-1.25h5v2.5h-5Z"/><path d="M1527.366,504.555v-6.25h15v2.5h2.5v10h-5v-10h-7.5v10h-5Z"/><path d="M1554.866,495.805v-2.5h5v5h5v2.5h-5v10h-5v-10h-5v-2.5h5Z"/><path d="M1569.866,499.555v-1.25h12.5v2.5h-10v2.5h10v2.5h2.5v2.5h-2.5v2.5h-15v-2.5h12.5v-2.5h-10v-2.5h-2.5v-2.5h2.5Z"/><path d="M1592.366,508.305v-2.5h5v5h-5Z"/><path d="M59.866,524.555V523.3h10v2.5h2.5v2.5h-5v-2.5h-5v5h10v2.5h2.5v5h-2.5v2.5h-12.5v-2.5h-2.5v-2.5h5v2.5h7.5v-5h-10v-2.5h-2.5v-5h2.5Z"/><path d="M79.866,529.555V528.3h12.5v2.5h2.5v5h-12.5v2.5h10v2.5h-12.5v-2.5h-2.5v-7.5h2.5Zm10,2.5V530.8h-7.5v2.5h7.5Z"/><path d="M99.866,529.555V528.3h15v2.5h-12.5v7.5h12.5v2.5h-15v-2.5h-2.5v-7.5h2.5Z"/><path d="M119.866,529.555V528.3h12.5v2.5h2.5v7.5h-2.5v2.5h-12.5v-2.5h-2.5v-7.5h2.5Zm10,5V530.8h-7.5v7.5h7.5Z"/><path d="M137.366,534.555V528.3h15v2.5h2.5v10h-5v-10h-7.5v10h-5Z"/><path d="M169.866,525.8v-2.5h5v17.5h-15v-2.5h-2.5v-7.5h2.5v-2.5h10Zm0,8.75V530.8h-7.5v7.5h7.5Z"/><path d="M199.866,529.555V528.3h15v12.5h-2.5v2.5h-12.5v-2.5h10v-2.5h-10v-2.5h-2.5v-5h2.5Zm10,3.75v-2.5h-7.5v5h7.5Z"/><path d="M219.866,529.555V528.3h12.5v2.5h2.5v5h-12.5v2.5h10v2.5h-12.5v-2.5h-2.5v-7.5h2.5Zm10,2.5V530.8h-7.5v2.5h7.5Z"/><path d="M244.866,525.8v-2.5h5v5h5v2.5h-5v10h-5v-10h-5v-2.5h5Z"/><path d="M259.866,529.555V528.3h12.5v2.5h-10v2.5h10v2.5h2.5v2.5h-2.5v2.5h-15v-2.5h12.5v-2.5h-10v-2.5h-2.5v-2.5h2.5Z"/><path d="M304.866,524.555V523.3h5v15h5v2.5h-15v-2.5h5v-10h-2.5v-2.5h2.5Z"/><path d="M337.366,535.8v-7.5h15v2.5h2.5v5h-2.5v2.5h-10v5h-5Zm12.5-2.5v-2.5h-7.5v5h7.5Z"/><path d="M359.866,529.555V528.3h12.5v2.5h2.5v7.5h-2.5v2.5h-12.5v-2.5h-2.5v-7.5h2.5Zm10,5V530.8h-7.5v7.5h7.5Z"/><path d="M382.366,529.555V528.3h7.5v10h5v2.5h-15v-2.5h5v-7.5h-2.5Zm2.5-5V523.3h5v2.5h-5Z"/><path d="M397.366,534.555V528.3h15v2.5h2.5v10h-5v-10h-7.5v10h-5Z"/><path d="M424.866,525.8v-2.5h5v5h5v2.5h-5v10h-5v-10h-5v-2.5h5Z"/><path d="M442.366,538.3v-2.5h5v5h-5Z"/><path d="M459.866,524.555V523.3h15v2.5h-5v15h-5v-15h-5Z"/><path d="M477.366,532.055V523.3h5v5h10v2.5h2.5v10h-5v-10h-7.5v10h-5Z"/><path d="M502.366,529.555V528.3h7.5v10h5v2.5h-15v-2.5h5v-7.5h-2.5Zm2.5-5V523.3h5v2.5h-5Z"/><path d="M519.866,534.555V528.3h5v2.5h2.5v-2.5h7.5v2.5h-7.5v2.5h-2.5v7.5h-5Z"/><path d="M549.866,525.8v-2.5h5v17.5h-15v-2.5h-2.5v-7.5h2.5v-2.5h10Zm0,8.75V530.8h-7.5v7.5h7.5Z"/><path d="M579.866,529.555V528.3h15v12.5h-2.5v2.5h-12.5v-2.5h10v-2.5h-10v-2.5h-2.5v-5h2.5Zm10,3.75v-2.5h-7.5v5h7.5Z"/><path d="M599.866,529.555V528.3h12.5v2.5h2.5v5h-12.5v2.5h10v2.5h-12.5v-2.5h-2.5v-7.5h2.5Zm10,2.5V530.8h-7.5v2.5h7.5Z"/><path d="M624.866,525.8v-2.5h5v5h5v2.5h-5v10h-5v-10h-5v-2.5h5Z"/><path d="M639.866,529.555V528.3h12.5v2.5h-10v2.5h10v2.5h2.5v2.5h-2.5v2.5h-15v-2.5h12.5v-2.5h-10v-2.5h-2.5v-2.5h2.5Z"/><path d="M679.866,524.555V523.3h12.5v2.5h2.5v5h-2.5v2.5h-2.5v2.5h-5v2.5h10v2.5h-17.5v-5h2.5v-2.5h2.5v-2.5h5v-2.5h2.5v-2.5h-7.5v2.5h-5v-2.5h2.5Z"/><path d="M717.366,535.8v-7.5h15v2.5h2.5v5h-2.5v2.5h-10v5h-5Zm12.5-2.5v-2.5h-7.5v5h7.5Z"/><path d="M739.866,529.555V528.3h12.5v2.5h2.5v7.5h-2.5v2.5h-12.5v-2.5h-2.5v-7.5h2.5Zm10,5V530.8h-7.5v7.5h7.5Z"/><path d="M762.366,529.555V528.3h7.5v10h5v2.5h-15v-2.5h5v-7.5h-2.5Zm2.5-5V523.3h5v2.5h-5Z"/><path d="M777.366,534.555V528.3h15v2.5h2.5v10h-5v-10h-7.5v10h-5Z"/><path d="M804.866,525.8v-2.5h5v5h5v2.5h-5v10h-5v-10h-5v-2.5h5Z"/><path d="M819.866,529.555V528.3h12.5v2.5h-10v2.5h10v2.5h2.5v2.5h-2.5v2.5h-15v-2.5h12.5v-2.5h-10v-2.5h-2.5v-2.5h2.5Z"/><path d="M842.366,538.3v-2.5h5v5h-5Z"/><path d="M879.866,532.055V523.3h5v15h10v2.5h-15Z"/><path d="M899.866,529.555V528.3h12.5v2.5h2.5v10h-15v-2.5h-2.5v-2.5h2.5v-2.5h10v-2.5h-10Zm10,7.5V535.8h-7.5v2.5h7.5Z"/><path d="M919.866,529.555V528.3h12.5v2.5h-10v2.5h10v2.5h2.5v2.5h-2.5v2.5h-15v-2.5h12.5v-2.5h-10v-2.5h-2.5v-2.5h2.5Z"/><path d="M944.866,525.8v-2.5h5v5h5v2.5h-5v10h-5v-10h-5v-2.5h5Z"/><path d="M977.366,534.555V528.3h15v2.5h2.5v10h-5v-10h-7.5v10h-5Z"/><path d="M1002.366,529.555V528.3h7.5v10h5v2.5h-15v-2.5h5v-7.5h-2.5Zm2.5-5V523.3h5v2.5h-5Z"/><path d="M1017.366,534.555V528.3h15v2.5h2.5v10h-5v-10h-7.5v10h-5Z"/><path d="M1044.866,529.555V528.3h7.5v12.5h-2.5v2.5h-10v-2.5h7.5v-10h-2.5Zm2.5-5V523.3h5v2.5h-5Z"/><path d="M1059.866,529.555V528.3h12.5v2.5h2.5v10h-15v-2.5h-2.5v-2.5h2.5v-2.5h10v-2.5h-10Zm10,7.5V535.8h-7.5v2.5h7.5Z"/><path d="M1099.866,529.555V528.3h12.5v2.5h-10v2.5h10v2.5h2.5v2.5h-2.5v2.5h-15v-2.5h12.5v-2.5h-10v-2.5h-2.5v-2.5h2.5Z"/><path d="M1124.866,525.8v-2.5h5v5h5v2.5h-5v10h-5v-10h-5v-2.5h5Z"/><path d="M1139.866,529.555V528.3h12.5v2.5h2.5v10h-15v-2.5h-2.5v-2.5h2.5v-2.5h10v-2.5h-10Zm10,7.5V535.8h-7.5v2.5h7.5Z"/><path d="M1157.366,534.555V528.3h15v2.5h2.5v10h-5v-10h-7.5v10h-5Z"/><path d="M1189.866,525.8v-2.5h5v17.5h-15v-2.5h-2.5v-7.5h2.5v-2.5h10Zm0,8.75V530.8h-7.5v7.5h7.5Z"/><path d="M1202.366,529.555V528.3h7.5v10h5v2.5h-15v-2.5h5v-7.5h-2.5Zm2.5-5V523.3h5v2.5h-5Z"/><path d="M1217.366,534.555V528.3h15v2.5h2.5v10h-5v-10h-7.5v10h-5Z"/><path d="M1239.866,529.555V528.3h15v12.5h-2.5v2.5h-12.5v-2.5h10v-2.5h-10v-2.5h-2.5v-5h2.5Zm10,3.75v-2.5h-7.5v5h7.5Z"/><path d="M1279.866,529.555V528.3h15v12.5h-2.5v2.5h-12.5v-2.5h10v-2.5h-10v-2.5h-2.5v-5h2.5Zm10,3.75v-2.5h-7.5v5h7.5Z"/><path d="M1299.866,529.555V528.3h12.5v2.5h2.5v5h-12.5v2.5h10v2.5h-12.5v-2.5h-2.5v-7.5h2.5Zm10,2.5V530.8h-7.5v2.5h7.5Z"/><path d="M1324.866,525.8v-2.5h5v5h5v2.5h-5v10h-5v-10h-5v-2.5h5Z"/><path d="M1339.866,529.555V528.3h12.5v2.5h-10v2.5h10v2.5h2.5v2.5h-2.5v2.5h-15v-2.5h12.5v-2.5h-10v-2.5h-2.5v-2.5h2.5Z"/><path d="M1379.866,524.555V523.3h15v2.5h-2.5v2.5h-2.5v2.5h2.5v2.5h2.5v5h-2.5v2.5h-12.5v-2.5h-2.5v-2.5h5v2.5h7.5v-5h-7.5v-2.5h2.5v-2.5h2.5v-2.5h-7.5Z"/><path d="M1417.366,535.8v-7.5h15v2.5h2.5v5h-2.5v2.5h-10v5h-5Zm12.5-2.5v-2.5h-7.5v5h7.5Z"/><path d="M1439.866,529.555V528.3h12.5v2.5h2.5v7.5h-2.5v2.5h-12.5v-2.5h-2.5v-7.5h2.5Zm10,5V530.8h-7.5v7.5h7.5Z"/><path d="M1462.366,529.555V528.3h7.5v10h5v2.5h-15v-2.5h5v-7.5h-2.5Zm2.5-5V523.3h5v2.5h-5Z"/><path d="M1477.366,534.555V528.3h15v2.5h2.5v10h-5v-10h-7.5v10h-5Z"/><path d="M1504.866,525.8v-2.5h5v5h5v2.5h-5v10h-5v-10h-5v-2.5h5Z"/><path d="M1519.866,529.555V528.3h12.5v2.5h-10v2.5h10v2.5h2.5v2.5h-2.5v2.5h-15v-2.5h12.5v-2.5h-10v-2.5h-2.5v-2.5h2.5Z"/><path d="M1542.366,538.3v-2.5h5v5h-5Z"/><path d="M309.866,584.555V583.3h15v2.5h-5v15h-5v-15h-5Z"/><path d="M327.366,593.3v-5h2.5v10h2.5v-10h5v10h2.5v-10h5v12.5h-15v-2.5h-2.5Z"/><path d="M349.866,589.555V588.3h12.5v2.5h2.5v7.5h-2.5v2.5h-12.5v-2.5h-2.5v-7.5h2.5Zm10,5V590.8h-7.5v7.5h7.5Z"/><path d="M389.866,589.555V588.3h12.5v2.5h2.5v10h-15v-2.5h-2.5v-2.5h2.5v-2.5h10v-2.5h-10Zm10,7.5V595.8h-7.5v2.5h7.5Z"/><path d="M407.366,594.555V588.3h15v2.5h2.5v10h-5v-10h-7.5v10h-5Z"/><path d="M439.866,585.8v-2.5h5v17.5h-15v-2.5h-2.5v-7.5h2.5v-2.5h10Zm0,8.75V590.8h-7.5v7.5h7.5Z"/><path d="M474.866,585.8v-2.5h5v5h5v2.5h-5v10h-5v-10h-5v-2.5h5Z"/><path d="M487.366,592.055V583.3h5v5h10v2.5h2.5v10h-5v-10h-7.5v10h-5Z"/><path d="M509.866,594.555V588.3h5v2.5h2.5v-2.5h7.5v2.5h-7.5v2.5h-2.5v7.5h-5Z"/><path d="M529.866,589.555V588.3h12.5v2.5h2.5v5h-12.5v2.5h10v2.5h-12.5v-2.5h-2.5v-7.5h2.5Zm10,2.5V590.8h-7.5v2.5h7.5Z"/><path d="M549.866,589.555V588.3h12.5v2.5h2.5v5h-12.5v2.5h10v2.5h-12.5v-2.5h-2.5v-7.5h2.5Zm10,2.5V590.8h-7.5v2.5h7.5Z"/><path d="M587.366,595.8v-7.5h15v2.5h2.5v5h-2.5v2.5h-10v5h-5Zm12.5-2.5v-2.5h-7.5v5h7.5Z"/><path d="M612.366,584.555V583.3h7.5v15h5v2.5h-15v-2.5h5V585.8h-2.5Z"/><path d="M629.866,589.555V588.3h12.5v2.5h2.5v10h-15v-2.5h-2.5v-2.5h2.5v-2.5h10v-2.5h-10Zm10,7.5V595.8h-7.5v2.5h7.5Z"/><path d="M647.366,592.055V588.3h5v7.5h7.5v-7.5h5v12.5h-2.5v2.5h-12.5v-2.5h10v-2.5h-10v-2.5h-2.5Z"/><path d="M669.866,589.555V588.3h12.5v2.5h2.5v5h-12.5v2.5h10v2.5h-12.5v-2.5h-2.5v-7.5h2.5Zm10,2.5V590.8h-7.5v2.5h7.5Z"/><path d="M689.866,594.555V588.3h5v2.5h2.5v-2.5h7.5v2.5h-7.5v2.5h-2.5v7.5h-5Z"/><path d="M729.866,589.555V588.3h15v12.5h-2.5v2.5h-12.5v-2.5h10v-2.5h-10v-2.5h-2.5v-5h2.5Zm10,3.75v-2.5h-7.5v5h7.5Z"/><path d="M749.866,589.555V588.3h12.5v2.5h2.5v10h-15v-2.5h-2.5v-2.5h2.5v-2.5h10v-2.5h-10Zm10,7.5V595.8h-7.5v2.5h7.5Z"/><path d="M767.366,594.555V588.3h15v2.5h2.5v10h-5v-10h-2.5v10h-5v-10h-2.5v10h-2.5Z"/><path d="M789.866,589.555V588.3h12.5v2.5h2.5v5h-12.5v2.5h10v2.5h-12.5v-2.5h-2.5v-7.5h2.5Zm10,2.5V590.8h-7.5v2.5h7.5Z"/><path d="M809.866,589.555V588.3h12.5v2.5h-10v2.5h10v2.5h2.5v2.5h-2.5v2.5h-15v-2.5h12.5v-2.5h-10v-2.5h-2.5v-2.5h2.5Z"/><path d="M849.866,589.555V588.3h12.5v2.5h2.5v10h-15v-2.5h-2.5v-2.5h2.5v-2.5h10v-2.5h-10Zm10,7.5V595.8h-7.5v2.5h7.5Z"/><path d="M869.866,594.555V588.3h5v2.5h2.5v-2.5h7.5v2.5h-7.5v2.5h-2.5v7.5h-5Z"/><path d="M889.866,589.555V588.3h12.5v2.5h2.5v5h-12.5v2.5h10v2.5h-12.5v-2.5h-2.5v-7.5h2.5Zm10,2.5V590.8h-7.5v2.5h7.5Z"/><path d="M929.866,589.555V588.3h12.5v2.5h-10v2.5h10v2.5h2.5v2.5h-2.5v2.5h-15v-2.5h12.5v-2.5h-10v-2.5h-2.5v-2.5h2.5Z"/><path d="M949.866,589.555V588.3h15v2.5h-12.5v7.5h12.5v2.5h-15v-2.5h-2.5v-7.5h2.5Z"/><path d="M969.866,589.555V588.3h12.5v2.5h2.5v7.5h-2.5v2.5h-12.5v-2.5h-2.5v-7.5h2.5Zm10,5V590.8h-7.5v7.5h7.5Z"/><path d="M989.866,594.555V588.3h5v2.5h2.5v-2.5h7.5v2.5h-7.5v2.5h-2.5v7.5h-5Z"/><path d="M1009.866,589.555V588.3h12.5v2.5h2.5v5h-12.5v2.5h10v2.5h-12.5v-2.5h-2.5v-7.5h2.5Zm10,2.5V590.8h-7.5v2.5h7.5Z"/><path d="M1039.866,585.8v-2.5h5v17.5h-15v-2.5h-2.5v-7.5h2.5v-2.5h10Zm0,8.75V590.8h-7.5v7.5h7.5Z"/><path d="M1074.866,585.8v-2.5h5v5h5v2.5h-5v10h-5v-10h-5v-2.5h5Z"/><path d="M1087.366,592.055V583.3h5v5h10v2.5h2.5v10h-5v-10h-7.5v10h-5Z"/><path d="M1109.866,589.555V588.3h12.5v2.5h2.5v5h-12.5v2.5h10v2.5h-12.5v-2.5h-2.5v-7.5h2.5Zm10,2.5V590.8h-7.5v2.5h7.5Z"/><path d="M1149.866,589.555V588.3h12.5v2.5h-10v2.5h10v2.5h2.5v2.5h-2.5v2.5h-15v-2.5h12.5v-2.5h-10v-2.5h-2.5v-2.5h2.5Z"/><path d="M1169.866,589.555V588.3h12.5v2.5h2.5v10h-15v-2.5h-2.5v-2.5h2.5v-2.5h10v-2.5h-10Zm10,7.5V595.8h-7.5v2.5h7.5Z"/><path d="M1187.366,594.555V588.3h15v2.5h2.5v10h-5v-10h-2.5v10h-5v-10h-2.5v10h-2.5Z"/><path d="M1209.866,589.555V588.3h12.5v2.5h2.5v5h-12.5v2.5h10v2.5h-12.5v-2.5h-2.5v-7.5h2.5Zm10,2.5V590.8h-7.5v2.5h7.5Z"/><path d="M1247.366,593.3v-5h2.5v10h2.5v-10h5v10h2.5v-10h5v12.5h-15v-2.5h-2.5Z"/><path d="M1269.866,589.555V588.3h12.5v2.5h2.5v10h-15v-2.5h-2.5v-2.5h2.5v-2.5h10v-2.5h-10Zm10,7.5V595.8h-7.5v2.5h7.5Z"/><path d="M1287.366,592.055V588.3h5v7.5h7.5v-7.5h5v12.5h-2.5v2.5h-12.5v-2.5h10v-2.5h-10v-2.5h-2.5Z"/><path d="M1312.366,598.3v-2.5h5v5h-5Z"/><path d="M447.366,622.055V613.3h5v7.5h2.5v-2.5h2.5v2.5h2.5v-7.5h5v17.5h-5v-2.5h-2.5v-2.5h-2.5v2.5h-2.5v2.5h-5Z"/><path d="M472.366,619.555V618.3h7.5v10h5v2.5h-15v-2.5h5v-7.5h-2.5Zm2.5-5V613.3h5v2.5h-5Z"/><path d="M487.366,624.555V618.3h15v2.5h2.5v10h-5v-10h-7.5v10h-5Z"/><path d="M527.366,620.8v-7.5h5v5h10v2.5h2.5v7.5h-2.5v2.5h-12.5v-2.5h-2.5Zm12.5,3.75V620.8h-7.5v7.5h7.5Z"/><path d="M547.366,622.055V618.3h5v7.5h7.5v-7.5h5v12.5h-2.5v2.5h-12.5v-2.5h10v-2.5h-10v-2.5h-2.5Z"/><path d="M589.866,619.555V618.3h12.5v2.5h-10v2.5h10v2.5h2.5v2.5h-2.5v2.5h-15v-2.5h12.5v-2.5h-10v-2.5h-2.5v-2.5h2.5Z"/><path d="M609.866,619.555V618.3h15v2.5h-12.5v7.5h12.5v2.5h-15v-2.5h-2.5v-7.5h2.5Z"/><path d="M629.866,619.555V618.3h12.5v2.5h2.5v7.5h-2.5v2.5h-12.5v-2.5h-2.5v-7.5h2.5Zm10,5V620.8h-7.5v7.5h7.5Z"/><path d="M649.866,624.555V618.3h5v2.5h2.5v-2.5h7.5v2.5h-7.5v2.5h-2.5v7.5h-5Z"/><path d="M672.366,619.555V618.3h7.5v10h5v2.5h-15v-2.5h5v-7.5h-2.5Zm2.5-5V613.3h5v2.5h-5Z"/><path d="M687.366,624.555V618.3h15v2.5h2.5v10h-5v-10h-7.5v10h-5Z"/><path d="M709.866,619.555V618.3h15v12.5h-2.5v2.5h-12.5v-2.5h10v-2.5h-10v-2.5h-2.5v-5h2.5Zm10,3.75v-2.5h-7.5v5h7.5Z"/><path d="M754.866,614.555V613.3h5v15h5v2.5h-15v-2.5h5v-10h-2.5v-2.5h2.5Z"/><path d="M772.366,614.555V613.3h7.5v2.5h2.5v2.5h2.5v7.5h-2.5v2.5h-2.5v2.5h-7.5v-2.5h-2.5v-2.5h-2.5v-7.5h2.5v-2.5h2.5Zm5,2.5V615.8h-5v10h2.5v2.5h5v-10h-2.5Z"/><path d="M809.866,619.555V618.3h12.5v2.5h-10v2.5h10v2.5h2.5v2.5h-2.5v2.5h-15v-2.5h12.5v-2.5h-10v-2.5h-2.5v-2.5h2.5Z"/><path d="M827.366,623.3v-5h2.5v10h2.5v-10h5v10h2.5v-10h5v12.5h-15v-2.5h-2.5Z"/><path d="M849.866,619.555V618.3h12.5v2.5h2.5v5h-12.5v2.5h10v2.5h-12.5v-2.5h-2.5v-7.5h2.5Zm10,2.5V620.8h-7.5v2.5h7.5Z"/><path d="M869.866,619.555V618.3h12.5v2.5h2.5v5h-12.5v2.5h10v2.5h-12.5v-2.5h-2.5v-7.5h2.5Zm10,2.5V620.8h-7.5v2.5h7.5Z"/><path d="M894.866,615.8v-2.5h5v5h5v2.5h-5v10h-5v-10h-5v-2.5h5Z"/><path d="M927.366,624.555V618.3h15v2.5h2.5v10h-5v-10h-7.5v10h-5Z"/><path d="M952.366,619.555V618.3h7.5v10h5v2.5h-15v-2.5h5v-7.5h-2.5Zm2.5-5V613.3h5v2.5h-5Z"/><path d="M967.366,624.555V618.3h15v2.5h2.5v10h-5v-10h-7.5v10h-5Z"/><path d="M994.866,619.555V618.3h7.5v12.5h-2.5v2.5h-10v-2.5h7.5v-10h-2.5Zm2.5-5V613.3h5v2.5h-5Z"/><path d="M1009.866,619.555V618.3h12.5v2.5h2.5v10h-15v-2.5h-2.5v-2.5h2.5v-2.5h10v-2.5h-10Zm10,7.5V625.8h-7.5v2.5h7.5Z"/><path d="M1047.366,625.8v-7.5h15v2.5h2.5v5h-2.5v2.5h-10v5h-5Zm12.5-2.5v-2.5h-7.5v5h7.5Z"/><path d="M1069.866,619.555V618.3h12.5v2.5h2.5v7.5h-2.5v2.5h-12.5v-2.5h-2.5v-7.5h2.5Zm10,5V620.8h-7.5v7.5h7.5Z"/><path d="M1092.366,619.555V618.3h7.5v10h5v2.5h-15v-2.5h5v-7.5h-2.5Zm2.5-5V613.3h5v2.5h-5Z"/><path d="M1107.366,624.555V618.3h15v2.5h2.5v10h-5v-10h-7.5v10h-5Z"/><path d="M1134.866,615.8v-2.5h5v5h5v2.5h-5v10h-5v-10h-5v-2.5h5Z"/><path d="M1149.866,619.555V618.3h12.5v2.5h-10v2.5h10v2.5h2.5v2.5h-2.5v2.5h-15v-2.5h12.5v-2.5h-10v-2.5h-2.5v-2.5h2.5Z"/><path d="M1172.366,628.3v-2.5h5v5h-5Z"/><path d="M681.966,254.555v-1.25h12.5v2.5h2.5v5h-2.5v2.5h-2.5v2.5h-5v2.5h10v2.5h-17.5v-5h2.5v-2.5h2.5v-2.5h5v-2.5h2.5v-2.5h-7.5v2.5h-5v-2.5h2.5Z"/><path d="M681.966,164.555v-1.25h12.5v2.5h2.5v10h-2.5v2.5h2.5v2.5h-2.5v-2.5h-2.5v2.5h-10v-2.5h-2.5v-12.5h2.5Zm10,5v-3.75h-7.5v12.5h5v-2.5h-2.5v-2.5h5Z"/><path d="M679.466,198.305v-5h5v7.5h2.5v2.5h2.5v-2.5h2.5v-7.5h5v10h-2.5v2.5h-2.5v2.5h-2.5v2.5h-2.5v-2.5h-2.5v-2.5h-2.5v-2.5h-2.5Z"/><path d="M649.466,139.555v-1.25h17.5v2.5h-17.5Zm0,5v-1.25h17.5v2.5h-17.5Z"/><path d="M669.466,139.555v-1.25h17.5v2.5h-17.5Zm0,5v-1.25h17.5v2.5h-17.5Z"/><path d="M689.466,139.555v-1.25h17.5v2.5h-17.5Zm0,5v-1.25h17.5v2.5h-17.5Z"/><path d="M709.466,139.555v-1.25h17.5v2.5h-17.5Zm0,5v-1.25h17.5v2.5h-17.5Z"/><path d="M650.716,112.055v-8.75h5v15h10v2.5h-15Z"/><path d="M670.716,109.555v-1.25h12.5v2.5h2.5v5h-12.5v2.5h10v2.5h-12.5v-2.5h-2.5v-7.5h2.5Zm10,2.5v-1.25h-7.5v2.5h7.5Z"/><path d="M698.216,104.555v-1.25h7.5v2.5h-5v2.5h5v2.5h-5v10h-5v-10h-5v-2.5h5v-2.5h2.5Z"/><path d="M715.716,105.805v-2.5h5v5h5v2.5h-5v10h-5v-10h-5v-2.5h5Z"/><path d="M600.716,232.055v-8.75h5v15h10v2.5h-15Z"/><path d="M620.716,229.555v-1.25h12.5v2.5h2.5v5h-12.5v2.5h10v2.5h-12.5v-2.5h-2.5v-7.5h2.5Zm10,2.5v-1.25h-7.5v2.5h7.5Z"/><path d="M648.216,224.555v-1.25h7.5v2.5h-5v2.5h5v2.5h-5v10h-5v-10h-5v-2.5h5v-2.5h2.5Z"/><path d="M665.716,225.805v-2.5h5v5h5v2.5h-5v10h-5v-10h-5v-2.5h5Z"/><path d="M683.216,224.555v-1.25h7.5v2.5h2.5v2.5h2.5v12.5h-5v-5h-7.5v5h-5v-12.5h2.5v-2.5h2.5Zm5,2.5v-1.25h-2.5v2.5h-2.5v5h7.5v-5h-2.5Z"/><path d="M700.716,234.555v-6.25h5v2.5h2.5v-2.5h7.5v2.5h-7.5v2.5h-2.5v7.5h-5Z"/><path d="M720.716,234.555v-6.25h5v2.5h2.5v-2.5h7.5v2.5h-7.5v2.5h-2.5v7.5h-5Z"/><path d="M740.716,229.555v-1.25h12.5v2.5h2.5v7.5h-2.5v2.5h-12.5v-2.5h-2.5v-7.5h2.5Zm10,5v-3.75h-7.5v7.5h7.5Z"/><path d="M758.216,233.305v-5h2.5v10h2.5v-10h5v10h2.5v-10h5v12.5h-15v-2.5h-2.5Z"/><path d="M826.491,104.555v-1.25h5v2.5h-2.5v2.5h-2.5v7.5h2.5v2.5h2.5v2.5h-5v-2.5h-2.5v-2.5h-2.5v-7.5h2.5v-2.5h2.5Z"/><path d="M836.491,112.055v-8.75h12.5v2.5h2.5v2.5h2.5v7.5h-2.5v2.5h-2.5v2.5h-12.5Zm10-5v-1.25h-5v12.5h5v-2.5h2.5v-7.5h-2.5Z"/><path d="M858.991,109.555v-1.25h12.5v2.5h2.5v7.5h-2.5v2.5h-12.5v-2.5h-2.5v-7.5h2.5Zm10,5v-3.75h-7.5v7.5h7.5Z"/><path d="M876.491,113.305v-5h5v10h7.5v-10h5v12.5h-15v-2.5h-2.5Z"/><path d="M896.491,110.805v-7.5h5v5h10v2.5h2.5v7.5h-2.5v2.5h-12.5v-2.5h-2.5Zm12.5,3.75v-3.75h-7.5v7.5h7.5Z"/><path d="M921.491,104.555v-1.25h7.5v15h5v2.5h-15v-2.5h5v-12.5h-2.5Z"/><path d="M938.991,109.555v-1.25h12.5v2.5h2.5v5h-12.5v2.5h10v2.5h-12.5v-2.5h-2.5v-7.5h2.5Zm10,2.5v-1.25h-7.5v2.5h7.5Z"/><path d="M958.991,104.555v-1.25h5v2.5h2.5v2.5h2.5v7.5h-2.5v2.5h-2.5v2.5h-5v-2.5h2.5v-2.5h2.5v-7.5h-2.5v-2.5h-2.5Z"/><path d="M1008.991,110.805v-7.5h5v15h-2.5v2.5h-12.5v-2.5h-2.5v-2.5h5v2.5h7.5Z"/><path d="M1016.491,113.305v-5h5v10h7.5v-10h5v12.5h-15v-2.5h-2.5Z"/><path d="M1036.491,114.555v-6.25h15v2.5h2.5v10h-5v-10h-2.5v10h-5v-10h-2.5v10h-2.5Z"/><path d="M1056.491,115.805v-7.5h15v2.5h2.5v5h-2.5v2.5h-10v5h-5Zm12.5-2.5v-2.5h-7.5v5h7.5Z"/><path d="M818.991,139.555v-1.25h17.5v2.5h-17.5Zm0,5v-1.25h17.5v2.5h-17.5Z"/><path d="M838.991,139.555v-1.25h17.5v2.5h-17.5Zm0,5v-1.25h17.5v2.5h-17.5Z"/><path d="M858.991,139.555v-1.25h17.5v2.5h-17.5Zm0,5v-1.25h17.5v2.5h-17.5Z"/><path d="M878.991,139.555v-1.25h17.5v2.5h-17.5Zm0,5v-1.25h17.5v2.5h-17.5Z"/><path d="M898.991,139.555v-1.25h17.5v2.5h-17.5Zm0,5v-1.25h17.5v2.5h-17.5Z"/><path d="M918.991,139.555v-1.25h17.5v2.5h-17.5Zm0,5v-1.25h17.5v2.5h-17.5Z"/><path d="M938.991,139.555v-1.25h17.5v2.5h-17.5Zm0,5v-1.25h17.5v2.5h-17.5Z"/><path d="M958.991,139.555v-1.25h17.5v2.5h-17.5Zm0,5v-1.25h17.5v2.5h-17.5Z"/><path d="M978.991,139.555v-1.25h17.5v2.5h-17.5Zm0,5v-1.25h17.5v2.5h-17.5Z"/><path d="M998.991,139.555v-1.25h17.5v2.5h-17.5Zm0,5v-1.25h17.5v2.5h-17.5Z"/><path d="M1018.991,139.555v-1.25h17.5v2.5h-17.5Zm0,5v-1.25h17.5v2.5h-17.5Z"/><path d="M1038.991,139.555v-1.25h17.5v2.5h-17.5Zm0,5v-1.25h17.5v2.5h-17.5Z"/><path d="M1058.991,139.555v-1.25h17.5v2.5h-17.5Zm0,5v-1.25h17.5v2.5h-17.5Z"/><path d="M941.491,164.555v-1.25h10v2.5h2.5v2.5h-5v-2.5h-5v5h10v2.5h2.5v5h-2.5v2.5h-12.5v-2.5h-2.5v-2.5h5v2.5h7.5v-5h-10v-2.5h-2.5v-5h2.5Z"/><path d="M943.991,194.555v-1.25h12.5v2.5h-10v2.5h-2.5v7.5h2.5v2.5h5v-5h-2.5v-2.5h7.5v10h-12.5v-2.5h-2.5v-2.5h-2.5v-7.5h2.5v-2.5h2.5Z"/><path d="M946.491,254.555v-1.25h7.5v10h2.5v2.5h-2.5v5h-5v-5h-10v-5h2.5v-2.5h2.5v-2.5h2.5Zm2.5,6.25v-2.5h-2.5v2.5h-2.5v2.5h5Z"/><path d="M878.991,230.805v-7.5h5v15h7.5v-15h5v15h-2.5v2.5h-12.5v-2.5h-2.5Z"/><path d="M898.991,235.805v-7.5h15v2.5h2.5v5h-2.5v2.5h-10v5h-5Zm12.5-2.5v-2.5h-7.5v5h7.5Z"/><path d="M923.991,224.555v-1.25h7.5v2.5h2.5v2.5h2.5v12.5h-5v-5h-7.5v5h-5v-12.5h2.5v-2.5h2.5Zm5,2.5v-1.25h-2.5v2.5h-2.5v5h7.5v-5h-2.5Z"/><path d="M941.491,234.555v-6.25h5v2.5h2.5v-2.5h7.5v2.5h-7.5v2.5h-2.5v7.5h-5Z"/><path d="M961.491,234.555v-6.25h5v2.5h2.5v-2.5h7.5v2.5h-7.5v2.5h-2.5v7.5h-5Z"/><path d="M981.491,229.555v-1.25h12.5v2.5h2.5v7.5h-2.5v2.5h-12.5v-2.5h-2.5v-7.5h2.5Zm10,5v-3.75h-7.5v7.5h7.5Z"/><path d="M998.991,233.305v-5h2.5v10h2.5v-10h5v10h2.5v-10h5v12.5h-15v-2.5h-2.5Z"/><path d="M1197.866,112.055v-8.75h15v2.5h2.5v7.5h-5v2.5h2.5v2.5h2.5v2.5h-7.5v-2.5h-2.5v-2.5h-2.5v5h-5Zm12.5-3.75v-2.5h-7.5v7.5h5v-2.5h2.5Z"/><path d="M1222.866,109.555v-1.25h7.5v10h5v2.5h-15v-2.5h5v-7.5h-2.5Zm2.5-5v-1.25h5v2.5h-5Z"/><path d="M1240.366,109.555v-1.25h15v12.5h-2.5v2.5h-12.5v-2.5h10v-2.5h-10v-2.5h-2.5v-5h2.5Zm10,3.75v-2.5h-7.5v5h7.5Z"/><path d="M1257.866,112.055v-8.75h5v5h10v2.5h2.5v10h-5v-10h-7.5v10h-5Z"/><path d="M1285.366,105.805v-2.5h5v5h5v2.5h-5v10h-5v-10h-5v-2.5h5Z"/><path d="M1197.866,139.555v-1.25h17.5v2.5h-17.5Zm0,5v-1.25h17.5v2.5h-17.5Z"/><path d="M1217.866,139.555v-1.25h17.5v2.5h-17.5Zm0,5v-1.25h17.5v2.5h-17.5Z"/><path d="M1237.866,139.555v-1.25h17.5v2.5h-17.5Zm0,5v-1.25h17.5v2.5h-17.5Z"/><path d="M1257.866,139.555v-1.25h17.5v2.5h-17.5Zm0,5v-1.25h17.5v2.5h-17.5Z"/><path d="M1277.866,139.555v-1.25h17.5v2.5h-17.5Zm0,5v-1.25h17.5v2.5h-17.5Z"/><path d="M1239.866,164.25V163h17.5v5h-2.5v2.5h-2.5V173h-2.5v2.5h-2.5V178h10v2.5h-17.5v-5h2.5V173h2.5v-2.5h2.5V168h2.5v-2.5h-10Z"/><path d="M1239.866,201.75V193h5v2.5h2.5V198h2.5v2.5h2.5V193h5v17.5h-5V208h-2.5v-2.5h-2.5V203h-2.5v7.5h-5Z"/><path d="M1132.366,232.055v-8.75h15v2.5h2.5v7.5h-5v2.5h2.5v2.5h2.5v2.5h-7.5v-2.5h-2.5v-2.5h-2.5v5h-5Zm12.5-3.75v-2.5h-7.5v7.5h5v-2.5h2.5Z"/><path d="M1157.366,229.555v-1.25h7.5v10h5v2.5h-15v-2.5h5v-7.5h-2.5Zm2.5-5v-1.25h5v2.5h-5Z"/><path d="M1174.866,229.555v-1.25h15v12.5h-2.5v2.5h-12.5v-2.5h10v-2.5h-10v-2.5h-2.5v-5h2.5Zm10,3.75v-2.5h-7.5v5h7.5Z"/><path d="M1192.366,232.055v-8.75h5v5h10v2.5h2.5v10h-5v-10h-7.5v10h-5Z"/><path d="M1219.866,225.805v-2.5h5v5h5v2.5h-5v10h-5v-10h-5v-2.5h5Z"/><path d="M1237.366,224.555v-1.25h7.5v2.5h2.5v2.5h2.5v12.5h-5v-5h-7.5v5h-5v-12.5h2.5v-2.5h2.5Zm5,2.5v-1.25h-2.5v2.5h-2.5v5h7.5v-5h-2.5Z"/><path d="M1254.866,234.555v-6.25h5v2.5h2.5v-2.5h7.5v2.5h-7.5v2.5h-2.5v7.5h-5Z"/><path d="M1274.866,234.555v-6.25h5v2.5h2.5v-2.5h7.5v2.5h-7.5v2.5h-2.5v7.5h-5Z"/><path d="M1294.866,229.555v-1.25h12.5v2.5h2.5v7.5h-2.5v2.5h-12.5v-2.5h-2.5v-7.5h2.5Zm10,5v-3.75h-7.5v7.5h7.5Z"/><path d="M1312.366,233.305v-5h2.5v10h2.5v-10h5v10h2.5v-10h5v12.5h-15v-2.5h-2.5Z"/><path d="M1242.866,254.555v-1.25h10v2.5h2.5v5h-2.5v2.5h5v5h-2.5v2.5h-12.5v-2.5h-2.5v-5h2.5v-2.5h-2.5v-5h2.5Zm5,10v-1.25h-5v5h10v-2.5h-5Zm5-6.25v-2.5h-7.5v2.5h2.5v2.5h5Z"/><path d="M1304.366,254.555v-1.25h5v2.5h-2.5v2.5h-2.5v7.5h2.5v2.5h2.5v2.5h-5v-2.5h-2.5v-2.5h-2.5v-7.5h2.5v-2.5h2.5Z"/><path d="M1314.366,262.055v-8.75h5v2.5h2.5v2.5h2.5v2.5h2.5v-7.5h5v17.5h-5v-2.5h-2.5v-2.5h-2.5v-2.5h-2.5v7.5h-5Z"/><path d="M1334.366,263.305v-5h5v10h7.5v-10h5v12.5h-15v-2.5h-2.5Z"/><path d="M1354.366,264.555v-6.25h15v2.5h2.5v10h-5v-10h-2.5v10h-5v-10h-2.5v10h-2.5Z"/><path d="M1376.866,262.055v-8.75h5v15h10v2.5h-15Z"/><path d="M1396.866,259.555v-1.25h12.5v2.5h2.5v7.5h-2.5v2.5h-12.5v-2.5h-2.5v-7.5h2.5Zm10,5v-3.75h-7.5v7.5h7.5Z"/><path d="M1416.866,259.555v-1.25h15v2.5h-12.5v7.5h12.5v2.5h-15v-2.5h-2.5v-7.5h2.5Z"/><path d="M1434.366,262.055v-8.75h5v7.5h5v-2.5h7.5v2.5h-2.5v2.5h-2.5v2.5h2.5v2.5h2.5v2.5h-7.5v-2.5h-2.5v-2.5h-2.5v5h-5Z"/><path d="M1476.866,259.555v-1.25h12.5v2.5h2.5v7.5h-2.5v2.5h-12.5v-2.5h-2.5v-7.5h2.5Zm10,5v-3.75h-7.5v7.5h7.5Z"/><path d="M1494.366,264.555v-6.25h15v2.5h2.5v10h-5v-10h-7.5v10h-5Z"/><path d="M1516.866,254.555v-1.25h5v2.5h2.5v2.5h2.5v7.5h-2.5v2.5h-2.5v2.5h-5v-2.5h2.5v-2.5h2.5v-7.5h-2.5v-2.5h-2.5Z"/></svg>