<svg xmlns="http://www.w3.org/2000/svg" viewBox="0 0 174 219"><g><defs><style>.a{fill:#e46167;}.b,.f{fill:#fff;}.c{fill:#4b3b6d;}.d,.e{fill:none;stroke:#4b3b6d;}.d{stroke-linejoin:round;stroke-width:1.516px;}.e{stroke-miterlimit:10;stroke-width:0.758px;}.f{font-size:27.285px;font-family:PressStart2P, "Press Start 2P";}</style></defs><title>FNFF</title><path class="a" d="M149.282,157.271a3.06,3.06,0,0,0-3.681,2.155c-.1.352-2.612,8.634-20.421,8.634h-18.8a8.493,8.493,0,0,0,2.156-5.739v-7.6c0-.108-.023-.209-.027-.317h22.728c-2.167,0-11.244-14.89-14.839-20.933V125.6l0-.017v-10.3a.379.379,0,0,1,.758,0V128h2.542a7.792,7.792,0,0,0,7.77-7.77V100.18a7.792,7.792,0,0,0-7.77-7.77H108.511a31.256,31.256,0,1,0-36.414,0H60.923a7.793,7.793,0,0,0-7.77,7.77v20.045a7.793,7.793,0,0,0,7.77,7.77h1.87V115.286a.379.379,0,0,1,.758,0V128h.036v4.589c-3.136,5.3-13.084,21.821-15.367,21.821H70.949c0,.108-.028.209-.028.317v7.6a8.5,8.5,0,0,0,2.156,5.739H55.419c-17.689,0-20.289-8.169-20.419-8.625a3.032,3.032,0,0,0-5.893,1.43c.127.542,3.361,13.259,26.312,13.259H125.18c22.95,0,26.185-12.717,26.311-13.259A3,3,0,0,0,149.282,157.271ZM93.6,168.06H82.125a8.5,8.5,0,0,0,2.156-5.739v-7.6c0-.108-.024-.209-.027-.317H95.2c0,.108-.027.209-.027.317v7.6a8.493,8.493,0,0,0,2.156,5.739Z"/><rect class="b" x="63.551" y="126.904" width="52.845" height="5.053"/><circle class="b" cx="88.783" cy="66.67" r="23.031"/><circle class="c" cx="80.558" cy="62.67" r="2.257"/><circle class="c" cx="97.008" cy="62.67" r="2.257"/><line class="d" x1="79.352" y1="72.422" x2="97.248" y2="72.422"/><path class="a" d="M104.571,67.98c-.647,1.01-2.536,3.632-3.649,1.793l-.01.005c-.019-.037-.031-.071-.046-.107s-.038-.064-.057-.1l.01,0c-.775-2,2.455-1.9,3.65-1.793l.22.021Z"/><path class="a" d="M104.381,75.9c-1.2,0-4.427-.166-3.483-2.1l-.01,0c.021-.036.043-.064.064-.1s.034-.066.055-.1l.01.006c1.266-1.738,2.924,1.036,3.484,2.1l.1.2Z"/><path class="a" d="M70.5,67.98c.647,1.01,2.536,3.632,3.65,1.793l.01.005c.018-.037.03-.071.046-.107s.037-.064.056-.1l-.01,0c.775-2-2.454-1.9-3.65-1.793l-.22.021Z"/><path class="a" d="M70.692,75.9c1.2,0,4.427-.166,3.484-2.1l.009,0c-.021-.036-.043-.064-.064-.1s-.034-.066-.055-.1l-.01.006c-1.266-1.738-2.924,1.036-3.484,2.1l-.1.2Z"/><line class="e" x1="101.119" y1="52.076" x2="98.605" y2="57.08"/><polyline class="c" points="79.709 71.912 82.542 76.135 85.132 72.275"/><polyline class="c" points="91.825 71.912 94.658 76.135 97.248 72.275"/><text class="f" transform="translate(77.08 125.996)">A</text></g></svg>