<svg xmlns="http://www.w3.org/2000/svg" viewBox="0 0 181 219"><defs><style>.a{fill:#78bc78;}.b,.e{fill:#fff;}.c{fill:#4b3b6d;}.d{fill:#65b22e;}.e{font-size:27.285px;font-family:PressStart2P, "Press Start 2P";}</style></defs><title>FNFF</title><path class="a" d="M154.777,157.61a3.059,3.059,0,0,0-3.681,2.156c-.1.352-2.612,8.634-20.421,8.634h-18.8a8.5,8.5,0,0,0,2.156-5.739v-7.6c0-.109-.024-.21-.028-.317h1.511a6.4,6.4,0,0,0,6.379-6.378V125.941l0-.017v-10.3a.379.379,0,0,1,.758,0v12.709h2.542a7.793,7.793,0,0,0,7.77-7.77V100.519a7.792,7.792,0,0,0-7.77-7.769H114.005a31.256,31.256,0,1,0-36.413,0H66.418a7.792,7.792,0,0,0-7.77,7.769v20.046a7.793,7.793,0,0,0,7.77,7.77h1.87V115.626a.379.379,0,1,1,.757,0v12.709h.036v20.032a6.4,6.4,0,0,0,6.379,6.378h.984c0,.107-.028.208-.028.317v7.6a8.5,8.5,0,0,0,2.156,5.739H60.913c-17.688,0-20.288-8.169-20.419-8.625a3.032,3.032,0,0,0-5.892,1.43c.127.541,3.361,13.259,26.311,13.259h69.762c22.95,0,26.185-12.718,26.311-13.259A3,3,0,0,0,154.777,157.61ZM97.043,168.4H87.62a8.5,8.5,0,0,0,2.156-5.739v-7.6c0-.109-.024-.21-.028-.317H100.7c0,.107-.028.208-.028.317v7.6a8.5,8.5,0,0,0,2.156,5.739H97.043Z"/><ellipse class="b" cx="95.794" cy="67.641" rx="23.495" ry="22.588"/><ellipse class="c" cx="87.403" cy="63.717" rx="2.303" ry="2.214"/><ellipse class="c" cx="104.185" cy="63.717" rx="2.303" ry="2.214"/><path class="d" d="M104.547,56.172c.634,1.007,2.185,3.8,0,3.988v.011c-.042,0-.078,0-.118-.005s-.076.005-.118.005V60.16c-2.185-.184-.634-2.981,0-3.988l.118-.184Z"/><path class="d" d="M96.042,51.712c.634,1.007,2.185,3.8,0,3.988v.011c-.042,0-.079,0-.118-.006s-.076.006-.118.006V55.7c-2.185-.185-.634-2.981,0-3.988l.118-.184Z"/><path class="d" d="M87.537,56.172c.633,1.007,2.185,3.8,0,3.988v.011c-.042,0-.079,0-.119-.005s-.076.005-.118.005V60.16c-2.185-.184-.634-2.981,0-3.988l.118-.184Z"/><path class="d" d="M112.052,63.831c-1.048.609-3.957,2.1-4.149,0h-.011c0-.04,0-.075.006-.114s-.006-.073-.006-.113h.011c.192-2.1,3.1-.61,4.149,0l.191.113Z"/><path class="d" d="M78.7,63.831c1.047.609,3.956,2.1,4.148,0h.011c0-.04,0-.075-.005-.114s.005-.073.005-.113H82.85c-.192-2.1-3.1-.61-4.148,0l-.192.113Z"/><path class="b" d="M77.273,55.711V50.49l2.743,1.038L78.51,46.754l3.22,2.351s-.343-4.878,0-4.658,5.714,4.372,6.4,4.658-3.03,5.01-3.03,5.01Z"/><path class="b" d="M99.558,47.853c.229-.33,2.324-4.615,2.324-4.615l2.547,2.308,2.557-2.308-.5,3.516,3.581-.879,2.175,9.017-11.657-3.853Z"/><rect class="b" x="69.099" y="127.793" width="53.39" height="5.053"/><text class="e" transform="translate(82.01 126.887) scale(1.01 1)">R</text></svg>