<svg xmlns="http://www.w3.org/2000/svg" viewBox="0 0 181 219"><defs><style>.a{fill:#c47ec2;}.b,.d{fill:#fff;}.c{fill:#4b3b6d;}.d{font-size:27.285px;font-family:PressStart2P, "Press Start 2P";}</style></defs><title>FNFF</title><path class="a" d="M149.285,162.208a3.058,3.058,0,0,0-3.68,2.156c-.1.352-2.612,8.634-20.422,8.634h-18.8a8.493,8.493,0,0,0,2.156-5.739v-7.6c0-.109-.023-.21-.027-.317h1.511a6.4,6.4,0,0,0,6.378-6.378V120.224a.379.379,0,0,1,.758,0v12.709H119.7a7.793,7.793,0,0,0,7.77-7.77V105.117a7.793,7.793,0,0,0-7.77-7.769H108.514a31.256,31.256,0,1,0-36.414,0H60.926a7.792,7.792,0,0,0-7.769,7.769v20.046a7.793,7.793,0,0,0,7.769,7.77H62.8V120.224a.379.379,0,1,1,.758,0v12.709h.036v20.032a6.4,6.4,0,0,0,6.378,6.378h.984c0,.107-.027.208-.027.317v7.6A8.493,8.493,0,0,0,73.081,173H55.422c-17.689,0-20.289-8.169-20.419-8.625a3.032,3.032,0,0,0-5.892,1.43c.126.541,3.361,13.259,26.311,13.259h69.761c22.951,0,26.185-12.718,26.312-13.259A3.005,3.005,0,0,0,149.285,162.208ZM91.552,173H82.128a8.493,8.493,0,0,0,2.156-5.739v-7.6c0-.109-.023-.21-.027-.317H95.205c0,.107-.027.208-.027.317v7.6A8.493,8.493,0,0,0,97.334,173H91.552Z"/><ellipse class="b" cx="90.025" cy="71.679" rx="23.495" ry="22.55"/><ellipse class="c" cx="81.634" cy="67.762" rx="2.303" ry="2.21"/><ellipse class="c" cx="98.416" cy="67.762" rx="2.303" ry="2.21"/><path class="c" d="M99.675,76.1a9.658,9.658,0,0,1-19.3,0Z"/><path class="a" d="M98.778,60.229c.634,1.005,2.185,3.8,0,3.982v.01c-.042,0-.078,0-.118-.005s-.076.005-.118.005v-.01c-2.185-.185-.634-2.977,0-3.982l.118-.184Z"/><path class="a" d="M81.768,60.229c.634,1.005,2.185,3.8,0,3.982v.01c-.042,0-.078,0-.118-.005s-.076.005-.118.005v-.01c-2.185-.185-.634-2.977,0-3.982l.118-.184Z"/><path class="a" d="M81.532,74.427c-.634-1.006-2.185-3.8,0-3.982v-.011c.042,0,.078,0,.118.006s.076-.006.118-.006v.011c2.185.185.634,2.976,0,3.982l-.118.184Z"/><path class="a" d="M98.542,74.427c-.634-1.006-2.185-3.8,0-3.982v-.011c.042,0,.079,0,.118.006s.076-.006.118-.006v.011c2.185.185.634,2.976,0,3.982l-.118.184Z"/><rect class="b" x="63.706" y="131.793" width="52.845" height="5.053"/><text class="d" transform="translate(77.236 130.886)">M</text></svg>