<svg xmlns="http://www.w3.org/2000/svg" viewBox="0 0 181 219"><defs><style>.a{fill:#48baec;}.b,.d{fill:#fff;}.c{fill:#4b3b6d;}.d{font-size:27.285px;font-family:PressStart2P, "Press Start 2P";}</style></defs><title>FNFF</title><path class="a" d="M149.725,151.208a3.059,3.059,0,0,0-3.681,2.156c-.1.352-2.612,8.634-20.421,8.634h-18.8a8.493,8.493,0,0,0,2.156-5.739v-7.6c0-.109-.023-.21-.027-.317h22.729c-2.168,0-11.245-14.89-14.84-20.933v-7.871l0-.017v-10.3a.379.379,0,0,1,.758,0v12.709h2.543a7.793,7.793,0,0,0,7.769-7.77V94.117a7.792,7.792,0,0,0-7.769-7.769H108.954a31.256,31.256,0,1,0-36.414,0H61.366a7.793,7.793,0,0,0-7.77,7.769v20.046a7.793,7.793,0,0,0,7.77,7.77h1.87V109.224a.379.379,0,0,1,.758,0v12.709h.036v4.589c-3.135,5.3-13.084,21.821-15.367,21.821H71.392c0,.107-.027.208-.027.317v7.6A8.5,8.5,0,0,0,73.52,162H55.862c-17.689,0-20.289-8.169-20.419-8.625a3.032,3.032,0,0,0-5.893,1.43c.127.541,3.361,13.259,26.312,13.259h69.761c22.951,0,26.185-12.718,26.312-13.259A3.005,3.005,0,0,0,149.725,151.208ZM94.041,162H82.568a8.493,8.493,0,0,0,2.156-5.739v-7.6c0-.109-.023-.21-.027-.317H95.645c0,.107-.027.208-.027.317v7.6A8.493,8.493,0,0,0,97.774,162Z"/><circle class="b" cx="91.341" cy="60.687" r="23.031"/><circle class="c" cx="83.116" cy="56.687" r="2.257"/><circle class="c" cx="99.566" cy="56.687" r="2.257"/><path class="a" d="M107.282,61.594c-1.012.646-3.826,2.235-4.066.1h-.011c0-.041,0-.077,0-.116s-.007-.075-.008-.116h.011c.136-2.146,3.023-.7,4.065-.1l.191.111Z"/><path class="a" d="M107.282,66.141c-1.012.647-3.826,2.235-4.066.1h-.011c0-.041,0-.077,0-.116s-.007-.074-.008-.115h.011c.136-2.145,3.023-.694,4.065-.1l.191.111Z"/><path class="a" d="M73.068,61.594c1.012.646,3.825,2.235,4.065.1h.011c0-.041,0-.077,0-.116s.007-.075.008-.116h-.011c-.136-2.146-3.024-.7-4.065-.1l-.191.111Z"/><path class="a" d="M73.068,66.141c1.012.647,3.825,2.235,4.065.1h.011c0-.041,0-.077,0-.116s.007-.074.008-.115h-.011c-.136-2.145-3.024-.694-4.065-.1l-.191.111Z"/><circle class="c" cx="91.057" cy="68.478" r="4.796"/><rect class="b" x="63.641" y="120.793" width="52.845" height="5.053"/><text class="d" transform="translate(78.687 119.886)">D</text></svg>