<svg xmlns="http://www.w3.org/2000/svg" viewBox="0 0 1366 768"><defs><style>.a{fill:#e46167;}.b{fill:#c47ec2;}.c{fill:#48baec;}.d{fill:#78bc78;}</style></defs><title>FNFF</title><path d="M486.866,125.555v-1.25h15v2.5h-5v15h-5v-15h-5Z"/><path d="M504.366,133.055v-8.75h5v5h10v2.5h2.5v10h-5v-10h-7.5v10h-5Z"/><path d="M526.866,130.555v-1.25h12.5v2.5h2.5v5h-12.5v2.5h10v2.5h-12.5v-2.5h-2.5v-7.5h2.5Zm10,2.5v-1.25h-7.5v2.5h7.5Z"/><path d="M544.366,135.555v-6.25h15v2.5h2.5v10h-5v-10h-7.5v10h-5Z"/><path d="M586.866,130.555v-1.25h15v2.5h-12.5v7.5h12.5v2.5h-15v-2.5h-2.5v-7.5h2.5Z"/><path d="M606.866,130.555v-1.25h12.5v2.5h2.5v10h-15v-2.5h-2.5v-2.5h2.5v-2.5h10v-2.5h-10Zm10,7.5v-1.25h-7.5v2.5h7.5Z"/><path d="M624.366,135.555v-6.25h15v2.5h2.5v10h-5v-10h-2.5v10h-5v-10h-2.5v10h-2.5Z"/><path d="M646.866,130.555v-1.25h12.5v2.5h2.5v5h-12.5v2.5h10v2.5h-12.5v-2.5h-2.5v-7.5h2.5Zm10,2.5v-1.25h-7.5v2.5h7.5Z"/><path d="M691.866,125.555v-1.25h7.5v10h2.5v2.5h-2.5v5h-5v-5h-10v-5h2.5v-2.5h2.5v-2.5h2.5Zm2.5,6.25v-2.5h-2.5v2.5h-2.5v2.5h5Z"/><path d="M724.366,135.555v-6.25h15v2.5h2.5v10h-5v-10h-7.5v10h-5Z"/><path d="M749.366,130.555v-1.25h7.5v10h5v2.5h-15v-2.5h5v-7.5h-2.5Zm2.5-5v-1.25h5v2.5h-5Z"/><path d="M764.366,135.555v-6.25h15v2.5h2.5v10h-5v-10h-7.5v10h-5Z"/><path d="M791.866,130.555v-1.25h7.5v12.5h-2.5v2.5h-10v-2.5h7.5v-10h-2.5Zm2.5-5v-1.25h5v2.5h-5Z"/><path d="M806.866,130.555v-1.25h12.5v2.5h2.5v10h-15v-2.5h-2.5v-2.5h2.5v-2.5h10v-2.5h-10Zm10,7.5v-1.25h-7.5v2.5h7.5Z"/><path d="M826.866,130.555v-1.25h12.5v2.5h-10v2.5h10v2.5h2.5v2.5h-2.5v2.5h-15v-2.5h12.5v-2.5h-10v-2.5h-2.5v-2.5h2.5Z"/><path d="M849.366,130.555v-6.25h7.5v7.5h-2.5v5h-5Zm0,10v-1.25h5v2.5h-5Z"/><path d="M316.866,149.555v-1.25h15v2.5h-5v15h-5v-15h-5Z"/><path d="M334.366,157.055v-8.75h5v5h10v2.5h2.5v10h-5v-10h-7.5v10h-5Z"/><path d="M356.866,154.555v-1.25h12.5v2.5h2.5v5h-12.5v2.5h10v2.5h-12.5v-2.5h-2.5v-7.5h2.5Zm10,2.5v-1.25h-7.5v2.5h7.5Z"/><path d="M374.366,157.055v-3.75h5v7.5h7.5v-7.5h5v12.5h-2.5v2.5h-12.5v-2.5h10v-2.5h-10v-2.5h-2.5Z"/><path d="M416.866,159.555v-6.25h5v2.5h2.5v-2.5h7.5v2.5h-7.5v2.5h-2.5v7.5h-5Z"/><path d="M436.866,154.555v-1.25h12.5v2.5h2.5v10h-15v-2.5h-2.5v-2.5h2.5v-2.5h10v-2.5h-10Zm10,7.5v-1.25h-7.5v2.5h7.5Z"/><path d="M456.866,154.555v-1.25h15v2.5h-12.5v7.5h12.5v2.5h-15v-2.5h-2.5v-7.5h2.5Z"/><path d="M476.866,154.555v-1.25h12.5v2.5h2.5v5h-12.5v2.5h10v2.5h-12.5v-2.5h-2.5v-7.5h2.5Zm10,2.5v-1.25h-7.5v2.5h7.5Z"/><path d="M506.866,150.805v-2.5h5v17.5h-15v-2.5h-2.5v-7.5h2.5v-2.5h10Zm0,8.75v-3.75h-7.5v7.5h7.5Z"/><path d="M536.866,154.555v-1.25h12.5v2.5h2.5v7.5h-2.5v2.5h-12.5v-2.5h-2.5v-7.5h2.5Zm10,5v-3.75h-7.5v7.5h7.5Z"/><path d="M554.366,159.555v-6.25h15v2.5h2.5v10h-5v-10h-7.5v10h-5Z"/><path d="M594.366,158.305v-5h2.5v10h2.5v-10h5v10h2.5v-10h5v12.5h-15v-2.5h-2.5Z"/><path d="M614.366,157.055v-8.75h5v5h10v2.5h2.5v10h-5v-10h-7.5v10h-5Z"/><path d="M636.866,154.555v-1.25h12.5v2.5h2.5v7.5h-2.5v2.5h-12.5v-2.5h-2.5v-7.5h2.5Zm10,5v-3.75h-7.5v7.5h7.5Z"/><path d="M674.366,158.305v-5h2.5v10h2.5v-10h5v10h2.5v-10h5v12.5h-15v-2.5h-2.5Z"/><path d="M696.866,154.555v-1.25h12.5v2.5h2.5v10h-15v-2.5h-2.5v-2.5h2.5v-2.5h10v-2.5h-10Zm10,7.5v-1.25h-7.5v2.5h7.5Z"/><path d="M716.866,154.555v-1.25h12.5v2.5h-10v2.5h10v2.5h2.5v2.5h-2.5v2.5h-15v-2.5h12.5v-2.5h-10v-2.5h-2.5v-2.5h2.5Z"/><path d="M761.866,150.805v-2.5h5v5h5v2.5h-5v10h-5v-10h-5v-2.5h5Z"/><path d="M774.366,157.055v-8.75h5v5h10v2.5h2.5v10h-5v-10h-7.5v10h-5Z"/><path d="M796.866,154.555v-1.25h12.5v2.5h2.5v5h-12.5v2.5h10v2.5h-12.5v-2.5h-2.5v-7.5h2.5Zm10,2.5v-1.25h-7.5v2.5h7.5Z"/><path d="M834.366,155.805v-7.5h5v5h10v2.5h2.5v7.5h-2.5v2.5h-12.5v-2.5h-2.5Zm12.5,3.75v-3.75h-7.5v7.5h7.5Z"/><path d="M856.866,154.555v-1.25h12.5v2.5h2.5v5h-12.5v2.5h10v2.5h-12.5v-2.5h-2.5v-7.5h2.5Zm10,2.5v-1.25h-7.5v2.5h7.5Z"/><path d="M876.866,154.555v-1.25h12.5v2.5h-10v2.5h10v2.5h2.5v2.5h-2.5v2.5h-15v-2.5h12.5v-2.5h-10v-2.5h-2.5v-2.5h2.5Z"/><path d="M901.866,150.805v-2.5h5v5h5v2.5h-5v10h-5v-10h-5v-2.5h5Z"/><path d="M934.366,159.555v-6.25h15v2.5h2.5v10h-5v-10h-7.5v10h-5Z"/><path d="M959.366,154.555v-1.25h7.5v10h5v2.5h-15v-2.5h5v-7.5h-2.5Zm2.5-5v-1.25h5v2.5h-5Z"/><path d="M974.366,159.555v-6.25h15v2.5h2.5v10h-5v-10h-7.5v10h-5Z"/><path d="M1001.866,154.555v-1.25h7.5v12.5h-2.5v2.5h-10v-2.5h7.5v-10h-2.5Zm2.5-5v-1.25h5v2.5h-5Z"/><path d="M1016.866,154.555v-1.25h12.5v2.5h2.5v10h-15v-2.5h-2.5v-2.5h2.5v-2.5h10v-2.5h-10Zm10,7.5v-1.25h-7.5v2.5h7.5Z"/><path d="M414.366,181.055v-8.75h5v5h10v2.5h2.5v10h-5v-10h-7.5v10h-5Z"/><path d="M436.866,178.555v-1.25h12.5v2.5h2.5v7.5h-2.5v2.5h-12.5v-2.5h-2.5v-7.5h2.5Zm10,5v-3.75h-7.5v7.5h7.5Z"/><path d="M456.866,181.055v-3.75h5v7.5h5v-7.5h5v7.5h-2.5v2.5h-2.5v2.5h-5v-2.5h-2.5v-2.5h-2.5Z"/><path d="M476.866,178.555v-1.25h12.5v2.5h2.5v5h-12.5v2.5h10v2.5h-12.5v-2.5h-2.5v-7.5h2.5Zm10,2.5v-1.25h-7.5v2.5h7.5Z"/><path d="M496.866,183.555v-6.25h5v2.5h2.5v-2.5h7.5v2.5h-7.5v2.5h-2.5v7.5h-5Z"/><path d="M514.366,179.805v-7.5h5v5h10v2.5h2.5v7.5h-2.5v2.5h-12.5v-2.5h-2.5Zm12.5,3.75v-3.75h-7.5v7.5h7.5Z"/><path d="M536.866,178.555v-1.25h12.5v2.5h2.5v7.5h-2.5v2.5h-12.5v-2.5h-2.5v-7.5h2.5Zm10,5v-3.75h-7.5v7.5h7.5Z"/><path d="M556.866,178.555v-1.25h12.5v2.5h2.5v10h-15v-2.5h-2.5v-2.5h2.5v-2.5h10v-2.5h-10Zm10,7.5v-1.25h-7.5v2.5h7.5Z"/><path d="M576.866,183.555v-6.25h5v2.5h2.5v-2.5h7.5v2.5h-7.5v2.5h-2.5v7.5h-5Z"/><path d="M606.866,174.805v-2.5h5v17.5h-15v-2.5h-2.5v-7.5h2.5v-2.5h10Zm0,8.75v-3.75h-7.5v7.5h7.5Z"/><path d="M616.866,178.555v-1.25h12.5v2.5h2.5v5h-12.5v2.5h10v2.5h-12.5v-2.5h-2.5v-7.5h2.5Zm10,2.5v-1.25h-7.5v2.5h7.5Z"/><path d="M636.866,183.555v-6.25h5v2.5h2.5v-2.5h7.5v2.5h-7.5v2.5h-2.5v7.5h-5Z"/><path d="M679.366,178.555v-1.25h7.5v10h5v2.5h-15v-2.5h5v-7.5h-2.5Zm2.5-5v-1.25h5v2.5h-5Z"/><path d="M694.366,183.555v-6.25h15v2.5h2.5v10h-5v-10h-7.5v10h-5Z"/><path d="M741.866,174.805v-2.5h5v5h5v2.5h-5v10h-5v-10h-5v-2.5h5Z"/><path d="M754.366,181.055v-8.75h5v5h10v2.5h2.5v10h-5v-10h-7.5v10h-5Z"/><path d="M776.866,178.555v-1.25h12.5v2.5h2.5v5h-12.5v2.5h10v2.5h-12.5v-2.5h-2.5v-7.5h2.5Zm10,2.5v-1.25h-7.5v2.5h7.5Z"/><path d="M814.366,182.305v-5h2.5v10h2.5v-10h5v10h2.5v-10h5v12.5h-15v-2.5h-2.5Z"/><path d="M836.866,178.555v-1.25h12.5v2.5h2.5v7.5h-2.5v2.5h-12.5v-2.5h-2.5v-7.5h2.5Zm10,5v-3.75h-7.5v7.5h7.5Z"/><path d="M856.866,183.555v-6.25h5v2.5h2.5v-2.5h7.5v2.5h-7.5v2.5h-2.5v7.5h-5Z"/><path d="M879.366,173.555v-1.25h7.5v15h5v2.5h-15v-2.5h5v-12.5h-2.5Z"/><path d="M906.866,174.805v-2.5h5v17.5h-15v-2.5h-2.5v-7.5h2.5v-2.5h10Zm0,8.75v-3.75h-7.5v7.5h7.5Z"/><path d="M919.366,187.305v-2.5h5v5h-5Z"/><path d="M489.366,235.555v-1.25h10v2.5h2.5v2.5h-5v-2.5h-5v2.5h-2.5v7.5h2.5v2.5h5v-2.5h5v2.5h-2.5v2.5h-10v-2.5h-2.5v-2.5h-2.5v-7.5h2.5v-2.5h2.5Z"/><path d="M504.366,243.055v-8.75h5v5h10v2.5h2.5v10h-5v-10h-7.5v10h-5Z"/><path d="M526.866,240.555v-1.25h12.5v2.5h2.5v7.5h-2.5v2.5h-12.5v-2.5h-2.5v-7.5h2.5Zm10,5v-3.75h-7.5v7.5h7.5Z"/><path d="M546.866,240.555v-1.25h12.5v2.5h2.5v7.5h-2.5v2.5h-12.5v-2.5h-2.5v-7.5h2.5Zm10,5v-3.75h-7.5v7.5h7.5Z"/><path d="M566.866,240.555v-1.25h12.5v2.5h-10v2.5h10v2.5h2.5v2.5h-2.5v2.5h-15v-2.5h12.5v-2.5h-10v-2.5h-2.5v-2.5h2.5Z"/><path d="M586.866,240.555v-1.25h12.5v2.5h2.5v5h-12.5v2.5h10v2.5h-12.5v-2.5h-2.5v-7.5h2.5Zm10,2.5v-1.25h-7.5v2.5h7.5Z"/><path d="M624.366,243.055v-3.75h5v7.5h7.5v-7.5h5v12.5h-2.5v2.5h-12.5v-2.5h10v-2.5h-10v-2.5h-2.5Z"/><path d="M646.866,240.555v-1.25h12.5v2.5h2.5v7.5h-2.5v2.5h-12.5v-2.5h-2.5v-7.5h2.5Zm10,5v-3.75h-7.5v7.5h7.5Z"/><path d="M664.366,244.305v-5h5v10h7.5v-10h5v12.5h-15v-2.5h-2.5Z"/><path d="M686.866,245.555v-6.25h5v2.5h2.5v-2.5h7.5v2.5h-7.5v2.5h-2.5v7.5h-5Z"/><path d="M724.366,246.805v-7.5h15v2.5h2.5v5h-2.5v2.5h-10v5h-5Zm12.5-2.5v-2.5h-7.5v5h7.5Z"/><path d="M749.366,235.555v-1.25h7.5v15h5v2.5h-15v-2.5h5v-12.5h-2.5Z"/><path d="M766.866,240.555v-1.25h12.5v2.5h2.5v10h-15v-2.5h-2.5v-2.5h2.5v-2.5h10v-2.5h-10Zm10,7.5v-1.25h-7.5v2.5h7.5Z"/><path d="M784.366,243.055v-3.75h5v7.5h7.5v-7.5h5v12.5h-2.5v2.5h-12.5v-2.5h10v-2.5h-10v-2.5h-2.5Z"/><path d="M806.866,240.555v-1.25h12.5v2.5h2.5v5h-12.5v2.5h10v2.5h-12.5v-2.5h-2.5v-7.5h2.5Zm10,2.5v-1.25h-7.5v2.5h7.5Z"/><path d="M826.866,245.555v-6.25h5v2.5h2.5v-2.5h7.5v2.5h-7.5v2.5h-2.5v7.5h-5Z"/><path d="M849.366,240.555v-6.25h7.5v7.5h-2.5v5h-5Zm0,10v-1.25h5v2.5h-5Z"/><path class="a" d="M315.3,533.555V532.3h7.5v2.5h2.5v2.5h2.5v12.5h-5v-5h-7.5v5h-5V537.3h2.5v-2.5h2.5Zm5,2.5V534.8h-2.5v2.5h-2.5v5h7.5v-5h-2.5Z"/><path class="a" d="M335.3,533.555V532.3h7.5v15h5v2.5h-15v-2.5h5V534.8h-2.5Z"/><path class="a" d="M355.3,538.555V537.3h7.5v10h5v2.5h-15v-2.5h5v-7.5h-2.5Zm2.5-5V532.3h5v2.5h-5Z"/><path class="a" d="M372.8,538.555V537.3h15v2.5H375.3v7.5h12.5v2.5h-15v-2.5h-2.5v-7.5h2.5Z"/><path class="a" d="M392.8,538.555V537.3h12.5v2.5h2.5v5H395.3v2.5h10v2.5H392.8v-2.5h-2.5v-7.5h2.5Zm10,2.5V539.8h-7.5v2.5h7.5Z"/><path class="b" d="M522.131,541.055V532.3h5v2.5h2.5v2.5h2.5v-2.5h2.5v-2.5h5v17.5h-5v-7.5h-2.5v2.5h-2.5v-2.5h-2.5v7.5h-5Z"/><path class="b" d="M544.631,538.555V537.3h12.5v2.5h2.5v10h-15v-2.5h-2.5v-2.5h2.5v-2.5h10v-2.5h-10Zm10,7.5V544.8h-7.5v2.5h7.5Z"/><path class="b" d="M567.131,533.555V532.3h7.5v15h5v2.5h-15v-2.5h5V534.8h-2.5Z"/><path class="b" d="M587.131,538.555V537.3h7.5v10h5v2.5h-15v-2.5h5v-7.5h-2.5Zm2.5-5V532.3h5v2.5h-5Z"/><path class="b" d="M604.631,538.555V537.3h15v2.5h-12.5v7.5h12.5v2.5h-15v-2.5h-2.5v-7.5h2.5Z"/><path class="b" d="M624.631,538.555V537.3h12.5v2.5h2.5v5h-12.5v2.5h10v2.5h-12.5v-2.5h-2.5v-7.5h2.5Zm10,2.5V539.8h-7.5v2.5h7.5Z"/><path class="c" d="M743.962,541.055V532.3h12.5v2.5h2.5v2.5h2.5v7.5h-2.5v2.5h-2.5v2.5h-12.5Zm10-5V534.8h-5v12.5h5v-2.5h2.5v-7.5h-2.5Z"/><path class="c" d="M766.462,538.555V537.3h12.5v2.5h2.5v10h-15v-2.5h-2.5v-2.5h2.5v-2.5h10v-2.5h-10Zm10,7.5V544.8h-7.5v2.5h7.5Z"/><path class="c" d="M788.962,533.555V532.3h7.5v15h5v2.5h-15v-2.5h5V534.8h-2.5Z"/><path class="c" d="M808.962,538.555V537.3h7.5v10h5v2.5h-15v-2.5h5v-7.5h-2.5Zm2.5-5V532.3h5v2.5h-5Z"/><path class="c" d="M826.462,538.555V537.3h15v2.5h-12.5v7.5h12.5v2.5h-15v-2.5h-2.5v-7.5h2.5Z"/><path class="c" d="M846.462,538.555V537.3h12.5v2.5h2.5v5h-12.5v2.5h10v2.5h-12.5v-2.5h-2.5v-7.5h2.5Zm10,2.5V539.8h-7.5v2.5h7.5Z"/><path class="d" d="M965.793,541.055V532.3h15v2.5h2.5v7.5h-5v2.5h2.5v2.5h2.5v2.5h-7.5v-2.5h-2.5v-2.5h-2.5v5h-5Zm12.5-3.75v-2.5h-7.5v7.5h5v-2.5h2.5Z"/><path class="d" d="M988.293,538.555V537.3h12.5v2.5h2.5v10h-15v-2.5h-2.5v-2.5h2.5v-2.5h10v-2.5h-10Zm10,7.5V544.8h-7.5v2.5h7.5Z"/><path class="d" d="M1010.793,533.555V532.3h7.5v15h5v2.5h-15v-2.5h5V534.8h-2.5Z"/><path class="d" d="M1030.793,538.555V537.3h7.5v10h5v2.5h-15v-2.5h5v-7.5h-2.5Zm2.5-5V532.3h5v2.5h-5Z"/><path class="d" d="M1048.293,538.555V537.3h15v2.5h-12.5v7.5h12.5v2.5h-15v-2.5h-2.5v-7.5h2.5Z"/><path class="d" d="M1068.293,538.555V537.3h12.5v2.5h2.5v5h-12.5v2.5h10v2.5h-12.5v-2.5h-2.5v-7.5h2.5Zm10,2.5V539.8h-7.5v2.5h7.5Z"/><path class="a" d="M314.125,587.6v-8.75h15.154v2.5h2.527v7.5h-2.527v2.5h-10.1v5h-5.052Zm12.629-2.5v-3.75h-7.577v7.5h7.577Z"/><path class="a" d="M336.856,590.1v-6.25h5.052v2.5h2.526v-2.5h7.578v2.5h-7.578v2.5h-2.526v7.5h-5.052Z"/><path class="a" d="M357.062,585.1v-1.25h12.629v2.5h2.527v5H359.589v2.5h10.1v2.5H357.062v-2.5h-2.525v-7.5h2.525Zm10.1,2.5v-1.25h-7.577v2.5h7.577Z"/><path class="a" d="M377.269,585.1v-1.25H389.9v2.5H379.8v2.5h10.1v2.5h2.527v2.5H389.9v2.5H374.743v-2.5h12.629v-2.5h-10.1v-2.5h-2.526v-2.5h2.526Z"/><path class="a" d="M397.475,585.1v-1.25H410.1v2.5H400v2.5h10.1v2.5h2.526v2.5H410.1v2.5H394.949v-2.5h12.629v-2.5h-10.1v-2.5h-2.526v-2.5h2.526Z"/><path class="a" d="M286.341,604.1v-1.25H298.97v2.5H301.5v10H298.97v2.5H301.5v2.5H298.97v-2.5h-2.526v2.5h-10.1v-2.5h-2.526v-12.5h2.526Zm10.1,5v-3.75h-7.577v12.5h5.051v-2.5h-2.525v-2.5h5.051Z"/><path class="a" d="M309.073,617.854v-2.5h5.051v5H311.6v2.5h-5.052v-2.5h2.526Z"/><path class="a" d="M326.753,604.1v-1.25h10.1v2.5h2.526v2.5H334.33v-2.5h-5.051v5h10.1v2.5h2.526v5h-2.526v2.5H326.753v-2.5h-2.525v-2.5h5.051v2.5h7.577v-5h-10.1v-2.5h-2.525v-5h2.525Z"/><path class="a" d="M367.165,609.1v-1.25h12.629v2.5h2.526v7.5h-2.526v2.5H367.165v-2.5H364.64v-7.5h2.525Zm10.1,5v-3.75h-7.578v7.5h7.578Z"/><path class="a" d="M387.371,614.1v-6.25h5.052v2.5h2.525v-2.5h7.578v2.5h-7.578v2.5h-2.525v7.5h-5.052Z"/><path class="a" d="M425.258,604.1v-1.25h17.68v5h-2.526v2.5h-2.525v2.5H435.36v2.5h-2.525v2.5h10.1v2.5h-17.68v-5h2.525v-2.5h2.527v-2.5h2.525v-2.5h2.525v-2.5h-10.1Z"/><path class="b" d="M536.125,587.6v-8.75h15.154v2.5h2.527v7.5h-2.527v2.5h-10.1v5h-5.052Zm12.629-2.5v-3.75h-7.577v7.5h7.577Z"/><path class="b" d="M558.856,590.1v-6.25h5.052v2.5h2.526v-2.5h7.578v2.5h-7.578v2.5h-2.526v7.5h-5.052Z"/><path class="b" d="M579.062,585.1v-1.25h12.629v2.5h2.527v5H581.589v2.5h10.1v2.5H579.062v-2.5h-2.525v-7.5h2.525Zm10.1,2.5v-1.25h-7.577v2.5h7.577Z"/><path class="b" d="M599.269,585.1v-1.25H611.9v2.5h-10.1v2.5h10.1v2.5h2.527v2.5H611.9v2.5H596.743v-2.5h12.629v-2.5h-10.1v-2.5h-2.526v-2.5h2.526Z"/><path class="b" d="M619.475,585.1v-1.25H632.1v2.5H622v2.5h10.1v2.5h2.526v2.5H632.1v2.5H616.949v-2.5h12.629v-2.5h-10.1v-2.5h-2.526v-2.5h2.526Z"/><path class="b" d="M505.815,607.854v-5h5.052v7.5h2.526v2.5h2.525v-2.5h2.526v-7.5H523.5v10H520.97v2.5h-2.526v2.5h-2.526v2.5h-2.525v-2.5h-2.526v-2.5h-2.526v-2.5h-2.526Z"/><path class="b" d="M531.073,617.854v-2.5h5.051v5H533.6v2.5h-5.052v-2.5h2.526Z"/><path class="b" d="M551.279,604.1v-1.25h12.629v2.5H553.8v2.5h-2.526v7.5H553.8v2.5h5.051v-5H556.33v-2.5h7.578v10H551.279v-2.5h-2.526v-2.5h-2.525v-7.5h2.525v-2.5h2.526Z"/><path class="b" d="M589.165,609.1v-1.25h12.629v2.5h2.526v7.5h-2.526v2.5H589.165v-2.5H586.64v-7.5h2.525Zm10.1,5v-3.75h-7.578v7.5h7.578Z"/><path class="b" d="M609.371,614.1v-6.25h5.052v2.5h2.525v-2.5h7.578v2.5h-7.578v2.5h-2.525v7.5h-5.052Z"/><path class="b" d="M647.258,611.6v-8.75h5.052v2.5h2.525v2.5h2.525v2.5h2.527v-7.5h5.051v17.5h-5.051v-2.5H657.36v-2.5h-2.525v-2.5H652.31v7.5h-5.052Z"/><path class="c" d="M753.125,588.6v-8.75h15.154v2.5h2.527v7.5h-2.527v2.5h-10.1v5h-5.052Zm12.629-2.5v-3.75h-7.577v7.5h7.577Z"/><path class="c" d="M775.856,591.1v-6.25h5.052v2.5h2.526v-2.5h7.578v2.5h-7.578v2.5h-2.526v7.5h-5.052Z"/><path class="c" d="M796.062,586.1v-1.25h12.629v2.5h2.527v5H798.589v2.5h10.1v2.5H796.062v-2.5h-2.525v-7.5h2.525Zm10.1,2.5v-1.25h-7.577v2.5h7.577Z"/><path class="c" d="M816.269,586.1v-1.25H828.9v2.5H818.8v2.5h10.1v2.5h2.527v2.5H828.9v2.5H813.743v-2.5h12.629v-2.5h-10.1v-2.5h-2.526v-2.5h2.526Z"/><path class="c" d="M836.475,586.1v-1.25H849.1v2.5H839v2.5h10.1v2.5h2.526v2.5H849.1v2.5H833.949v-2.5h12.629v-2.5h-10.1v-2.5h-2.526v-2.5h2.526Z"/><path class="c" d="M806.165,610.1v-1.25h12.629v2.5h2.526v7.5h-2.526v2.5H806.165v-2.5H803.64v-7.5h2.525Zm10.1,5v-3.75h-7.578v7.5h7.578Z"/><path class="c" d="M826.371,615.1v-6.25h5.052v2.5h2.525v-2.5h7.578v2.5h-7.578v2.5h-2.525v7.5h-5.052Z"/><path class="d" d="M980.212,591.6v-8.75h14.105v2.5h2.352v7.5h-2.352v2.5h-9.4v5h-4.7Zm11.755-2.5v-3.75h-7.053v7.5h7.053Z"/><path class="d" d="M1001.37,594.1v-6.25h4.7v2.5h2.352v-2.5h7.053v2.5h-7.053v2.5h-2.352v7.5h-4.7Z"/><path class="d" d="M1020.179,589.1v-1.25h11.755v2.5h2.351v5H1022.53v2.5h9.4v2.5h-11.755v-2.5h-2.351v-7.5h2.351Zm9.4,2.5v-1.25h-7.053v2.5h7.053Z"/><path class="d" d="M1038.986,589.1v-1.25h11.755v2.5h-9.4v2.5h9.4v2.5h2.352v2.5h-2.352v2.5h-14.105v-2.5h11.755v-2.5h-9.4v-2.5h-2.35v-2.5h2.35Z"/><path class="d" d="M1057.794,589.1v-1.25h11.755v2.5h-9.4v2.5h9.4v2.5h2.351v2.5h-2.351v2.5h-14.106v-2.5H1067.2v-2.5h-9.4v-2.5h-2.351v-2.5h2.351Z"/><path class="d" d="M954.351,608.1v-1.25h11.754v2.5h2.352v5h-2.352v2.5h-2.35v2.5h-4.7v2.5h9.4v2.5H952v-5h2.351v-2.5H956.7v-2.5h4.7v-2.5h2.351v-2.5H956.7v2.5H952v-2.5h2.351Z"/><path class="d" d="M975.51,621.854v-2.5h4.7v5H977.86v2.5h-4.7v-2.5h2.352Z"/><path class="d" d="M996.669,608.1v-1.25h7.053v10h2.351v2.5h-2.351v5h-4.7v-5h-9.4v-5h2.351v-2.5h2.351v-2.5h2.351Zm2.352,6.25v-2.5h-2.352v2.5h-2.351v2.5h4.7Z"/><path class="d" d="M1029.582,613.1v-1.25h11.755v2.5h2.351v7.5h-2.351v2.5h-11.755v-2.5h-2.351v-7.5h2.351Zm9.4,5v-3.75h-7.052v7.5h7.052Z"/><path class="d" d="M1048.391,618.1v-6.25h4.7v2.5h2.351v-2.5h7.053v2.5h-7.053v2.5h-2.351v7.5h-4.7Z"/><path class="d" d="M1086.006,608.1v-1.25h9.4v2.5h2.351v5h-2.351v2.5h4.7v5h-2.351v2.5h-11.755v-2.5h-2.351v-5h2.351v-2.5h-2.351v-5h2.351Zm4.7,10v-1.25h-4.7v5h9.4v-2.5h-4.7Zm4.7-6.25v-2.5h-7.053v2.5h2.351v2.5h4.7Z"/><path class="d" d="M942.6,632.1v-1.25h4.7v2.5h-2.351v2.5H942.6v7.5h2.35v2.5H947.3v2.5h-4.7v-2.5h-2.352v-2.5h-2.35v-7.5h2.35v-2.5H942.6Z"/><path class="d" d="M952,642.1v-6.25H966.1v2.5h2.352v10h-4.7v-10H956.7v10H952Z"/><path class="d" d="M970.808,640.854v-5h4.7v10h7.052v-10h4.7v12.5H973.158v-2.5h-2.35Z"/><path class="d" d="M989.615,642.1v-6.25h14.106v2.5h2.351v10h-4.7v-10h-2.35v10h-4.7v-10h-2.351v10h-2.351Z"/><path class="d" d="M1031.934,632.1v-1.25h7.052v15h4.7v2.5h-14.106v-2.5h4.7v-12.5h-2.35Z"/><path class="d" d="M1048.39,637.1v-1.25h11.755v2.5h2.351v7.5h-2.351v2.5H1048.39v-2.5h-2.351v-7.5h2.351Zm9.4,5v-3.75h-7.053v7.5h7.053Z"/><path class="d" d="M1067.2,637.1v-1.25H1081.3v2.5h-11.755v7.5H1081.3v2.5H1067.2v-2.5h-2.35v-7.5h2.35Z"/><path class="d" d="M1083.655,639.6v-8.75h4.7v7.5h4.7v-2.5h7.052v2.5h-2.351v2.5h-2.351v2.5h2.351v2.5h2.351v2.5h-7.052v-2.5h-2.352v-2.5h-2.351v5h-4.7Z"/><path class="d" d="M1104.813,632.1v-1.25h4.7v2.5h2.351v2.5h2.351v7.5h-2.351v2.5h-2.351v2.5h-4.7v-2.5h2.352v-2.5h2.351v-7.5h-2.351v-2.5h-2.352Z"/><polygon class="c" points="761.271 624.973 744 615 761.271 605.027 761.271 624.973"/><polygon class="c" points="852.027 622.77 862 605.5 871.973 622.77 852.027 622.77"/><polygon class="c" points="777.729 623.973 795 614 777.729 604.027 777.729 623.973"/></svg>