<svg xmlns="http://www.w3.org/2000/svg" viewBox="0 0 913 138"><title>FNFF</title><path d="M56.866,39.555v-1.25h15v2.5h-5v12.5h5v2.5h-15v-2.5h5v-12.5h-5Z"/><path d="M74.366,49.555v-6.25h15v2.5h2.5v10h-5v-10h-7.5v10h-5Z"/><path d="M116.866,44.555v-1.25h12.5v2.5h2.5v10h-15v-2.5h-2.5v-2.5h2.5v-2.5h10v-2.5h-10Zm10,7.5v-1.25h-7.5v2.5h7.5Z"/><path d="M154.366,49.555v-6.25h15v2.5h2.5v10h-5v-10h-7.5v10h-5Z"/><path d="M176.866,44.555v-1.25h12.5v2.5h2.5v5h-12.5v2.5h10v2.5h-12.5v-2.5h-2.5v-7.5h2.5Zm10,2.5v-1.25h-7.5v2.5h7.5Z"/><path d="M196.866,44.555v-1.25h12.5v2.5h2.5v10h-15v-2.5h-2.5v-2.5h2.5v-2.5h10v-2.5h-10Zm10,7.5v-1.25h-7.5v2.5h7.5Z"/><path d="M216.866,49.555v-6.25h5v2.5h2.5v-2.5h7.5v2.5h-7.5v2.5h-2.5v7.5h-5Z"/><path d="M264.366,39.555v-1.25h7.5v2.5h-5v2.5h5v2.5h-5v10h-5v-10h-5v-2.5h5v-2.5h2.5Z"/><path d="M274.366,48.305v-5h5v10h7.5v-10h5v12.5h-15v-2.5h-2.5Z"/><path d="M301.866,40.805v-2.5h5v5h5v2.5h-5v10h-5v-10h-5v-2.5h5Z"/><path d="M314.366,48.305v-5h5v10h7.5v-10h5v12.5h-15v-2.5h-2.5Z"/><path d="M336.866,49.555v-6.25h5v2.5h2.5v-2.5h7.5v2.5h-7.5v2.5h-2.5v7.5h-5Z"/><path d="M356.866,44.555v-1.25h12.5v2.5h2.5v5h-12.5v2.5h10v2.5h-12.5v-2.5h-2.5v-7.5h2.5Zm10,2.5v-1.25h-7.5v2.5h7.5Z"/><path d="M394.366,49.555v-6.25h15v2.5h2.5v10h-5v-10h-2.5v10h-5v-10h-2.5v10h-2.5Z"/><path d="M416.866,44.555v-1.25h12.5v2.5h2.5v10h-15v-2.5h-2.5v-2.5h2.5v-2.5h10v-2.5h-10Zm10,7.5v-1.25h-7.5v2.5h7.5Z"/><path d="M434.366,49.555v-6.25h15v2.5h2.5v10h-5v-10h-7.5v10h-5Z"/><path d="M454.366,47.055v-8.75h5v7.5h5v-2.5h7.5v2.5h-2.5v2.5h-2.5v2.5h2.5v2.5h2.5v2.5h-7.5v-2.5h-2.5v-2.5h-2.5v5h-5Z"/><path d="M479.366,44.555v-1.25h7.5v10h5v2.5h-15v-2.5h5v-7.5h-2.5Zm2.5-5v-1.25h5v2.5h-5Z"/><path d="M494.366,49.555v-6.25h15v2.5h2.5v10h-5v-10h-7.5v10h-5Z"/><path d="M526.866,40.805v-2.5h5v17.5h-15v-2.5h-2.5v-7.5h2.5v-2.5h10Zm0,8.75v-3.75h-7.5v7.5h7.5Z"/><path d="M554.366,48.305v-5h2.5v10h2.5v-10h5v10h2.5v-10h5v12.5h-15v-2.5h-2.5Z"/><path d="M576.866,44.555v-1.25h12.5v2.5h2.5v10h-15v-2.5h-2.5v-2.5h2.5v-2.5h10v-2.5h-10Zm10,7.5v-1.25h-7.5v2.5h7.5Z"/><path d="M596.866,44.555v-1.25h12.5v2.5h-10v2.5h10v2.5h2.5v2.5h-2.5v2.5h-15v-2.5h12.5v-2.5h-10v-2.5h-2.5v-2.5h2.5Z"/><path d="M636.866,44.555v-1.25h12.5v2.5h2.5v7.5h-2.5v2.5h-12.5v-2.5h-2.5v-7.5h2.5Zm10,5v-3.75h-7.5v7.5h7.5Z"/><path d="M654.366,49.555v-6.25h15v2.5h2.5v10h-5v-10h-7.5v10h-5Z"/><path d="M701.866,40.805v-2.5h5v5h5v2.5h-5v10h-5v-10h-5v-2.5h5Z"/><path d="M714.366,47.055v-8.75h5v5h10v2.5h2.5v10h-5v-10h-7.5v10h-5Z"/><path d="M736.866,44.555v-1.25h12.5v2.5h2.5v5h-12.5v2.5h10v2.5h-12.5v-2.5h-2.5v-7.5h2.5Zm10,2.5v-1.25h-7.5v2.5h7.5Z"/><path d="M774.366,50.805v-7.5h15v2.5h2.5v5h-2.5v2.5h-10v5h-5Zm12.5-2.5v-2.5h-7.5v5h7.5Z"/><path d="M796.866,44.555v-1.25h12.5v2.5h2.5v5h-12.5v2.5h10v2.5h-12.5v-2.5h-2.5v-7.5h2.5Zm10,2.5v-1.25h-7.5v2.5h7.5Z"/><path d="M816.866,44.555v-1.25h12.5v2.5h2.5v10h-15v-2.5h-2.5v-2.5h2.5v-2.5h10v-2.5h-10Zm10,7.5v-1.25h-7.5v2.5h7.5Z"/><path d="M834.366,47.055v-8.75h5v7.5h5v-2.5h7.5v2.5h-2.5v2.5h-2.5v2.5h2.5v2.5h2.5v2.5h-7.5v-2.5h-2.5v-2.5h-2.5v5h-5Z"/><path d="M116.866,68.555v-1.25h12.5v2.5h2.5v7.5h-2.5v2.5h-12.5v-2.5h-2.5v-7.5h2.5Zm10,5v-3.75h-7.5v7.5h7.5Z"/><path d="M144.366,63.555v-1.25h7.5v2.5h-5v2.5h5v2.5h-5v10h-5v-10h-5v-2.5h5v-2.5h2.5Z"/><path d="M176.866,68.555v-1.25h12.5v2.5h2.5v5h-12.5v2.5h10v2.5h-12.5v-2.5h-2.5v-7.5h2.5Zm10,2.5v-1.25h-7.5v2.5h7.5Z"/><path d="M194.366,69.805v-2.5h5v2.5h7.5v-2.5h5v5h-5v2.5h5v5h-5v-2.5h-7.5v2.5h-5v-5h5v-2.5h-5Z"/><path d="M221.866,64.805v-2.5h5v5h5v2.5h-5v10h-5v-10h-5v-2.5h5Z"/><path d="M239.366,68.555v-1.25h7.5v10h5v2.5h-15v-2.5h5v-7.5h-2.5Zm2.5-5v-1.25h5v2.5h-5Z"/><path d="M254.366,73.555v-6.25h15v2.5h2.5v10h-5v-10h-7.5v10h-5Z"/><path d="M276.866,68.555v-1.25h15v2.5h-12.5v7.5h12.5v2.5h-15v-2.5h-2.5v-7.5h2.5Z"/><path d="M301.866,64.805v-2.5h5v5h5v2.5h-5v10h-5v-10h-5v-2.5h5Z"/><path d="M319.366,68.555v-1.25h7.5v10h5v2.5h-15v-2.5h5v-7.5h-2.5Zm2.5-5v-1.25h5v2.5h-5Z"/><path d="M336.866,68.555v-1.25h12.5v2.5h2.5v7.5h-2.5v2.5h-12.5v-2.5h-2.5v-7.5h2.5Zm10,5v-3.75h-7.5v7.5h7.5Z"/><path d="M354.366,73.555v-6.25h15v2.5h2.5v10h-5v-10h-7.5v10h-5Z"/><path d="M379.366,77.305v-2.5h5v5h-5Z"/><path d="M414.366,71.055v-8.75h5v7.5h2.5v-2.5h2.5v2.5h2.5v-7.5h5v17.5h-5v-2.5h-2.5v-2.5h-2.5v2.5h-2.5v2.5h-5Z"/><path d="M436.866,68.555v-1.25h12.5v2.5h2.5v10h-15v-2.5h-2.5v-2.5h2.5v-2.5h10v-2.5h-10Zm10,7.5v-1.25h-7.5v2.5h7.5Z"/><path d="M461.866,64.805v-2.5h5v5h5v2.5h-5v10h-5v-10h-5v-2.5h5Z"/><path d="M476.866,68.555v-1.25h12.5v2.5h2.5v5h-12.5v2.5h10v2.5h-12.5v-2.5h-2.5v-7.5h2.5Zm10,2.5v-1.25h-7.5v2.5h7.5Z"/><path d="M496.866,73.555v-6.25h5v2.5h2.5v-2.5h7.5v2.5h-7.5v2.5h-2.5v7.5h-5Z"/><path d="M534.366,72.305v-5h2.5v10h2.5v-10h5v10h2.5v-10h5v12.5h-15v-2.5h-2.5Z"/><path d="M556.866,68.555v-1.25h12.5v2.5h2.5v10h-15v-2.5h-2.5v-2.5h2.5v-2.5h10v-2.5h-10Zm10,7.5v-1.25h-7.5v2.5h7.5Z"/><path d="M576.866,68.555v-1.25h12.5v2.5h-10v2.5h10v2.5h2.5v2.5h-2.5v2.5h-15v-2.5h12.5v-2.5h-10v-2.5h-2.5v-2.5h2.5Z"/><path d="M624.366,63.555v-1.25h7.5v2.5h-5v2.5h5v2.5h-5v10h-5v-10h-5v-2.5h5v-2.5h2.5Z"/><path d="M639.366,63.555v-1.25h7.5v15h5v2.5h-15v-2.5h5v-12.5h-2.5Z"/><path d="M656.866,68.555v-1.25h12.5v2.5h2.5v7.5h-2.5v2.5h-12.5v-2.5h-2.5v-7.5h2.5Zm10,5v-3.75h-7.5v7.5h7.5Z"/><path d="M676.866,68.555v-1.25h12.5v2.5h2.5v7.5h-2.5v2.5h-12.5v-2.5h-2.5v-7.5h2.5Zm10,5v-3.75h-7.5v7.5h7.5Z"/><path d="M706.866,64.805v-2.5h5v17.5h-15v-2.5h-2.5v-7.5h2.5v-2.5h10Zm0,8.75v-3.75h-7.5v7.5h7.5Z"/><path d="M719.366,68.555v-1.25h7.5v10h5v2.5h-15v-2.5h5v-7.5h-2.5Zm2.5-5v-1.25h5v2.5h-5Z"/><path d="M734.366,73.555v-6.25h15v2.5h2.5v10h-5v-10h-7.5v10h-5Z"/><path d="M756.866,68.555v-1.25h15v12.5h-2.5v2.5h-12.5v-2.5h10v-2.5h-10v-2.5h-2.5v-5h2.5Zm10,3.75v-2.5h-7.5v5h7.5Z"/><path d="M779.366,77.305v-2.5h5v5h-5Z"/><path d="M24.366,95.055v-8.75h17.5v2.5h-12.5v5h10v2.5h-10v7.5h-5Z"/><path d="M49.366,92.555v-1.25h7.5v10h5v2.5h-15v-2.5h5v-7.5h-2.5Zm2.5-5v-1.25h5v2.5h-5Z"/><path d="M66.866,97.555v-6.25h5v2.5h2.5v-2.5h7.5v2.5h-7.5v2.5h-2.5v7.5h-5Z"/><path d="M86.866,92.555v-1.25h12.5v2.5h2.5v5h-12.5v2.5h10v2.5h-12.5v-2.5h-2.5v-7.5h2.5Zm10,2.5v-1.25h-7.5v2.5h7.5Z"/><path d="M106.866,92.555v-1.25h12.5v2.5h-10v2.5h10v2.5h2.5v2.5h-2.5v2.5h-15v-2.5h12.5v-2.5h-10v-2.5h-2.5v-2.5h2.5Z"/><path d="M144.366,96.305v-5h2.5v10h2.5v-10h5v10h2.5v-10h5v12.5h-15v-2.5h-2.5Z"/><path d="M164.366,95.055v-8.75h5v5h10v2.5h2.5v10h-5v-10h-7.5v10h-5Z"/><path d="M186.866,92.555v-1.25h12.5v2.5h2.5v5h-12.5v2.5h10v2.5h-12.5v-2.5h-2.5v-7.5h2.5Zm10,2.5v-1.25h-7.5v2.5h7.5Z"/><path d="M206.866,97.555v-6.25h5v2.5h2.5v-2.5h7.5v2.5h-7.5v2.5h-2.5v7.5h-5Z"/><path d="M226.866,92.555v-1.25h12.5v2.5h2.5v5h-12.5v2.5h10v2.5h-12.5v-2.5h-2.5v-7.5h2.5Zm10,2.5v-1.25h-7.5v2.5h7.5Z"/><path d="M264.366,93.805v-7.5h5v5h10v2.5h2.5v7.5h-2.5v2.5h-12.5v-2.5h-2.5Zm12.5,3.75v-3.75h-7.5v7.5h7.5Z"/><path d="M284.366,96.305v-5h5v10h7.5v-10h5v12.5h-15v-2.5h-2.5Z"/><path d="M306.866,97.555v-6.25h5v2.5h2.5v-2.5h7.5v2.5h-7.5v2.5h-2.5v7.5h-5Z"/><path d="M324.366,97.555v-6.25h15v2.5h2.5v10h-5v-10h-7.5v10h-5Z"/><path d="M349.366,92.555v-1.25h7.5v10h5v2.5h-15v-2.5h5v-7.5h-2.5Zm2.5-5v-1.25h5v2.5h-5Z"/><path d="M364.366,97.555v-6.25h15v2.5h2.5v10h-5v-10h-7.5v10h-5Z"/><path d="M386.866,92.555v-1.25h15v12.5h-2.5v2.5h-12.5v-2.5h10v-2.5h-10v-2.5h-2.5v-5h2.5Zm10,3.75v-2.5h-7.5v5h7.5Z"/><path d="M426.866,92.555v-1.25h12.5v2.5h2.5v10h-15v-2.5h-2.5v-2.5h2.5v-2.5h10v-2.5h-10Zm10,7.5v-1.25h-7.5v2.5h7.5Z"/><path d="M444.366,97.555v-6.25h15v2.5h2.5v10h-5v-10h-7.5v10h-5Z"/><path d="M476.866,88.805v-2.5h5v17.5h-15v-2.5h-2.5v-7.5h2.5v-2.5h10Zm0,8.75v-3.75h-7.5v7.5h7.5Z"/><path d="M506.866,92.555v-1.25h12.5v2.5h2.5v10h-15v-2.5h-2.5v-2.5h2.5v-2.5h10v-2.5h-10Zm10,7.5v-1.25h-7.5v2.5h7.5Z"/><path d="M529.366,87.555v-1.25h7.5v15h5v2.5h-15v-2.5h5v-12.5h-2.5Z"/><path d="M549.366,87.555v-1.25h7.5v15h5v2.5h-15v-2.5h5v-12.5h-2.5Z"/><path d="M584.366,96.305v-5h2.5v10h2.5v-10h5v10h2.5v-10h5v12.5h-15v-2.5h-2.5Z"/><path d="M606.866,92.555v-1.25h12.5v2.5h2.5v10h-15v-2.5h-2.5v-2.5h2.5v-2.5h10v-2.5h-10Zm10,7.5v-1.25h-7.5v2.5h7.5Z"/><path d="M626.866,92.555v-1.25h12.5v2.5h-10v2.5h10v2.5h2.5v2.5h-2.5v2.5h-15v-2.5h12.5v-2.5h-10v-2.5h-2.5v-2.5h2.5Z"/><path d="M664.366,98.805v-7.5h15v2.5h2.5v5h-2.5v2.5h-10v5h-5Zm12.5-2.5v-2.5h-7.5v5h7.5Z"/><path d="M686.866,97.555v-6.25h5v2.5h2.5v-2.5h7.5v2.5h-7.5v2.5h-2.5v7.5h-5Z"/><path d="M706.866,92.555v-1.25h12.5v2.5h2.5v5h-12.5v2.5h10v2.5h-12.5v-2.5h-2.5v-7.5h2.5Zm10,2.5v-1.25h-7.5v2.5h7.5Z"/><path d="M731.866,88.805v-2.5h5v5h5v2.5h-5v10h-5v-10h-5v-2.5h5Z"/><path d="M751.866,88.805v-2.5h5v5h5v2.5h-5v10h-5v-10h-5v-2.5h5Z"/><path d="M764.366,95.055v-3.75h5v7.5h7.5v-7.5h5v12.5h-2.5v2.5h-12.5v-2.5h10v-2.5h-10v-2.5h-2.5Z"/><path d="M816.866,88.805v-2.5h5v17.5h-15v-2.5h-2.5v-7.5h2.5v-2.5h10Zm0,8.75v-3.75h-7.5v7.5h7.5Z"/><path d="M826.866,92.555v-1.25h12.5v2.5h2.5v10h-15v-2.5h-2.5v-2.5h2.5v-2.5h10v-2.5h-10Zm10,7.5v-1.25h-7.5v2.5h7.5Z"/><path d="M846.866,97.555v-6.25h5v2.5h2.5v-2.5h7.5v2.5h-7.5v2.5h-2.5v7.5h-5Z"/><path d="M864.366,95.055v-8.75h5v7.5h5v-2.5h7.5v2.5h-2.5v2.5h-2.5v2.5h2.5v2.5h2.5v2.5h-7.5v-2.5h-2.5v-2.5h-2.5v5h-5Z"/></svg>