<svg xmlns="http://www.w3.org/2000/svg" viewBox="0 0 913 138"><title>FNFF</title><path d="M44.866,37.555v-1.25h15v2.5h-5v12.5h5v2.5h-15v-2.5h5v-12.5h-5Z"/><path d="M62.366,47.555v-6.25h15v2.5h2.5v10h-5v-10h-7.5v10h-5Z"/><path d="M104.866,42.555v-1.25h12.5v2.5h2.5v10h-15v-2.5h-2.5v-2.5h2.5v-2.5h10v-2.5h-10Zm10,7.5v-1.25h-7.5v2.5h7.5Z"/><path d="M142.366,47.555v-6.25h15v2.5h2.5v10h-5v-10h-7.5v10h-5Z"/><path d="M164.866,42.555v-1.25h12.5v2.5h2.5v5h-12.5v2.5h10v2.5h-12.5v-2.5h-2.5v-7.5h2.5Zm10,2.5v-1.25h-7.5v2.5h7.5Z"/><path d="M184.866,42.555v-1.25h12.5v2.5h2.5v10h-15v-2.5h-2.5v-2.5h2.5v-2.5h10v-2.5h-10Zm10,7.5v-1.25h-7.5v2.5h7.5Z"/><path d="M204.866,47.555v-6.25h5v2.5h2.5v-2.5h7.5v2.5h-7.5v2.5h-2.5v7.5h-5Z"/><path d="M252.366,37.555v-1.25h7.5v2.5h-5v2.5h5v2.5h-5v10h-5v-10h-5v-2.5h5v-2.5h2.5Z"/><path d="M262.366,46.305v-5h5v10h7.5v-10h5v12.5h-15v-2.5h-2.5Z"/><path d="M289.866,38.805v-2.5h5v5h5v2.5h-5v10h-5v-10h-5v-2.5h5Z"/><path d="M302.366,46.305v-5h5v10h7.5v-10h5v12.5h-15v-2.5h-2.5Z"/><path d="M324.866,47.555v-6.25h5v2.5h2.5v-2.5h7.5v2.5h-7.5v2.5h-2.5v7.5h-5Z"/><path d="M344.866,42.555v-1.25h12.5v2.5h2.5v5h-12.5v2.5h10v2.5h-12.5v-2.5h-2.5v-7.5h2.5Zm10,2.5v-1.25h-7.5v2.5h7.5Z"/><path d="M382.366,47.555v-6.25h15v2.5h2.5v10h-5v-10h-2.5v10h-5v-10h-2.5v10h-2.5Z"/><path d="M404.866,42.555v-1.25h12.5v2.5h2.5v10h-15v-2.5h-2.5v-2.5h2.5v-2.5h10v-2.5h-10Zm10,7.5v-1.25h-7.5v2.5h7.5Z"/><path d="M422.366,47.555v-6.25h15v2.5h2.5v10h-5v-10h-7.5v10h-5Z"/><path d="M442.366,45.055v-8.75h5v7.5h5v-2.5h7.5v2.5h-2.5v2.5h-2.5v2.5h2.5v2.5h2.5v2.5h-7.5v-2.5h-2.5v-2.5h-2.5v5h-5Z"/><path d="M467.366,42.555v-1.25h7.5v10h5v2.5h-15v-2.5h5v-7.5h-2.5Zm2.5-5v-1.25h5v2.5h-5Z"/><path d="M482.366,47.555v-6.25h15v2.5h2.5v10h-5v-10h-7.5v10h-5Z"/><path d="M514.866,38.805v-2.5h5v17.5h-15v-2.5h-2.5v-7.5h2.5v-2.5h10Zm0,8.75v-3.75h-7.5v7.5h7.5Z"/><path d="M542.366,46.305v-5h2.5v10h2.5v-10h5v10h2.5v-10h5v12.5h-15v-2.5h-2.5Z"/><path d="M564.866,42.555v-1.25h12.5v2.5h2.5v10h-15v-2.5h-2.5v-2.5h2.5v-2.5h10v-2.5h-10Zm10,7.5v-1.25h-7.5v2.5h7.5Z"/><path d="M584.866,42.555v-1.25h12.5v2.5h-10v2.5h10v2.5h2.5v2.5h-2.5v2.5h-15v-2.5h12.5v-2.5h-10v-2.5h-2.5v-2.5h2.5Z"/><path d="M624.866,42.555v-1.25h12.5v2.5h2.5v7.5h-2.5v2.5h-12.5v-2.5h-2.5v-7.5h2.5Zm10,5v-3.75h-7.5v7.5h7.5Z"/><path d="M642.366,47.555v-6.25h15v2.5h2.5v10h-5v-10h-7.5v10h-5Z"/><path d="M689.866,38.805v-2.5h5v5h5v2.5h-5v10h-5v-10h-5v-2.5h5Z"/><path d="M702.366,45.055v-8.75h5v5h10v2.5h2.5v10h-5v-10h-7.5v10h-5Z"/><path d="M724.866,42.555v-1.25h12.5v2.5h2.5v5h-12.5v2.5h10v2.5h-12.5v-2.5h-2.5v-7.5h2.5Zm10,2.5v-1.25h-7.5v2.5h7.5Z"/><path d="M762.366,43.805v-7.5h5v5h10v2.5h2.5v7.5h-2.5v2.5h-12.5v-2.5h-2.5Zm12.5,3.75v-3.75h-7.5v7.5h7.5Z"/><path d="M784.866,47.555v-6.25h5v2.5h2.5v-2.5h7.5v2.5h-7.5v2.5h-2.5v7.5h-5Z"/><path d="M807.366,42.555v-1.25h7.5v10h5v2.5h-15v-2.5h5v-7.5h-2.5Zm2.5-5v-1.25h5v2.5h-5Z"/><path d="M822.366,47.555v-6.25h15v2.5h2.5v10h-5v-10h-7.5v10h-5Z"/><path d="M842.366,45.055v-8.75h5v7.5h5v-2.5h7.5v2.5h-2.5v2.5h-2.5v2.5h2.5v2.5h2.5v2.5h-7.5v-2.5h-2.5v-2.5h-2.5v5h-5Z"/><path d="M114.866,66.555v-1.25h12.5v2.5h2.5v7.5h-2.5v2.5h-12.5v-2.5h-2.5v-7.5h2.5Zm10,5v-3.75h-7.5v7.5h7.5Z"/><path d="M142.366,61.555v-1.25h7.5v2.5h-5v2.5h5v2.5h-5v10h-5v-10h-5v-2.5h5v-2.5h2.5Z"/><path d="M174.866,66.555v-1.25h12.5v2.5h2.5v5h-12.5v2.5h10v2.5h-12.5v-2.5h-2.5v-7.5h2.5Zm10,2.5v-1.25h-7.5v2.5h7.5Z"/><path d="M192.366,67.805v-2.5h5v2.5h7.5v-2.5h5v5h-5v2.5h5v5h-5v-2.5h-7.5v2.5h-5v-5h5v-2.5h-5Z"/><path d="M219.866,62.805v-2.5h5v5h5v2.5h-5v10h-5v-10h-5v-2.5h5Z"/><path d="M237.366,66.555v-1.25h7.5v10h5v2.5h-15v-2.5h5v-7.5h-2.5Zm2.5-5v-1.25h5v2.5h-5Z"/><path d="M252.366,71.555v-6.25h15v2.5h2.5v10h-5v-10h-7.5v10h-5Z"/><path d="M274.866,66.555v-1.25h15v2.5h-12.5v7.5h12.5v2.5h-15v-2.5h-2.5v-7.5h2.5Z"/><path d="M299.866,62.805v-2.5h5v5h5v2.5h-5v10h-5v-10h-5v-2.5h5Z"/><path d="M317.366,66.555v-1.25h7.5v10h5v2.5h-15v-2.5h5v-7.5h-2.5Zm2.5-5v-1.25h5v2.5h-5Z"/><path d="M334.866,66.555v-1.25h12.5v2.5h2.5v7.5h-2.5v2.5h-12.5v-2.5h-2.5v-7.5h2.5Zm10,5v-3.75h-7.5v7.5h7.5Z"/><path d="M352.366,71.555v-6.25h15v2.5h2.5v10h-5v-10h-7.5v10h-5Z"/><path d="M377.366,75.305v-2.5h5v5h-5Z"/><path d="M412.366,69.055v-8.75h5v7.5h2.5v-2.5h2.5v2.5h2.5v-7.5h5v17.5h-5v-2.5h-2.5v-2.5h-2.5v2.5h-2.5v2.5h-5Z"/><path d="M434.866,66.555v-1.25h12.5v2.5h2.5v10h-15v-2.5h-2.5v-2.5h2.5v-2.5h10v-2.5h-10Zm10,7.5v-1.25h-7.5v2.5h7.5Z"/><path d="M459.866,62.805v-2.5h5v5h5v2.5h-5v10h-5v-10h-5v-2.5h5Z"/><path d="M474.866,66.555v-1.25h12.5v2.5h2.5v5h-12.5v2.5h10v2.5h-12.5v-2.5h-2.5v-7.5h2.5Zm10,2.5v-1.25h-7.5v2.5h7.5Z"/><path d="M494.866,71.555v-6.25h5v2.5h2.5v-2.5h7.5v2.5h-7.5v2.5h-2.5v7.5h-5Z"/><path d="M532.366,70.305v-5h2.5v10h2.5v-10h5v10h2.5v-10h5v12.5h-15v-2.5h-2.5Z"/><path d="M554.866,66.555v-1.25h12.5v2.5h2.5v10h-15v-2.5h-2.5v-2.5h2.5v-2.5h10v-2.5h-10Zm10,7.5v-1.25h-7.5v2.5h7.5Z"/><path d="M574.866,66.555v-1.25h12.5v2.5h-10v2.5h10v2.5h2.5v2.5h-2.5v2.5h-15v-2.5h12.5v-2.5h-10v-2.5h-2.5v-2.5h2.5Z"/><path d="M622.366,61.555v-1.25h7.5v2.5h-5v2.5h5v2.5h-5v10h-5v-10h-5v-2.5h5v-2.5h2.5Z"/><path d="M637.366,61.555v-1.25h7.5v15h5v2.5h-15v-2.5h5v-12.5h-2.5Z"/><path d="M654.866,66.555v-1.25h12.5v2.5h2.5v7.5h-2.5v2.5h-12.5v-2.5h-2.5v-7.5h2.5Zm10,5v-3.75h-7.5v7.5h7.5Z"/><path d="M674.866,66.555v-1.25h12.5v2.5h2.5v7.5h-2.5v2.5h-12.5v-2.5h-2.5v-7.5h2.5Zm10,5v-3.75h-7.5v7.5h7.5Z"/><path d="M704.866,62.805v-2.5h5v17.5h-15v-2.5h-2.5v-7.5h2.5v-2.5h10Zm0,8.75v-3.75h-7.5v7.5h7.5Z"/><path d="M717.366,66.555v-1.25h7.5v10h5v2.5h-15v-2.5h5v-7.5h-2.5Zm2.5-5v-1.25h5v2.5h-5Z"/><path d="M732.366,71.555v-6.25h15v2.5h2.5v10h-5v-10h-7.5v10h-5Z"/><path d="M754.866,66.555v-1.25h15v12.5h-2.5v2.5h-12.5v-2.5h10v-2.5h-10v-2.5h-2.5v-5h2.5Zm10,3.75v-2.5h-7.5v5h7.5Z"/><path d="M777.366,75.305v-2.5h5v5h-5Z"/><path d="M22.366,93.055v-8.75h17.5v2.5h-12.5v5h10v2.5h-10v7.5h-5Z"/><path d="M47.366,90.555v-1.25h7.5v10h5v2.5h-15v-2.5h5v-7.5h-2.5Zm2.5-5v-1.25h5v2.5h-5Z"/><path d="M64.866,95.555v-6.25h5v2.5h2.5v-2.5h7.5v2.5h-7.5v2.5h-2.5v7.5h-5Z"/><path d="M84.866,90.555v-1.25h12.5v2.5h2.5v5h-12.5v2.5h10v2.5h-12.5v-2.5h-2.5v-7.5h2.5Zm10,2.5v-1.25h-7.5v2.5h7.5Z"/><path d="M104.866,90.555v-1.25h12.5v2.5h-10v2.5h10v2.5h2.5v2.5h-2.5v2.5h-15v-2.5h12.5v-2.5h-10v-2.5h-2.5v-2.5h2.5Z"/><path d="M142.366,94.305v-5h2.5v10h2.5v-10h5v10h2.5v-10h5v12.5h-15v-2.5h-2.5Z"/><path d="M164.866,90.555v-1.25h12.5v2.5h2.5v5h-12.5v2.5h10v2.5h-12.5v-2.5h-2.5v-7.5h2.5Zm10,2.5v-1.25h-7.5v2.5h7.5Z"/><path d="M184.866,95.555v-6.25h5v2.5h2.5v-2.5h7.5v2.5h-7.5v2.5h-2.5v7.5h-5Z"/><path d="M204.866,90.555v-1.25h12.5v2.5h2.5v5h-12.5v2.5h10v2.5h-12.5v-2.5h-2.5v-7.5h2.5Zm10,2.5v-1.25h-7.5v2.5h7.5Z"/><path d="M242.366,91.805v-7.5h5v5h10v2.5h2.5v7.5h-2.5v2.5h-12.5v-2.5h-2.5Zm12.5,3.75v-3.75h-7.5v7.5h7.5Z"/><path d="M262.366,94.305v-5h5v10h7.5v-10h5v12.5h-15v-2.5h-2.5Z"/><path d="M284.866,95.555v-6.25h5v2.5h2.5v-2.5h7.5v2.5h-7.5v2.5h-2.5v7.5h-5Z"/><path d="M302.366,95.555v-6.25h15v2.5h2.5v10h-5v-10h-7.5v10h-5Z"/><path d="M327.366,90.555v-1.25h7.5v10h5v2.5h-15v-2.5h5v-7.5h-2.5Zm2.5-5v-1.25h5v2.5h-5Z"/><path d="M342.366,95.555v-6.25h15v2.5h2.5v10h-5v-10h-7.5v10h-5Z"/><path d="M364.866,90.555v-1.25h15v12.5h-2.5v2.5h-12.5v-2.5h10v-2.5h-10v-2.5h-2.5v-5h2.5Zm10,3.75v-2.5h-7.5v5h7.5Z"/><path d="M404.866,90.555v-1.25h12.5v2.5h2.5v10h-15v-2.5h-2.5v-2.5h2.5v-2.5h10v-2.5h-10Zm10,7.5v-1.25h-7.5v2.5h7.5Z"/><path d="M422.366,95.555v-6.25h15v2.5h2.5v10h-5v-10h-7.5v10h-5Z"/><path d="M454.866,86.805v-2.5h5v17.5h-15v-2.5h-2.5v-7.5h2.5v-2.5h10Zm0,8.75v-3.75h-7.5v7.5h7.5Z"/><path d="M484.866,90.555v-1.25h12.5v2.5h2.5v10h-15v-2.5h-2.5v-2.5h2.5v-2.5h10v-2.5h-10Zm10,7.5v-1.25h-7.5v2.5h7.5Z"/><path d="M507.366,85.555v-1.25h7.5v15h5v2.5h-15v-2.5h5v-12.5h-2.5Z"/><path d="M527.366,85.555v-1.25h7.5v15h5v2.5h-15v-2.5h5v-12.5h-2.5Z"/><path d="M562.366,94.305v-5h2.5v10h2.5v-10h5v10h2.5v-10h5v12.5h-15v-2.5h-2.5Z"/><path d="M584.866,90.555v-1.25h12.5v2.5h2.5v10h-15v-2.5h-2.5v-2.5h2.5v-2.5h10v-2.5h-10Zm10,7.5v-1.25h-7.5v2.5h7.5Z"/><path d="M604.866,90.555v-1.25h12.5v2.5h-10v2.5h10v2.5h2.5v2.5h-2.5v2.5h-15v-2.5h12.5v-2.5h-10v-2.5h-2.5v-2.5h2.5Z"/><path d="M642.366,96.805v-7.5h15v2.5h2.5v5h-2.5v2.5h-10v5h-5Zm12.5-2.5v-2.5h-7.5v5h7.5Z"/><path d="M664.866,95.555v-6.25h5v2.5h2.5v-2.5h7.5v2.5h-7.5v2.5h-2.5v7.5h-5Z"/><path d="M684.866,90.555v-1.25h12.5v2.5h2.5v5h-12.5v2.5h10v2.5h-12.5v-2.5h-2.5v-7.5h2.5Zm10,2.5v-1.25h-7.5v2.5h7.5Z"/><path d="M709.866,86.805v-2.5h5v5h5v2.5h-5v10h-5v-10h-5v-2.5h5Z"/><path d="M729.866,86.805v-2.5h5v5h5v2.5h-5v10h-5v-10h-5v-2.5h5Z"/><path d="M742.366,93.055v-3.75h5v7.5h7.5v-7.5h5v12.5h-2.5v2.5h-12.5v-2.5h10v-2.5h-10v-2.5h-2.5Z"/><path d="M794.866,86.805v-2.5h5v17.5h-15v-2.5h-2.5v-7.5h2.5v-2.5h10Zm0,8.75v-3.75h-7.5v7.5h7.5Z"/><path d="M804.866,90.555v-1.25h12.5v2.5h2.5v10h-15v-2.5h-2.5v-2.5h2.5v-2.5h10v-2.5h-10Zm10,7.5v-1.25h-7.5v2.5h7.5Z"/><path d="M824.866,95.555v-6.25h5v2.5h2.5v-2.5h7.5v2.5h-7.5v2.5h-2.5v7.5h-5Z"/><path d="M842.366,93.055v-8.75h5v7.5h5v-2.5h7.5v2.5h-2.5v2.5h-2.5v2.5h2.5v2.5h2.5v2.5h-7.5v-2.5h-2.5v-2.5h-2.5v5h-5Z"/><path d="M867.366,99.305v-2.5h5v5h-5Z"/></svg>